<svg width="222" height="222" viewBox="0 0 222 222" fill="none" xmlns="http://www.w3.org/2000/svg">
<path d="M103.5 4.33013C108.141 1.65064 113.859 1.65064 118.5 4.33013L199.629 51.1699C204.27 53.8494 207.129 58.8013 207.129 64.1603V157.84C207.129 163.199 204.27 168.151 199.629 170.83L118.5 217.67C113.859 220.349 108.141 220.349 103.5 217.67L22.3712 170.83C17.7302 168.151 14.8712 163.199 14.8712 157.84V64.1603C14.8712 58.8013 17.7302 53.8494 22.3712 51.1699L103.5 4.33013Z" fill="#A1B85E"/>
<path d="M67.5 167.5C64.0625 167.5 61.1208 166.277 58.675 163.831C56.2292 161.385 55.0042 158.442 55 155V67.5C55 64.0625 56.225 61.1208 58.675 58.675C61.125 56.2292 64.0667 55.0042 67.5 55H123.75V67.5H67.5V155H155V98.75H167.5V155C167.5 158.438 166.277 161.381 163.831 163.831C161.385 166.281 158.442 167.504 155 167.5H67.5ZM142.5 92.5V80H130V67.5H142.5V55H155V67.5H167.5V80H155V92.5H142.5ZM73.75 142.5H148.75L125.312 111.25L106.562 136.25L92.5 117.5L73.75 142.5Z" fill="black"/>
</svg>
