<svg width="159" height="159" viewBox="0 0 159 159" fill="none" xmlns="http://www.w3.org/2000/svg">
<path d="M72 4.33013C76.641 1.65064 82.359 1.65063 87 4.33013L140.849 35.4199C145.49 38.0994 148.349 43.0513 148.349 48.4103V110.59C148.349 115.949 145.49 120.901 140.849 123.58L87 154.67C82.359 157.349 76.641 157.349 72 154.67L18.151 123.58C13.51 120.901 10.651 115.949 10.651 110.59V48.4103C10.651 43.0513 13.51 38.0994 18.151 35.4199L72 4.33013Z" fill="url(#paint0_linear_228_20)" fill-opacity="0.72"/>
<g clip-path="url(#clip0_228_20)">
<path d="M73.2885 26.444C64.5856 26.444 57.602 32.3412 57.602 43.612C57.602 50.9722 60.5731 58.4689 65.0847 63.0882C66.8443 67.7075 63.6712 69.4266 63.0135 69.6714C53.9068 72.9672 43.2683 78.9442 43.2683 84.8812V87.1012C43.2683 95.1928 58.8856 97.0628 73.375 97.0628C76.5331 97.0576 79.69 96.9398 82.8395 96.7098C78.8958 92.6028 76.7023 87.1576 76.7125 81.5C76.7125 76.4025 78.4722 71.732 81.3972 67.9808C80.9645 66.9789 80.7914 65.3993 81.5789 63C86.0645 58.375 88.9722 50.9437 88.9722 43.6092C88.9722 32.3412 81.9798 26.4468 73.2856 26.4468L73.2885 26.444ZM99.25 63.5322C94.4207 63.5322 89.7891 65.4251 86.3742 68.7944C82.9594 72.1638 81.0409 76.7336 81.0409 81.4986C81.0409 86.2635 82.9594 90.8334 86.3742 94.2027C89.7891 97.572 94.4207 99.4649 99.25 99.4649C104.079 99.4649 108.711 97.572 112.126 94.2027C115.541 90.8334 117.459 86.2635 117.459 81.4986C117.459 76.7336 115.541 72.1638 112.126 68.7944C108.711 65.4251 104.079 63.5322 99.25 63.5322ZM96.726 71.5385H101.774V78.9214H109.257V84.0786H101.774V91.4615H96.726V84.0786H89.1539V78.9214H96.726V71.5385Z" fill="#1B1919"/>
</g>
<path d="M39.7385 105.44C39.9918 105.467 40.1985 105.527 40.3585 105.62C40.4385 107.327 40.4652 109.053 40.4385 110.8C40.4118 112.533 40.3052 114.26 40.1185 115.98C40.0118 116.86 39.6785 117.607 39.1185 118.22C38.5585 118.833 37.7985 119.187 36.8385 119.28C36.2785 119.333 35.6985 119.307 35.0985 119.2C34.4985 119.107 33.9518 118.933 33.4585 118.68C32.9785 118.413 32.5718 118.067 32.2385 117.64C31.9185 117.2 31.7452 116.673 31.7185 116.06C31.7185 114.3 31.7385 112.527 31.7785 110.74C31.8185 108.953 31.8252 107.18 31.7985 105.42L31.7785 105.4H31.7985C31.9985 105.4 32.2185 105.393 32.4585 105.38C32.7118 105.367 32.9652 105.36 33.2185 105.36C33.4718 105.36 33.7185 105.373 33.9585 105.4C34.1985 105.413 34.4185 105.447 34.6185 105.5V105.52C34.4718 108.747 34.5318 112.02 34.7985 115.34C34.8918 115.66 35.0585 115.893 35.2985 116.04C35.5518 116.187 35.8118 116.253 36.0785 116.24C36.3452 116.227 36.5918 116.133 36.8185 115.96C37.0452 115.787 37.1918 115.547 37.2585 115.24C37.3252 113.64 37.3585 112.013 37.3585 110.36C37.3718 108.707 37.3985 107.107 37.4385 105.56C37.6118 105.547 37.8318 105.527 38.0985 105.5C38.3785 105.46 38.6585 105.433 38.9385 105.42C39.2185 105.407 39.4852 105.413 39.7385 105.44ZM44.4362 122.22C44.4362 122.367 44.4295 122.573 44.4162 122.84V123.06C44.4162 123.073 44.3228 123.087 44.1362 123.1C43.9628 123.127 43.7428 123.14 43.4762 123.14C43.2228 123.153 42.9495 123.153 42.6562 123.14C42.3628 123.14 42.1095 123.12 41.8962 123.08V121.76C41.8962 120.653 41.8828 119.547 41.8562 118.44C41.8295 117.333 41.8028 116.247 41.7762 115.18C41.7628 114.1 41.7495 113.047 41.7362 112.02C41.7362 110.98 41.7495 109.98 41.7762 109.02C42.1895 109.02 42.6428 109.013 43.1362 109C43.6295 108.973 44.0762 108.987 44.4762 109.04C44.4895 109.067 44.4962 109.113 44.4962 109.18C44.4962 109.313 44.4962 109.42 44.4962 109.5C44.5095 109.58 44.5162 109.693 44.5162 109.84C44.5428 109.907 44.5695 109.96 44.5962 110C44.6362 110.027 44.6762 110 44.7162 109.92C44.9162 109.52 45.1828 109.267 45.5162 109.16C45.8495 109.04 46.2028 109.007 46.5762 109.06C47.3362 109.113 47.9362 109.313 48.3762 109.66C48.8162 109.993 49.1428 110.427 49.3562 110.96C49.5828 111.48 49.7295 112.067 49.7962 112.72C49.8628 113.373 49.9095 114.033 49.9362 114.7C49.9362 115.167 49.9028 115.62 49.8362 116.06C49.7828 116.5 49.6895 116.907 49.5562 117.28C49.4362 117.64 49.2695 117.953 49.0562 118.22C48.8562 118.473 48.6095 118.653 48.3162 118.76C47.9562 118.893 47.5562 118.973 47.1162 119C46.6895 119.04 46.2828 119.04 45.8962 119C45.5095 118.973 45.1828 118.913 44.9162 118.82C44.6495 118.727 44.5028 118.62 44.4762 118.5C44.4895 119.127 44.4962 119.633 44.4962 120.02C44.4962 120.407 44.4962 120.713 44.4962 120.94C44.4962 121.18 44.4895 121.36 44.4762 121.48C44.4762 121.613 44.4695 121.733 44.4562 121.84C44.4562 121.96 44.4495 122.087 44.4362 122.22ZM46.9162 116.36C47.2495 116.12 47.4495 115.767 47.5162 115.3C47.5828 115.113 47.6228 114.92 47.6362 114.72C47.6495 114.52 47.6562 114.327 47.6562 114.14C47.6562 113.807 47.6162 113.487 47.5362 113.18C47.4562 112.86 47.3362 112.58 47.1762 112.34C47.0162 112.087 46.8228 111.887 46.5962 111.74C46.3695 111.593 46.1162 111.52 45.8362 111.52C45.4895 111.52 45.2228 111.593 45.0362 111.74C44.8495 111.887 44.7028 112.087 44.5962 112.34C44.5028 112.593 44.4428 112.9 44.4162 113.26C44.4028 113.62 44.3962 114.007 44.3962 114.42C44.3962 114.94 44.4028 115.353 44.4162 115.66C44.4428 115.953 44.4962 116.18 44.5762 116.34C44.6562 116.5 44.7762 116.607 44.9362 116.66C45.1095 116.7 45.3362 116.72 45.6162 116.72C46.1628 116.72 46.5962 116.6 46.9162 116.36ZM50.9535 108.1C50.9535 106.887 51.0135 105.673 51.1335 104.46L53.8535 104.52C53.8535 105.067 53.8468 105.727 53.8335 106.5C53.8202 107.273 53.8068 108.1 53.7935 108.98C53.7802 109.86 53.7668 110.773 53.7535 111.72C53.7535 112.667 53.7535 113.58 53.7535 114.46C53.7535 115.34 53.7602 116.167 53.7735 116.94C53.7868 117.7 53.8068 118.347 53.8335 118.88C53.7668 118.96 53.6002 119 53.3335 119C53.0668 119.013 52.7735 119.013 52.4535 119C52.1468 119 51.8535 118.993 51.5735 118.98C51.2935 118.967 51.1068 118.973 51.0135 119C51.1068 117.8 51.1402 116.593 51.1135 115.38C51.1002 114.167 51.0735 112.953 51.0335 111.74C50.9935 110.527 50.9668 109.313 50.9535 108.1ZM55.1946 110.48C55.2746 110.227 55.3346 110.027 55.3746 109.88C55.4679 109.68 55.6146 109.507 55.8146 109.36C56.0279 109.213 56.2679 109.093 56.5346 109C56.8146 108.893 57.1079 108.82 57.4146 108.78C57.7346 108.74 58.0546 108.72 58.3746 108.72C58.6413 108.747 58.8946 108.753 59.1346 108.74C59.3879 108.713 59.6546 108.713 59.9346 108.74C60.3613 108.767 60.7679 108.853 61.1546 109C61.5413 109.133 61.8746 109.333 62.1546 109.6C62.3413 109.72 62.4879 109.913 62.5946 110.18C62.7013 110.447 62.7813 110.76 62.8346 111.12C62.8879 111.467 62.9213 111.853 62.9346 112.28C62.9479 112.693 62.9613 113.12 62.9746 113.56C62.9613 113.947 62.9413 114.387 62.9146 114.88C62.9013 115.373 62.8679 115.847 62.8146 116.3C62.7746 116.753 62.7146 117.16 62.6346 117.52C62.5679 117.88 62.4679 118.127 62.3346 118.26C62.1079 118.58 61.8079 118.807 61.4346 118.94C61.0746 119.073 60.6813 119.153 60.2546 119.18C59.8279 119.22 59.3879 119.22 58.9346 119.18C58.4813 119.153 58.0679 119.14 57.6946 119.14C57.0146 119.02 56.4413 118.727 55.9746 118.26C55.6146 117.94 55.3679 117.54 55.2346 117.06C55.1013 116.58 55.0213 116.08 54.9946 115.56C54.9679 115.027 54.9613 114.493 54.9746 113.96C55.0013 113.427 54.9946 112.94 54.9546 112.5C54.9546 112.26 54.9613 112.027 54.9746 111.8C54.9879 111.56 55.0146 111.313 55.0546 111.06C55.0679 110.913 55.1146 110.72 55.1946 110.48ZM58.5546 111.8C58.2746 111.88 58.0479 112.027 57.8746 112.24C57.7946 112.293 57.7346 112.427 57.6946 112.64C57.6413 113.067 57.6146 113.493 57.6146 113.92C57.6146 114.333 57.6013 114.773 57.5746 115.24C57.5613 115.547 57.6413 115.787 57.8146 115.96C57.9879 116.12 58.1946 116.233 58.4346 116.3C58.6879 116.353 58.9479 116.367 59.2146 116.34C59.4813 116.3 59.7013 116.233 59.8746 116.14C60.1013 116.033 60.2546 115.813 60.3346 115.48C60.3879 115.053 60.4279 114.627 60.4546 114.2C60.4946 113.76 60.4746 113.347 60.3946 112.96C60.3279 112.493 60.1346 112.153 59.8146 111.94C59.4946 111.727 59.0746 111.68 58.5546 111.8ZM71.0795 108.98C71.4128 108.993 71.7928 109.013 72.2195 109.04C72.2328 109.12 72.2395 109.2 72.2395 109.28C72.2528 109.36 72.2595 109.44 72.2595 109.52V109.72C72.2195 111.16 72.2261 112.58 72.2795 113.98C72.3328 115.367 72.3128 116.773 72.2195 118.2C72.2195 118.373 72.2128 118.547 72.1995 118.72C72.1995 118.893 72.1195 118.993 71.9595 119.02H71.7195C71.5061 119.02 71.2861 119.013 71.0595 119C70.8461 118.973 70.6328 118.96 70.4195 118.96C70.2728 118.96 70.1261 118.973 69.9795 119C69.8461 119.013 69.7061 119.02 69.5595 119.02C69.4661 118.993 69.3995 118.94 69.3595 118.86C69.3328 118.78 69.3195 118.687 69.3195 118.58C69.3195 118.433 69.3328 118.313 69.3595 118.22C69.3861 118.127 69.3995 118.013 69.3995 117.88C69.0795 118.2 68.6728 118.473 68.1795 118.7C67.6995 118.927 67.2261 119.04 66.7595 119.04C66.2395 119.04 65.7928 118.86 65.4195 118.5C65.0595 118.14 64.7595 117.693 64.5195 117.16C64.2795 116.627 64.0995 116.047 63.9795 115.42C63.8728 114.793 63.8195 114.213 63.8195 113.68C63.8195 113.013 63.9061 112.4 64.0795 111.84C64.2528 111.28 64.4861 110.8 64.7795 110.4C65.0861 109.987 65.4461 109.667 65.8595 109.44C66.2728 109.2 66.7128 109.073 67.1795 109.06C67.4195 109.06 67.6395 109.067 67.8395 109.08C68.0528 109.08 68.2461 109.113 68.4195 109.18C68.5928 109.233 68.7461 109.327 68.8795 109.46C69.0128 109.58 69.1261 109.753 69.2195 109.98C69.2061 109.767 69.2128 109.587 69.2395 109.44C69.2795 109.28 69.2995 109.12 69.2995 108.96C69.2995 108.947 69.3395 108.94 69.4195 108.94C69.5128 108.927 69.6128 108.927 69.7195 108.94C69.8261 108.94 69.9328 108.94 70.0395 108.94C70.1461 108.94 70.2195 108.94 70.2595 108.94C70.4861 108.953 70.7595 108.967 71.0795 108.98ZM66.9595 112.14C66.6528 112.393 66.4661 112.687 66.3995 113.02C66.3461 113.193 66.3128 113.373 66.2995 113.56C66.2861 113.733 66.2795 113.907 66.2795 114.08C66.2795 114.68 66.4328 115.193 66.7395 115.62C67.0595 116.033 67.4995 116.24 68.0595 116.24C68.3928 116.24 68.6395 116.187 68.7995 116.08C68.9728 115.96 69.0928 115.8 69.1595 115.6C69.2395 115.387 69.2795 115.133 69.2795 114.84C69.2928 114.533 69.2995 114.193 69.2995 113.82C69.2995 113.353 69.2928 112.987 69.2795 112.72C69.2795 112.44 69.2461 112.227 69.1795 112.08C69.1261 111.933 69.0261 111.84 68.8795 111.8C68.7461 111.76 68.5395 111.74 68.2595 111.74C67.7128 111.74 67.2795 111.873 66.9595 112.14ZM78.8512 105.78C78.8645 105.633 78.8778 105.427 78.8912 105.16V104.94C78.8912 104.927 78.9778 104.913 79.1512 104.9C79.3378 104.873 79.5578 104.86 79.8112 104.86C80.0778 104.847 80.3578 104.847 80.6512 104.86C80.9445 104.86 81.1978 104.88 81.4112 104.92V106.24C81.4112 108.467 81.4445 110.667 81.5112 112.84C81.5778 115.013 81.5845 117.06 81.5312 118.98C81.1178 118.98 80.6645 118.987 80.1712 119C79.6778 119.027 79.2312 119.013 78.8312 118.96C78.8178 118.933 78.8112 118.887 78.8112 118.82C78.8112 118.687 78.8045 118.58 78.7912 118.5C78.7912 118.42 78.7912 118.307 78.7912 118.16C78.7645 118.093 78.7312 118.047 78.6912 118.02C78.6645 117.98 78.6312 118 78.5912 118.08C78.3912 118.48 78.1245 118.74 77.7912 118.86C77.4578 118.967 77.1045 118.993 76.7312 118.94C75.9712 118.887 75.3712 118.693 74.9312 118.36C74.4912 118.013 74.1578 117.58 73.9312 117.06C73.7178 116.527 73.5712 115.933 73.4912 115.28C73.4245 114.627 73.3845 113.967 73.3712 113.3C73.3712 112.833 73.3978 112.38 73.4512 111.94C73.5178 111.5 73.6112 111.1 73.7312 110.74C73.8645 110.367 74.0312 110.053 74.2312 109.8C74.4445 109.533 74.6978 109.347 74.9912 109.24C75.3512 109.107 75.7445 109.027 76.1712 109C76.6112 108.96 77.0245 108.96 77.4112 109C77.7978 109.027 78.1245 109.087 78.3912 109.18C78.6578 109.273 78.8045 109.38 78.8312 109.5C78.8178 108.873 78.8112 108.367 78.8112 107.98C78.8112 107.593 78.8112 107.287 78.8112 107.06C78.8112 106.82 78.8112 106.64 78.8112 106.52C78.8245 106.387 78.8312 106.267 78.8312 106.16C78.8445 106.04 78.8512 105.913 78.8512 105.78ZM76.3712 111.64C76.0512 111.88 75.8578 112.233 75.7912 112.7C75.7245 112.887 75.6845 113.08 75.6712 113.28C75.6578 113.48 75.6512 113.673 75.6512 113.86C75.6512 114.193 75.6912 114.52 75.7712 114.84C75.8512 115.147 75.9712 115.427 76.1312 115.68C76.2912 115.92 76.4845 116.113 76.7112 116.26C76.9378 116.407 77.1912 116.48 77.4712 116.48C77.8045 116.48 78.0645 116.407 78.2512 116.26C78.4512 116.113 78.5978 115.913 78.6912 115.66C78.7978 115.407 78.8578 115.107 78.8712 114.76C78.8978 114.4 78.9112 114.007 78.9112 113.58C78.9112 113.06 78.8978 112.653 78.8712 112.36C78.8578 112.053 78.8112 111.82 78.7312 111.66C78.6512 111.5 78.5245 111.4 78.3512 111.36C78.1912 111.307 77.9712 111.28 77.6912 111.28C77.1445 111.28 76.7045 111.4 76.3712 111.64ZM89.5729 122.22C89.5729 122.367 89.5662 122.573 89.5529 122.84V123.06C89.5529 123.073 89.4596 123.087 89.2729 123.1C89.0996 123.127 88.8796 123.14 88.6129 123.14C88.3596 123.153 88.0862 123.153 87.7929 123.14C87.4996 123.14 87.2462 123.12 87.0329 123.08V121.76C87.0329 120.653 87.0196 119.547 86.9929 118.44C86.9662 117.333 86.9396 116.247 86.9129 115.18C86.8996 114.1 86.8862 113.047 86.8729 112.02C86.8729 110.98 86.8862 109.98 86.9129 109.02C87.3262 109.02 87.7796 109.013 88.2729 109C88.7662 108.973 89.2129 108.987 89.6129 109.04C89.6262 109.067 89.6329 109.113 89.6329 109.18C89.6329 109.313 89.6329 109.42 89.6329 109.5C89.6462 109.58 89.6529 109.693 89.6529 109.84C89.6796 109.907 89.7062 109.96 89.7329 110C89.7729 110.027 89.8129 110 89.8529 109.92C90.0529 109.52 90.3196 109.267 90.6529 109.16C90.9862 109.04 91.3396 109.007 91.7129 109.06C92.4729 109.113 93.0729 109.313 93.5129 109.66C93.9529 109.993 94.2796 110.427 94.4929 110.96C94.7196 111.48 94.8662 112.067 94.9329 112.72C94.9996 113.373 95.0462 114.033 95.0729 114.7C95.0729 115.167 95.0396 115.62 94.9729 116.06C94.9196 116.5 94.8262 116.907 94.6929 117.28C94.5729 117.64 94.4062 117.953 94.1929 118.22C93.9929 118.473 93.7462 118.653 93.4529 118.76C93.0929 118.893 92.6929 118.973 92.2529 119C91.8262 119.04 91.4196 119.04 91.0329 119C90.6462 118.973 90.3196 118.913 90.0529 118.82C89.7862 118.727 89.6396 118.62 89.6129 118.5C89.6262 119.127 89.6329 119.633 89.6329 120.02C89.6329 120.407 89.6329 120.713 89.6329 120.94C89.6329 121.18 89.6262 121.36 89.6129 121.48C89.6129 121.613 89.6062 121.733 89.5929 121.84C89.5929 121.96 89.5862 122.087 89.5729 122.22ZM92.0529 116.36C92.3862 116.12 92.5862 115.767 92.6529 115.3C92.7196 115.113 92.7596 114.92 92.7729 114.72C92.7862 114.52 92.7929 114.327 92.7929 114.14C92.7929 113.807 92.7529 113.487 92.6729 113.18C92.5929 112.86 92.4729 112.58 92.3129 112.34C92.1529 112.087 91.9596 111.887 91.7329 111.74C91.5062 111.593 91.2529 111.52 90.9729 111.52C90.6262 111.52 90.3596 111.593 90.1729 111.74C89.9862 111.887 89.8396 112.087 89.7329 112.34C89.6396 112.593 89.5796 112.9 89.5529 113.26C89.5396 113.62 89.5329 114.007 89.5329 114.42C89.5329 114.94 89.5396 115.353 89.5529 115.66C89.5796 115.953 89.6329 116.18 89.7129 116.34C89.7929 116.5 89.9129 116.607 90.0729 116.66C90.2462 116.7 90.4729 116.72 90.7529 116.72C91.2996 116.72 91.7329 116.6 92.0529 116.36ZM98.8302 109.58C98.8302 109.86 98.8302 110.027 98.8302 110.08C98.8969 110.04 98.9769 109.993 99.0702 109.94C99.1769 109.887 99.2636 109.833 99.3302 109.78C99.6102 109.58 99.9236 109.42 100.27 109.3C100.617 109.18 100.97 109.113 101.33 109.1C101.704 109.087 102.064 109.127 102.41 109.22C102.757 109.313 103.07 109.48 103.35 109.72C103.484 109.84 103.584 110.093 103.65 110.48C103.73 110.853 103.777 111.307 103.79 111.84C103.817 112.373 103.824 112.96 103.81 113.6C103.81 114.227 103.804 114.867 103.79 115.52C103.777 116.16 103.764 116.78 103.75 117.38C103.737 117.98 103.744 118.507 103.77 118.96C103.304 119.027 102.884 119.053 102.51 119.04C102.15 119.04 101.737 119.04 101.27 119.04C101.244 118.733 101.23 118.387 101.23 118C101.23 117.613 101.23 117.213 101.23 116.8C101.244 116.387 101.244 115.973 101.23 115.56C101.23 115.147 101.217 114.76 101.19 114.4C101.177 114.24 101.164 114.067 101.15 113.88C101.137 113.68 101.11 113.487 101.07 113.3C101.044 113.113 100.997 112.947 100.93 112.8C100.877 112.653 100.797 112.54 100.69 112.46C100.677 112.447 100.664 112.44 100.65 112.44C100.637 112.44 100.624 112.433 100.61 112.42C100.504 112.367 100.344 112.327 100.13 112.3C99.9302 112.26 99.7302 112.273 99.5302 112.34C99.3302 112.393 99.1502 112.513 98.9902 112.7C98.8302 112.873 98.7369 113.14 98.7102 113.5C98.6836 113.967 98.6769 114.427 98.6902 114.88C98.7036 115.32 98.7169 115.767 98.7302 116.22C98.7569 116.66 98.7702 117.1 98.7702 117.54C98.7702 117.98 98.7436 118.42 98.6902 118.86V118.94C98.4636 119.007 98.2636 119.047 98.0902 119.06C97.9302 119.073 97.7636 119.073 97.5902 119.06C97.4169 119.06 97.2236 119.053 97.0102 119.04C96.7969 119.027 96.5302 119.033 96.2102 119.06C96.2102 118.513 96.2036 117.86 96.1902 117.1C96.1902 116.327 96.1836 115.5 96.1702 114.62C96.1702 113.74 96.1702 112.833 96.1702 111.9C96.1702 110.953 96.1702 110.033 96.1702 109.14C96.1702 108.247 96.1702 107.407 96.1702 106.62C96.1836 105.82 96.1969 105.127 96.2102 104.54C96.3702 104.553 96.5036 104.567 96.6102 104.58C96.7169 104.58 96.8169 104.58 96.9102 104.58C97.0036 104.58 97.1036 104.58 97.2102 104.58C97.3169 104.567 97.4502 104.553 97.6102 104.54C97.6636 104.54 97.7569 104.533 97.8902 104.52C98.0236 104.493 98.1569 104.473 98.2902 104.46C98.4236 104.447 98.5436 104.447 98.6502 104.46C98.7569 104.46 98.8102 104.48 98.8102 104.52C98.8236 104.587 98.8302 104.767 98.8302 105.06C98.8302 105.34 98.8302 105.68 98.8302 106.08C98.8302 106.467 98.8302 106.887 98.8302 107.34C98.8302 107.78 98.8302 108.193 98.8302 108.58C98.8302 108.967 98.8302 109.3 98.8302 109.58ZM105.175 110.48C105.255 110.227 105.315 110.027 105.355 109.88C105.448 109.68 105.595 109.507 105.795 109.36C106.008 109.213 106.248 109.093 106.515 109C106.795 108.893 107.088 108.82 107.395 108.78C107.715 108.74 108.035 108.72 108.355 108.72C108.622 108.747 108.875 108.753 109.115 108.74C109.368 108.713 109.635 108.713 109.915 108.74C110.342 108.767 110.748 108.853 111.135 109C111.522 109.133 111.855 109.333 112.135 109.6C112.322 109.72 112.468 109.913 112.575 110.18C112.682 110.447 112.762 110.76 112.815 111.12C112.868 111.467 112.902 111.853 112.915 112.28C112.928 112.693 112.942 113.12 112.955 113.56C112.942 113.947 112.922 114.387 112.895 114.88C112.882 115.373 112.848 115.847 112.795 116.3C112.755 116.753 112.695 117.16 112.615 117.52C112.548 117.88 112.448 118.127 112.315 118.26C112.088 118.58 111.788 118.807 111.415 118.94C111.055 119.073 110.662 119.153 110.235 119.18C109.808 119.22 109.368 119.22 108.915 119.18C108.462 119.153 108.048 119.14 107.675 119.14C106.995 119.02 106.422 118.727 105.955 118.26C105.595 117.94 105.348 117.54 105.215 117.06C105.082 116.58 105.002 116.08 104.975 115.56C104.948 115.027 104.942 114.493 104.955 113.96C104.982 113.427 104.975 112.94 104.935 112.5C104.935 112.26 104.942 112.027 104.955 111.8C104.968 111.56 104.995 111.313 105.035 111.06C105.048 110.913 105.095 110.72 105.175 110.48ZM108.535 111.8C108.255 111.88 108.028 112.027 107.855 112.24C107.775 112.293 107.715 112.427 107.675 112.64C107.622 113.067 107.595 113.493 107.595 113.92C107.595 114.333 107.582 114.773 107.555 115.24C107.542 115.547 107.622 115.787 107.795 115.96C107.968 116.12 108.175 116.233 108.415 116.3C108.668 116.353 108.928 116.367 109.195 116.34C109.462 116.3 109.682 116.233 109.855 116.14C110.082 116.033 110.235 115.813 110.315 115.48C110.368 115.053 110.408 114.627 110.435 114.2C110.475 113.76 110.455 113.347 110.375 112.96C110.308 112.493 110.115 112.153 109.795 111.94C109.475 111.727 109.055 111.68 108.535 111.8ZM116.942 105.34C117.169 105.353 117.396 105.347 117.622 105.32V108C117.622 108.173 117.622 108.353 117.622 108.54C117.636 108.727 117.642 108.92 117.642 109.12C118.056 109.107 118.489 109.087 118.942 109.06C119.409 109.033 119.982 109 120.662 108.96C120.756 109.067 120.809 109.227 120.822 109.44C120.836 109.64 120.836 109.86 120.822 110.1C120.809 110.34 120.789 110.587 120.762 110.84C120.749 111.08 120.756 111.287 120.782 111.46H117.682C117.682 112.18 117.682 112.887 117.682 113.58C117.682 114.26 117.689 114.9 117.702 115.5C117.836 115.687 118.029 115.833 118.282 115.94C118.536 116.047 118.809 116.133 119.102 116.2C119.396 116.253 119.689 116.287 119.982 116.3C120.289 116.313 120.556 116.313 120.782 116.3C120.809 116.487 120.836 116.693 120.862 116.92C120.889 117.147 120.909 117.38 120.922 117.62C120.936 117.86 120.929 118.1 120.902 118.34C120.889 118.58 120.849 118.8 120.782 119C120.249 119.027 119.696 119.027 119.122 119C118.549 118.96 118.009 118.88 117.502 118.76C116.996 118.64 116.542 118.46 116.142 118.22C115.756 117.98 115.476 117.653 115.302 117.24C115.129 116.213 115.029 115.247 115.002 114.34C114.976 113.42 114.969 112.473 114.982 111.5C114.769 111.513 114.542 111.52 114.302 111.52C114.076 111.52 113.822 111.52 113.542 111.52L113.602 109.08C113.869 109.093 114.116 109.1 114.342 109.1C114.582 109.1 114.809 109.1 115.022 109.1C115.022 108.807 115.016 108.493 115.002 108.16C114.989 107.813 114.982 107.467 114.982 107.12C114.982 106.773 114.982 106.44 114.982 106.12C114.996 105.8 115.016 105.513 115.042 105.26C115.216 105.233 115.402 105.227 115.602 105.24C115.816 105.253 116.036 105.273 116.262 105.3C116.489 105.313 116.716 105.327 116.942 105.34ZM121.777 110.48C121.857 110.227 121.917 110.027 121.957 109.88C122.05 109.68 122.197 109.507 122.397 109.36C122.61 109.213 122.85 109.093 123.117 109C123.397 108.893 123.69 108.82 123.997 108.78C124.317 108.74 124.637 108.72 124.957 108.72C125.223 108.747 125.477 108.753 125.717 108.74C125.97 108.713 126.237 108.713 126.517 108.74C126.943 108.767 127.35 108.853 127.737 109C128.123 109.133 128.457 109.333 128.737 109.6C128.923 109.72 129.07 109.913 129.177 110.18C129.283 110.447 129.363 110.76 129.417 111.12C129.47 111.467 129.503 111.853 129.517 112.28C129.53 112.693 129.543 113.12 129.557 113.56C129.543 113.947 129.523 114.387 129.497 114.88C129.483 115.373 129.45 115.847 129.397 116.3C129.357 116.753 129.297 117.16 129.217 117.52C129.15 117.88 129.05 118.127 128.917 118.26C128.69 118.58 128.39 118.807 128.017 118.94C127.657 119.073 127.263 119.153 126.837 119.18C126.41 119.22 125.97 119.22 125.517 119.18C125.063 119.153 124.65 119.14 124.277 119.14C123.597 119.02 123.023 118.727 122.557 118.26C122.197 117.94 121.95 117.54 121.817 117.06C121.683 116.58 121.603 116.08 121.577 115.56C121.55 115.027 121.543 114.493 121.557 113.96C121.583 113.427 121.577 112.94 121.537 112.5C121.537 112.26 121.543 112.027 121.557 111.8C121.57 111.56 121.597 111.313 121.637 111.06C121.65 110.913 121.697 110.72 121.777 110.48ZM125.137 111.8C124.857 111.88 124.63 112.027 124.457 112.24C124.377 112.293 124.317 112.427 124.277 112.64C124.223 113.067 124.197 113.493 124.197 113.92C124.197 114.333 124.183 114.773 124.157 115.24C124.143 115.547 124.223 115.787 124.397 115.96C124.57 116.12 124.777 116.233 125.017 116.3C125.27 116.353 125.53 116.367 125.797 116.34C126.063 116.3 126.283 116.233 126.457 116.14C126.683 116.033 126.837 115.813 126.917 115.48C126.97 115.053 127.01 114.627 127.037 114.2C127.077 113.76 127.057 113.347 126.977 112.96C126.91 112.493 126.717 112.153 126.397 111.94C126.077 111.727 125.657 111.68 125.137 111.8Z" fill="white"/>
<defs>
<linearGradient id="paint0_linear_228_20" x1="79.5" y1="0" x2="79.5" y2="159" gradientUnits="userSpaceOnUse">
<stop stop-color="#616F39"/>
<stop offset="0.345" stop-color="#BAD56D"/>
</linearGradient>
<clipPath id="clip0_228_20">
<rect width="75" height="74" fill="white" transform="translate(43 26)"/>
</clipPath>
</defs>
</svg>
