<svg width="22" height="22" viewBox="0 0 22 22" fill="none" xmlns="http://www.w3.org/2000/svg">
<path d="M19.6332 1.48616C17.9028 -0.245441 16.6032 0.0137594 16.6032 0.0137594L9.3408 7.27616L1.212 15.4038L0 21.1182L5.7156 19.9062L13.8444 11.781L21.1068 4.51856C21.1056 4.51856 21.366 3.21896 19.6332 1.48616ZM5.376 19.2198L3.4272 19.6398C3.21153 19.2259 2.93212 18.8485 2.5992 18.5214C2.27178 18.1885 1.89444 17.9087 1.4808 17.6922L1.9008 15.7446L2.4648 15.1818C2.4648 15.1818 3.5244 15.2034 4.722 16.401C5.9184 17.5962 5.9412 18.6582 5.9412 18.6582L5.376 19.2198Z" fill="#616F39"/>
</svg>
