<svg width="48" height="48" viewBox="0 0 48 48" fill="none" xmlns="http://www.w3.org/2000/svg">
<path d="M22.0612 9.43874C22.2007 9.57805 22.3113 9.74348 22.3868 9.92558C22.4623 10.1077 22.5011 10.3029 22.5011 10.5C22.5011 10.6971 22.4623 10.8923 22.3868 11.0744C22.3113 11.2565 22.2007 11.4219 22.0612 11.5612L11.1206 22.5L40.5 22.5C40.8978 22.5 41.2793 22.658 41.5606 22.9393C41.8419 23.2206 42 23.6022 42 24C42 24.3978 41.8419 24.7793 41.5606 25.0606C41.2793 25.342 40.8978 25.5 40.5 25.5H11.1206L22.0612 36.4387C22.3427 36.7202 22.5008 37.1019 22.5008 37.5C22.5008 37.898 22.3427 38.2798 22.0612 38.5612C21.7797 38.8427 21.398 39.0008 21 39.0008C20.6019 39.0008 20.2202 38.8427 19.9387 38.5612L6.43871 25.0612C6.29924 24.9219 6.18861 24.7565 6.11312 24.5744C6.03763 24.3923 5.99878 24.1971 5.99878 24C5.99878 23.8029 6.03763 23.6077 6.11312 23.4256C6.18861 23.2435 6.29924 23.078 6.43871 22.9387L19.9387 9.43874C20.078 9.29927 20.2435 9.18863 20.4255 9.11315C20.6076 9.03766 20.8028 8.99881 21 8.99881C21.1971 8.99881 21.3923 9.03766 21.5744 9.11315C21.7565 9.18863 21.9219 9.29927 22.0612 9.43874Z" fill="black"/>
</svg>
