<svg width="160" height="38" viewBox="0 0 160 38" fill="none" xmlns="http://www.w3.org/2000/svg">
<path d="M77.7713 26.24C76.7313 26.24 75.7793 25.952 74.9153 25.376C74.0673 24.8 73.3873 24.016 72.8753 23.024C72.3633 22.032 72.1073 20.912 72.1073 19.664C72.1073 18.4 72.3633 17.28 72.8753 16.304C73.4033 15.312 74.1073 14.536 74.9873 13.976C75.8833 13.416 76.8833 13.136 77.9873 13.136C78.6433 13.136 79.2433 13.232 79.7873 13.424C80.3313 13.616 80.8033 13.888 81.2033 14.24C81.6193 14.576 81.9553 14.968 82.2113 15.416C82.4833 15.864 82.6513 16.344 82.7153 16.856L82.1633 16.664V13.4H84.6593V26H82.1633V23L82.7393 22.832C82.6433 23.264 82.4433 23.688 82.1393 24.104C81.8513 24.504 81.4753 24.864 81.0113 25.184C80.5633 25.504 80.0593 25.76 79.4993 25.952C78.9553 26.144 78.3793 26.24 77.7713 26.24ZM78.4193 23.96C79.1713 23.96 79.8353 23.776 80.4113 23.408C80.9873 23.04 81.4353 22.536 81.7553 21.896C82.0913 21.24 82.2593 20.496 82.2593 19.664C82.2593 18.848 82.0913 18.12 81.7553 17.48C81.4353 16.84 80.9873 16.336 80.4113 15.968C79.8353 15.6 79.1713 15.416 78.4193 15.416C77.6833 15.416 77.0273 15.6 76.4513 15.968C75.8913 16.336 75.4433 16.84 75.1073 17.48C74.7873 18.12 74.6273 18.848 74.6273 19.664C74.6273 20.496 74.7873 21.24 75.1073 21.896C75.4433 22.536 75.8913 23.04 76.4513 23.408C77.0273 23.776 77.6833 23.96 78.4193 23.96ZM93.3668 26.24C92.2148 26.24 91.1828 25.96 90.2708 25.4C89.3748 24.824 88.6628 24.048 88.1348 23.072C87.6068 22.08 87.3428 20.952 87.3428 19.688C87.3428 18.424 87.5988 17.304 88.1108 16.328C88.6388 15.336 89.3508 14.56 90.2468 14C91.1428 13.424 92.1588 13.136 93.2948 13.136C93.9188 13.136 94.5188 13.24 95.0948 13.448C95.6868 13.64 96.2148 13.912 96.6788 14.264C97.1428 14.6 97.5028 14.976 97.7588 15.392C98.0308 15.792 98.1668 16.2 98.1668 16.616L97.4468 16.664V8.24H99.9188V26H97.4468V23H97.9268C97.9268 23.384 97.7988 23.768 97.5428 24.152C97.2868 24.52 96.9428 24.864 96.5108 25.184C96.0948 25.504 95.6068 25.76 95.0468 25.952C94.5028 26.144 93.9428 26.24 93.3668 26.24ZM93.7028 24.104C94.4548 24.104 95.1188 23.912 95.6948 23.528C96.2708 23.144 96.7188 22.624 97.0388 21.968C97.3748 21.296 97.5428 20.536 97.5428 19.688C97.5428 18.84 97.3748 18.088 97.0388 17.432C96.7188 16.76 96.2708 16.232 95.6948 15.848C95.1188 15.464 94.4548 15.272 93.7028 15.272C92.9508 15.272 92.2868 15.464 91.7108 15.848C91.1348 16.232 90.6788 16.76 90.3428 17.432C90.0228 18.088 89.8628 18.84 89.8628 19.688C89.8628 20.536 90.0228 21.296 90.3428 21.968C90.6788 22.624 91.1348 23.144 91.7108 23.528C92.2868 23.912 92.9508 24.104 93.7028 24.104ZM108.578 26.24C107.426 26.24 106.394 25.96 105.482 25.4C104.586 24.824 103.874 24.048 103.346 23.072C102.818 22.08 102.554 20.952 102.554 19.688C102.554 18.424 102.81 17.304 103.322 16.328C103.85 15.336 104.562 14.56 105.458 14C106.354 13.424 107.37 13.136 108.506 13.136C109.13 13.136 109.73 13.24 110.306 13.448C110.898 13.64 111.426 13.912 111.89 14.264C112.354 14.6 112.714 14.976 112.97 15.392C113.242 15.792 113.378 16.2 113.378 16.616L112.658 16.664V8.24H115.13V26H112.658V23H113.138C113.138 23.384 113.01 23.768 112.754 24.152C112.498 24.52 112.154 24.864 111.722 25.184C111.306 25.504 110.818 25.76 110.258 25.952C109.714 26.144 109.154 26.24 108.578 26.24ZM108.914 24.104C109.666 24.104 110.33 23.912 110.906 23.528C111.482 23.144 111.93 22.624 112.25 21.968C112.586 21.296 112.754 20.536 112.754 19.688C112.754 18.84 112.586 18.088 112.25 17.432C111.93 16.76 111.482 16.232 110.906 15.848C110.33 15.464 109.666 15.272 108.914 15.272C108.162 15.272 107.498 15.464 106.922 15.848C106.346 16.232 105.89 16.76 105.554 17.432C105.234 18.088 105.074 18.84 105.074 19.688C105.074 20.536 105.234 21.296 105.554 21.968C105.89 22.624 106.346 23.144 106.922 23.528C107.498 23.912 108.162 24.104 108.914 24.104Z" fill="#A7D129"/>
<path d="M20.9 17.1V9.5H17.1V17.1H9.5V20.9H17.1V28.5H20.9V20.9H28.5V17.1H20.9ZM19 38C13.9609 38 9.12816 35.9982 5.56497 32.435C2.00178 28.8718 0 24.0391 0 19C0 13.9609 2.00178 9.12816 5.56497 5.56497C9.12816 2.00178 13.9609 0 19 0C24.0391 0 28.8718 2.00178 32.435 5.56497C35.9982 9.12816 38 13.9609 38 19C38 24.0391 35.9982 28.8718 32.435 32.435C28.8718 35.9982 24.0391 38 19 38Z" fill="#A7D129"/>
</svg>
