<svg width="143" height="38" viewBox="0 0 143 38" fill="none" xmlns="http://www.w3.org/2000/svg">
<circle cx="19" cy="19" r="19" fill="#A7D129"/>
<path d="M62.026 26.24C60.73 26.24 59.578 25.968 58.57 25.424C57.578 24.864 56.794 24.104 56.218 23.144C55.658 22.184 55.378 21.08 55.378 19.832C55.378 18.84 55.538 17.936 55.858 17.12C56.178 16.304 56.618 15.6 57.178 15.008C57.754 14.4 58.434 13.936 59.218 13.616C60.018 13.28 60.882 13.112 61.81 13.112C62.626 13.112 63.386 13.272 64.09 13.592C64.794 13.896 65.402 14.32 65.914 14.864C66.442 15.408 66.842 16.056 67.114 16.808C67.402 17.544 67.538 18.352 67.522 19.232L67.498 20.288H57.202L56.65 18.32H65.362L65.002 18.728V18.152C64.954 17.624 64.778 17.152 64.474 16.736C64.17 16.32 63.786 15.992 63.322 15.752C62.858 15.512 62.354 15.392 61.81 15.392C60.946 15.392 60.218 15.56 59.626 15.896C59.034 16.216 58.586 16.696 58.282 17.336C57.978 17.96 57.826 18.736 57.826 19.664C57.826 20.544 58.01 21.312 58.378 21.968C58.746 22.608 59.266 23.104 59.938 23.456C60.61 23.808 61.386 23.984 62.266 23.984C62.89 23.984 63.466 23.88 63.994 23.672C64.538 23.464 65.122 23.088 65.746 22.544L66.994 24.296C66.61 24.68 66.138 25.016 65.578 25.304C65.034 25.592 64.45 25.824 63.826 26C63.218 26.16 62.618 26.24 62.026 26.24ZM75.4645 26.24C74.3125 26.24 73.2805 25.96 72.3685 25.4C71.4725 24.824 70.7605 24.048 70.2325 23.072C69.7045 22.08 69.4405 20.952 69.4405 19.688C69.4405 18.424 69.6965 17.304 70.2085 16.328C70.7365 15.336 71.4485 14.56 72.3445 14C73.2405 13.424 74.2565 13.136 75.3925 13.136C76.0165 13.136 76.6165 13.24 77.1925 13.448C77.7845 13.64 78.3125 13.912 78.7765 14.264C79.2405 14.6 79.6005 14.976 79.8565 15.392C80.1285 15.792 80.2645 16.2 80.2645 16.616L79.5445 16.664V8.24H82.0165V26H79.5445V23H80.0245C80.0245 23.384 79.8965 23.768 79.6405 24.152C79.3845 24.52 79.0405 24.864 78.6085 25.184C78.1925 25.504 77.7045 25.76 77.1445 25.952C76.6005 26.144 76.0405 26.24 75.4645 26.24ZM75.8005 24.104C76.5525 24.104 77.2165 23.912 77.7925 23.528C78.3685 23.144 78.8165 22.624 79.1365 21.968C79.4725 21.296 79.6405 20.536 79.6405 19.688C79.6405 18.84 79.4725 18.088 79.1365 17.432C78.8165 16.76 78.3685 16.232 77.7925 15.848C77.2165 15.464 76.5525 15.272 75.8005 15.272C75.0485 15.272 74.3845 15.464 73.8085 15.848C73.2325 16.232 72.7765 16.76 72.4405 17.432C72.1205 18.088 71.9605 18.84 71.9605 19.688C71.9605 20.536 72.1205 21.296 72.4405 21.968C72.7765 22.624 73.2325 23.144 73.8085 23.528C74.3845 23.912 75.0485 24.104 75.8005 24.104ZM85.8274 26V13.4H88.2994V26H85.8274ZM87.0274 10.616C86.4994 10.616 86.0914 10.48 85.8034 10.208C85.5154 9.936 85.3714 9.552 85.3714 9.056C85.3714 8.592 85.5154 8.216 85.8034 7.928C86.1074 7.64 86.5154 7.496 87.0274 7.496C87.5554 7.496 87.9634 7.632 88.2514 7.904C88.5394 8.176 88.6834 8.56 88.6834 9.056C88.6834 9.52 88.5314 9.896 88.2274 10.184C87.9394 10.472 87.5394 10.616 87.0274 10.616ZM93.6591 26V10.184H96.1311V26H93.6591ZM91.0431 15.8V13.4H99.0591V15.8H91.0431Z" fill="#A7D129"/>
<path d="M27.6332 8.48616C25.9028 6.75456 24.6032 7.01376 24.6032 7.01376L17.3408 14.2762L9.212 22.4038L8 28.1182L13.7156 26.9062L21.8444 18.781L29.1068 11.5186C29.1056 11.5186 29.366 10.219 27.6332 8.48616ZM13.376 26.2198L11.4272 26.6398C11.2115 26.2259 10.9321 25.8485 10.5992 25.5214C10.2718 25.1885 9.89444 24.9087 9.4808 24.6922L9.9008 22.7446L10.4648 22.1818C10.4648 22.1818 11.5244 22.2034 12.722 23.401C13.9184 24.5962 13.9412 25.6582 13.9412 25.6582L13.376 26.2198Z" fill="black"/>
</svg>
