<svg width="168" height="38" viewBox="0 0 168 38" fill="none" xmlns="http://www.w3.org/2000/svg">
<path d="M58.8921 26V13.4H61.3881V17.36L61.1481 16.4C61.3241 15.792 61.6201 15.24 62.0361 14.744C62.4681 14.248 62.9561 13.856 63.5001 13.568C64.0601 13.28 64.6361 13.136 65.2281 13.136C65.5001 13.136 65.7561 13.16 65.9961 13.208C66.2521 13.256 66.4521 13.312 66.5961 13.376L65.9481 16.064C65.7561 15.984 65.5401 15.92 65.3001 15.872C65.0761 15.808 64.8521 15.776 64.6281 15.776C64.1961 15.776 63.7801 15.864 63.3801 16.04C62.9961 16.2 62.6521 16.432 62.3481 16.736C62.0601 17.024 61.8281 17.368 61.6521 17.768C61.4761 18.152 61.3881 18.576 61.3881 19.04V26H58.8921ZM73.9127 26.24C72.6167 26.24 71.4647 25.968 70.4567 25.424C69.4647 24.864 68.6807 24.104 68.1047 23.144C67.5447 22.184 67.2647 21.08 67.2647 19.832C67.2647 18.84 67.4247 17.936 67.7447 17.12C68.0647 16.304 68.5047 15.6 69.0647 15.008C69.6407 14.4 70.3207 13.936 71.1047 13.616C71.9047 13.28 72.7687 13.112 73.6967 13.112C74.5127 13.112 75.2727 13.272 75.9767 13.592C76.6807 13.896 77.2887 14.32 77.8007 14.864C78.3287 15.408 78.7287 16.056 79.0007 16.808C79.2887 17.544 79.4247 18.352 79.4087 19.232L79.3847 20.288H69.0887L68.5367 18.32H77.2487L76.8887 18.728V18.152C76.8407 17.624 76.6647 17.152 76.3607 16.736C76.0567 16.32 75.6727 15.992 75.2087 15.752C74.7447 15.512 74.2407 15.392 73.6967 15.392C72.8327 15.392 72.1047 15.56 71.5127 15.896C70.9207 16.216 70.4727 16.696 70.1687 17.336C69.8647 17.96 69.7127 18.736 69.7127 19.664C69.7127 20.544 69.8967 21.312 70.2647 21.968C70.6327 22.608 71.1527 23.104 71.8247 23.456C72.4967 23.808 73.2727 23.984 74.1527 23.984C74.7767 23.984 75.3527 23.88 75.8807 23.672C76.4247 23.464 77.0087 23.088 77.6327 22.544L78.8807 24.296C78.4967 24.68 78.0247 25.016 77.4647 25.304C76.9207 25.592 76.3367 25.824 75.7127 26C75.1047 26.16 74.5047 26.24 73.9127 26.24ZM87.618 31.52C86.722 31.52 85.826 31.376 84.93 31.088C84.05 30.816 83.338 30.456 82.794 30.008L83.706 28.088C84.026 28.328 84.402 28.536 84.834 28.712C85.266 28.904 85.722 29.048 86.202 29.144C86.682 29.256 87.154 29.312 87.618 29.312C88.498 29.312 89.234 29.168 89.826 28.88C90.418 28.592 90.866 28.168 91.17 27.608C91.474 27.048 91.626 26.352 91.626 25.52V23.096L91.89 23.264C91.81 23.76 91.546 24.24 91.098 24.704C90.666 25.152 90.122 25.52 89.466 25.808C88.81 26.096 88.138 26.24 87.45 26.24C86.25 26.24 85.178 25.96 84.234 25.4C83.306 24.824 82.57 24.048 82.026 23.072C81.482 22.08 81.21 20.952 81.21 19.688C81.21 18.424 81.474 17.304 82.002 16.328C82.546 15.336 83.282 14.56 84.21 14C85.154 13.424 86.21 13.136 87.378 13.136C87.858 13.136 88.322 13.2 88.77 13.328C89.218 13.44 89.634 13.608 90.018 13.832C90.402 14.04 90.746 14.272 91.05 14.528C91.354 14.784 91.602 15.056 91.794 15.344C91.986 15.632 92.106 15.904 92.154 16.16L91.626 16.352V13.4H94.098V25.232C94.098 26.24 93.946 27.128 93.642 27.896C93.354 28.68 92.93 29.336 92.37 29.864C91.81 30.408 91.13 30.816 90.33 31.088C89.53 31.376 88.626 31.52 87.618 31.52ZM87.714 23.96C88.498 23.96 89.194 23.776 89.802 23.408C90.41 23.04 90.882 22.536 91.218 21.896C91.554 21.256 91.722 20.52 91.722 19.688C91.722 18.856 91.546 18.12 91.194 17.48C90.858 16.824 90.386 16.312 89.778 15.944C89.186 15.576 88.498 15.392 87.714 15.392C86.946 15.392 86.258 15.584 85.65 15.968C85.058 16.336 84.586 16.848 84.234 17.504C83.898 18.144 83.73 18.872 83.73 19.688C83.73 20.504 83.898 21.24 84.234 21.896C84.586 22.536 85.058 23.04 85.65 23.408C86.258 23.776 86.946 23.96 87.714 23.96ZM97.9719 26V13.4H100.444V26H97.9719ZM99.1719 10.616C98.6439 10.616 98.2359 10.48 97.9479 10.208C97.6599 9.936 97.5159 9.552 97.5159 9.056C97.5159 8.592 97.6599 8.216 97.9479 7.928C98.2519 7.64 98.6599 7.496 99.1719 7.496C99.6999 7.496 100.108 7.632 100.396 7.904C100.684 8.176 100.828 8.56 100.828 9.056C100.828 9.52 100.676 9.896 100.372 10.184C100.084 10.472 99.6839 10.616 99.1719 10.616ZM108.444 26.24C107.388 26.24 106.436 26.056 105.588 25.688C104.74 25.32 104.036 24.776 103.476 24.056L105.156 22.616C105.636 23.176 106.156 23.584 106.716 23.84C107.292 24.08 107.94 24.2 108.66 24.2C108.948 24.2 109.212 24.168 109.452 24.104C109.708 24.024 109.924 23.912 110.1 23.768C110.292 23.624 110.436 23.456 110.532 23.264C110.628 23.056 110.676 22.832 110.676 22.592C110.676 22.176 110.524 21.84 110.22 21.584C110.06 21.472 109.804 21.352 109.452 21.224C109.116 21.08 108.676 20.936 108.132 20.792C107.204 20.552 106.444 20.28 105.852 19.976C105.26 19.672 104.804 19.328 104.484 18.944C104.244 18.64 104.068 18.312 103.956 17.96C103.844 17.592 103.788 17.192 103.788 16.76C103.788 16.232 103.9 15.752 104.124 15.32C104.364 14.872 104.684 14.488 105.084 14.168C105.5 13.832 105.98 13.576 106.524 13.4C107.084 13.224 107.676 13.136 108.3 13.136C108.892 13.136 109.476 13.216 110.052 13.376C110.644 13.536 111.188 13.768 111.684 14.072C112.18 14.376 112.596 14.736 112.932 15.152L111.516 16.712C111.212 16.408 110.876 16.144 110.508 15.92C110.156 15.68 109.796 15.496 109.428 15.368C109.06 15.24 108.724 15.176 108.42 15.176C108.084 15.176 107.78 15.208 107.508 15.272C107.236 15.336 107.004 15.432 106.812 15.56C106.636 15.688 106.5 15.848 106.404 16.04C106.308 16.232 106.26 16.448 106.26 16.688C106.276 16.896 106.324 17.096 106.404 17.288C106.5 17.464 106.628 17.616 106.788 17.744C106.964 17.872 107.228 18.008 107.58 18.152C107.932 18.296 108.38 18.432 108.924 18.56C109.724 18.768 110.38 19 110.892 19.256C111.42 19.496 111.836 19.776 112.14 20.096C112.46 20.4 112.684 20.752 112.812 21.152C112.94 21.552 113.004 22 113.004 22.496C113.004 23.216 112.796 23.864 112.38 24.44C111.98 25 111.436 25.44 110.748 25.76C110.06 26.08 109.292 26.24 108.444 26.24ZM117.288 26V10.184H119.76V26H117.288ZM114.672 15.8V13.4H122.688V15.8H114.672ZM130.702 26.24C129.406 26.24 128.254 25.968 127.246 25.424C126.254 24.864 125.47 24.104 124.894 23.144C124.334 22.184 124.054 21.08 124.054 19.832C124.054 18.84 124.214 17.936 124.534 17.12C124.854 16.304 125.294 15.6 125.854 15.008C126.43 14.4 127.11 13.936 127.894 13.616C128.694 13.28 129.558 13.112 130.486 13.112C131.302 13.112 132.062 13.272 132.766 13.592C133.47 13.896 134.078 14.32 134.59 14.864C135.118 15.408 135.518 16.056 135.79 16.808C136.078 17.544 136.214 18.352 136.198 19.232L136.174 20.288H125.878L125.326 18.32H134.038L133.678 18.728V18.152C133.63 17.624 133.454 17.152 133.15 16.736C132.846 16.32 132.462 15.992 131.998 15.752C131.534 15.512 131.03 15.392 130.486 15.392C129.622 15.392 128.894 15.56 128.302 15.896C127.71 16.216 127.262 16.696 126.958 17.336C126.654 17.96 126.502 18.736 126.502 19.664C126.502 20.544 126.686 21.312 127.054 21.968C127.422 22.608 127.942 23.104 128.614 23.456C129.286 23.808 130.062 23.984 130.942 23.984C131.566 23.984 132.142 23.88 132.67 23.672C133.214 23.464 133.798 23.088 134.422 22.544L135.67 24.296C135.286 24.68 134.814 25.016 134.254 25.304C133.71 25.592 133.126 25.824 132.502 26C131.894 26.16 131.294 26.24 130.702 26.24ZM138.884 26V13.4H141.38V17.36L141.14 16.4C141.316 15.792 141.612 15.24 142.028 14.744C142.46 14.248 142.948 13.856 143.492 13.568C144.052 13.28 144.628 13.136 145.22 13.136C145.492 13.136 145.748 13.16 145.988 13.208C146.244 13.256 146.444 13.312 146.588 13.376L145.94 16.064C145.748 15.984 145.532 15.92 145.292 15.872C145.068 15.808 144.844 15.776 144.62 15.776C144.188 15.776 143.772 15.864 143.372 16.04C142.988 16.2 142.644 16.432 142.34 16.736C142.052 17.024 141.82 17.368 141.644 17.768C141.468 18.152 141.38 18.576 141.38 19.04V26H138.884Z" fill="#A7D129"/>
<path d="M20.9 17.1V9.5H17.1V17.1H9.5V20.9H17.1V28.5H20.9V20.9H28.5V17.1H20.9ZM19 38C13.9609 38 9.12816 35.9982 5.56497 32.435C2.00178 28.8718 0 24.0391 0 19C0 13.9609 2.00178 9.12816 5.56497 5.56497C9.12816 2.00178 13.9609 0 19 0C24.0391 0 28.8718 2.00178 32.435 5.56497C35.9982 9.12816 38 13.9609 38 19C38 24.0391 35.9982 28.8718 32.435 32.435C28.8718 35.9982 24.0391 38 19 38Z" fill="#A7D129"/>
</svg>
