<svg width="56" height="49" viewBox="0 0 56 49" fill="none" xmlns="http://www.w3.org/2000/svg">
<path d="M17.5 0C16.5717 0 15.6815 0.368749 15.0251 1.02513C14.3687 1.6815 14 2.57174 14 3.5C14 4.42826 14.3687 5.3185 15.0251 5.97487C15.6815 6.63125 16.5717 7 17.5 7H38.5C39.4283 7 40.3185 6.63125 40.9749 5.97487C41.6312 5.3185 42 4.42826 42 3.5C42 2.57174 41.6312 1.6815 40.9749 1.02513C40.3185 0.368749 39.4283 0 38.5 0H17.5ZM7 14C7 13.0717 7.36875 12.1815 8.02513 11.5251C8.6815 10.8687 9.57174 10.5 10.5 10.5H45.5C46.4283 10.5 47.3185 10.8687 47.9749 11.5251C48.6312 12.1815 49 13.0717 49 14C49 14.9283 48.6312 15.8185 47.9749 16.4749C47.3185 17.1313 46.4283 17.5 45.5 17.5H10.5C9.57174 17.5 8.6815 17.1313 8.02513 16.4749C7.36875 15.8185 7 14.9283 7 14ZM0 28C0 26.1435 0.737498 24.363 2.05025 23.0503C3.36301 21.7375 5.14348 21 7 21H49C50.8565 21 52.637 21.7375 53.9497 23.0503C55.2625 24.363 56 26.1435 56 28V42C56 43.8565 55.2625 45.637 53.9497 46.9497C52.637 48.2625 50.8565 49 49 49H7C5.14348 49 3.36301 48.2625 2.05025 46.9497C0.737498 45.637 0 43.8565 0 42V28Z" fill="#A7D129"/>
</svg>
