<svg width="70" height="70" viewBox="0 0 70 70" fill="none" xmlns="http://www.w3.org/2000/svg">
<g clip-path="url(#clip0_198_543)">
<path d="M35 37.9166C41.9883 37.9166 48.3438 39.9408 53.0192 42.7933C55.3525 44.2166 57.3475 45.8966 58.7883 47.7225C60.2058 49.5162 61.25 51.6629 61.25 53.9583C61.25 56.4229 60.0513 58.3654 58.3246 59.7508C56.6912 61.0633 54.5358 61.9325 52.2463 62.5391C47.6438 63.7554 41.5013 64.1666 35 64.1666C28.4988 64.1666 22.3562 63.7583 17.7537 62.5391C15.4642 61.9325 13.3087 61.0633 11.6754 59.7508C9.94583 58.3625 8.75 56.4229 8.75 53.9583C8.75 51.6629 9.79417 49.5162 11.2117 47.7196C12.6525 45.8966 14.6446 44.2196 16.9808 42.7904C21.6563 39.9437 28.0146 37.9166 35 37.9166ZM35 5.83331C38.8677 5.83331 42.5771 7.36977 45.312 10.1047C48.0469 12.8396 49.5833 16.5489 49.5833 20.4166C49.5833 24.2844 48.0469 27.9937 45.312 30.7286C42.5771 33.4635 38.8677 35 35 35C31.1323 35 27.4229 33.4635 24.688 30.7286C21.9531 27.9937 20.4167 24.2844 20.4167 20.4166C20.4167 16.5489 21.9531 12.8396 24.688 10.1047C27.4229 7.36977 31.1323 5.83331 35 5.83331Z" fill="#A7D129"/>
</g>
<defs>
<clipPath id="clip0_198_543">
<rect width="70" height="70" fill="white"/>
</clipPath>
</defs>
</svg>
