<svg width="38" height="38" viewBox="0 0 38 38" fill="none" xmlns="http://www.w3.org/2000/svg">
<path d="M25.5 25.2083C25.7873 25.2083 26.0629 25.0942 26.2661 24.891C26.4692 24.6879 26.5834 24.4123 26.5834 24.125C26.5834 23.8377 26.4692 23.5621 26.2661 23.359C26.0629 23.1558 25.7873 23.0417 25.5 23.0417C25.2127 23.0417 24.9372 23.1558 24.734 23.359C24.5308 23.5621 24.4167 23.8377 24.4167 24.125C24.4167 24.4123 24.5308 24.6879 24.734 24.891C24.9372 25.0942 25.2127 25.2083 25.5 25.2083ZM28.75 20.3333C29.0373 20.3333 29.3129 20.4475 29.5161 20.6506C29.7192 20.8538 29.8334 21.1293 29.8334 21.4167V26.8333C29.8334 27.1206 29.7192 27.3962 29.5161 27.5994C29.3129 27.8025 29.0373 27.9167 28.75 27.9167H22.25C21.9627 27.9167 21.6872 27.8025 21.484 27.5994C21.2808 27.3962 21.1667 27.1206 21.1667 26.8333V21.4167C21.1667 21.1293 21.2808 20.8538 21.484 20.6506C21.6872 20.4475 21.9627 20.3333 22.25 20.3333H22.7917V19.25C22.7917 18.5317 23.077 17.8428 23.5849 17.3349C24.0929 16.827 24.7817 16.5417 25.5 16.5417C25.8557 16.5417 26.2079 16.6117 26.5365 16.7478C26.865 16.8839 27.1636 17.0834 27.4151 17.3349C27.6666 17.5864 27.8661 17.885 28.0022 18.2136C28.1383 18.5422 28.2084 18.8943 28.2084 19.25V20.3333H28.75ZM25.5 17.625C25.069 17.625 24.6557 17.7962 24.351 18.1009C24.0462 18.4057 23.875 18.819 23.875 19.25V20.3333H27.125V19.25C27.125 18.819 26.9538 18.4057 26.6491 18.1009C26.3443 17.7962 25.931 17.625 25.5 17.625Z" fill="black"/>
<path d="M16.125 15.25L13.875 18.75M13.875 15.25L16.125 18.75M13.3125 17H16.6875M11.0625 15.25L8.8125 18.75M8.8125 15.25L11.0625 18.75M8.25 17H11.625M21.1875 15.25L18.9375 18.75M18.9375 15.25L21.1875 18.75M18.375 17H21.75" stroke="black" stroke-width="1.5" stroke-linecap="round" stroke-linejoin="round"/>
<path d="M31 19.2V13C31 11.3431 29.6569 10 28 10H9C7.34315 10 6 11.3431 6 13V21C6 22.6569 7.34315 24 9 24H21.5" stroke="black" stroke-width="2"/>
<circle cx="19" cy="19" r="17.5" stroke="black" stroke-width="3"/>
</svg>
