<svg width="24" height="26" viewBox="0 0 24 26" fill="none" xmlns="http://www.w3.org/2000/svg">
<path d="M14.8333 13V24.1633C14.89 24.5883 14.7483 25.0417 14.4225 25.3392C14.2914 25.4705 14.1358 25.5747 13.9644 25.6458C13.793 25.7169 13.6093 25.7535 13.4238 25.7535C13.2382 25.7535 13.0545 25.7169 12.8831 25.6458C12.7117 25.5747 12.5561 25.4705 12.425 25.3392L9.5775 22.4917C9.42299 22.3406 9.30551 22.1559 9.23424 21.9519C9.16297 21.7479 9.13984 21.5302 9.16667 21.3158V13H9.12417L0.964169 2.545C0.734114 2.24967 0.630309 1.87528 0.675435 1.50365C0.720562 1.13202 0.910952 0.793357 1.205 0.561667C1.47417 0.363333 1.77167 0.25 2.08334 0.25H21.9167C22.2283 0.25 22.5258 0.363333 22.795 0.561667C23.0891 0.793357 23.2794 1.13202 23.3246 1.50365C23.3697 1.87528 23.2659 2.24967 23.0358 2.545L14.8758 13H14.8333Z" fill="#1B1919"/>
</svg>
