<svg width="38" height="38" viewBox="0 0 38 38" fill="none" xmlns="http://www.w3.org/2000/svg">
<circle cx="19" cy="19" r="17.5" stroke="black" stroke-width="3"/>
<path d="M24.4681 8V9.86618H27.7928L24.6435 13.0443C23.5179 12.1943 22.1461 11.7338 20.7356 11.7324C18.9907 11.7324 17.3614 12.4228 16.1278 13.6573C15.5181 14.2597 15.034 14.9771 14.7036 15.768C14.3732 16.5589 14.2031 17.4075 14.2032 18.2646C14.2033 19.1218 14.3736 19.9703 14.7041 20.7612C15.0346 21.552 15.5189 22.2693 16.1288 22.8716C16.9406 23.6834 17.9073 24.2666 18.986 24.5623C19.0924 24.4812 19.2118 24.3963 19.307 24.3011C19.6981 23.9033 19.9792 23.4107 20.1226 22.8716C19.1067 22.7462 18.1621 22.2839 17.4398 21.5587C16.5589 20.6788 16.07 19.5106 16.07 18.264C16.07 17.0174 16.5599 15.851 17.4417 14.9702C18.3207 14.0865 19.489 13.5985 20.7356 13.5985C21.9823 13.5985 23.1496 14.0884 24.0295 14.9702C24.4649 15.401 24.8104 15.914 25.0459 16.4795C25.2813 17.0449 25.4021 17.6515 25.4012 18.264C25.4012 19.0711 25.1726 19.8222 24.7891 20.509C24.8787 20.9905 24.9347 21.4962 24.9347 21.9963C24.9347 22.461 24.8955 22.9201 24.818 23.368C25.0047 23.2159 25.1708 23.0433 25.3434 22.8716C26.577 21.6362 27.2675 20.0089 27.2675 18.264C27.2675 16.8364 26.7972 15.4796 25.9555 14.3562L29.1337 11.208V14.5316H31V8H24.4681ZM18.7527 15.698C18.6463 15.7792 18.5269 15.8641 18.4317 15.9593C18.0286 16.3642 17.7655 16.855 17.6162 17.3897C18.6333 17.5203 19.5617 17.9645 20.2989 18.7016C21.1807 19.5815 21.6706 20.7497 21.6706 21.9954C21.6706 23.2411 21.1807 24.4084 20.2989 25.2892C19.418 26.1738 18.2498 26.6618 17.0031 26.6618C15.7565 26.6618 14.5891 26.1719 13.7092 25.2902C13.2735 24.8596 12.9278 24.3466 12.6923 23.7811C12.4568 23.2156 12.3362 22.6089 12.3375 21.9963C12.3375 21.1892 12.5661 20.4381 12.9496 19.7513C12.8559 19.261 12.8072 18.7632 12.804 18.264C12.804 17.7993 12.8432 17.3402 12.9207 16.8923C12.7341 17.0444 12.5689 17.2171 12.3953 17.3897C11.1636 18.6223 10.4712 20.2515 10.4712 21.9963C10.4712 23.424 10.9415 24.7807 11.7832 25.9041L10.21 27.4782L8.3437 25.6121L7 26.924L8.86625 28.7902L7 30.6564L8.3437 32L10.21 30.1338L12.0762 32L13.3872 30.6564L11.521 28.7902L13.0961 27.217C14.2207 28.0682 15.5927 28.5286 17.0031 28.528C18.7481 28.528 20.3773 27.8375 21.6109 26.603C22.8445 25.3704 23.535 23.7412 23.535 21.9963C23.535 20.2515 22.8445 18.6242 21.61 17.3887C20.7981 16.577 19.8314 15.9938 18.7527 15.698Z" fill="black"/>
</svg>
