<svg width="38" height="38" viewBox="0 0 38 38" fill="none" xmlns="http://www.w3.org/2000/svg">
<g clip-path="url(#clip0_65_79)">
<path d="M29.2916 10.3333H26.4027V12.5C26.4027 12.7087 26.3616 12.9153 26.2818 13.108C26.2019 13.3008 26.0849 13.476 25.9374 13.6235C25.7898 13.7711 25.6147 13.8881 25.4219 13.9679C25.2291 14.0478 25.0225 14.0889 24.8138 14.0889C24.6052 14.0889 24.3986 14.0478 24.2058 13.9679C24.013 13.8881 23.8379 13.7711 23.6903 13.6235C23.5428 13.476 23.4258 13.3008 23.3459 13.108C23.2661 12.9153 23.225 12.7087 23.225 12.5V10.3333H14.8111V12.5C14.8111 12.9214 14.6437 13.3255 14.3457 13.6235C14.0477 13.9215 13.6436 14.0889 13.2222 14.0889C12.8008 14.0889 12.3966 13.9215 12.0987 13.6235C11.8007 13.3255 11.6333 12.9214 11.6333 12.5V10.3333H8.7444C8.57253 10.3314 8.40201 10.3639 8.24293 10.429C8.08385 10.4941 7.93943 10.5904 7.81823 10.7123C7.69703 10.8342 7.6015 10.9791 7.53729 11.1386C7.47308 11.298 7.44149 11.4687 7.4444 11.6406V27.8039C7.44153 27.9727 7.47195 28.1405 7.53392 28.2975C7.59588 28.4546 7.68819 28.5979 7.80556 28.7193C7.92292 28.8407 8.06305 28.9378 8.21795 29.005C8.37284 29.0722 8.53946 29.1083 8.70829 29.1111H29.2916C29.4605 29.1083 29.6271 29.0722 29.782 29.005C29.9369 28.9378 30.077 28.8407 30.1944 28.7193C30.3117 28.5979 30.404 28.4546 30.466 28.2975C30.528 28.1405 30.5584 27.9727 30.5555 27.8039V11.6406C30.5584 11.4717 30.528 11.304 30.466 11.1469C30.404 10.9898 30.3117 10.8465 30.1944 10.7251C30.077 10.6037 29.9369 10.5067 29.782 10.4394C29.6271 10.3722 29.4605 10.3362 29.2916 10.3333ZM13.2222 24.7778H11.7777V23.3333H13.2222V24.7778ZM13.2222 21.1667H11.7777V19.7222H13.2222V21.1667ZM13.2222 17.5556H11.7777V16.1111H13.2222V17.5556ZM17.5555 24.7778H16.1111V23.3333H17.5555V24.7778ZM17.5555 21.1667H16.1111V19.7222H17.5555V21.1667ZM17.5555 17.5556H16.1111V16.1111H17.5555V17.5556ZM21.8888 24.7778H20.4444V23.3333H21.8888V24.7778ZM21.8888 21.1667H20.4444V19.7222H21.8888V21.1667ZM21.8888 17.5556H20.4444V16.1111H21.8888V17.5556ZM26.2222 24.7778H24.7777V23.3333H26.2222V24.7778ZM26.2222 21.1667H24.7777V19.7222H26.2222V21.1667ZM26.2222 17.5556H24.7777V16.1111H26.2222V17.5556Z" fill="black"/>
<path d="M13.2222 13.2222C13.4138 13.2222 13.5975 13.1461 13.7329 13.0107C13.8684 12.8752 13.9444 12.6915 13.9444 12.5V8.16666C13.9444 7.97512 13.8684 7.79142 13.7329 7.65598C13.5975 7.52053 13.4138 7.44444 13.2222 7.44444C13.0307 7.44444 12.847 7.52053 12.7115 7.65598C12.5761 7.79142 12.5 7.97512 12.5 8.16666V12.5C12.5 12.6915 12.5761 12.8752 12.7115 13.0107C12.847 13.1461 13.0307 13.2222 13.2222 13.2222Z" fill="black"/>
<path d="M24.7778 13.2222C24.9693 13.2222 25.153 13.1461 25.2885 13.0107C25.4239 12.8752 25.5 12.6915 25.5 12.5V8.16666C25.5 7.97512 25.4239 7.79142 25.2885 7.65598C25.153 7.52053 24.9693 7.44444 24.7778 7.44444C24.5862 7.44444 24.4025 7.52053 24.2671 7.65598C24.1316 7.79142 24.0555 7.97512 24.0555 8.16666V12.5C24.0555 12.6915 24.1316 12.8752 24.2671 13.0107C24.4025 13.1461 24.5862 13.2222 24.7778 13.2222Z" fill="black"/>
</g>
<circle cx="19" cy="19" r="17.5" stroke="black" stroke-width="3"/>
<defs>
<clipPath id="clip0_65_79">
<rect width="26" height="26" fill="white" transform="translate(6 6)"/>
</clipPath>
</defs>
</svg>
