<svg width="38" height="38" viewBox="0 0 38 38" fill="none" xmlns="http://www.w3.org/2000/svg">
<circle cx="19" cy="19" r="17.5" stroke="black" stroke-width="3"/>
<path d="M20.8333 5V11.5C20.8333 12.2388 21.1231 12.9474 21.6388 13.4698C22.1545 13.9922 22.854 14.2857 23.5833 14.2857H30V28.2143C30 28.9531 29.7103 29.6617 29.1945 30.1841C28.6788 30.7065 27.9793 31 27.25 31H20.485L20.518 30.9721C21.192 30.4128 21.7345 29.7084 22.1062 28.9101C22.4778 28.1119 22.6693 27.2397 22.6667 26.3571C22.6668 25.1987 22.2394 24.082 21.4684 23.2264C20.6974 22.3708 19.6384 21.838 18.4995 21.7329C19.3785 20.7479 19.8814 19.4772 19.9175 18.1499C19.9535 16.8226 19.5205 15.5259 18.6963 14.4934C17.872 13.4609 16.7109 12.7605 15.4221 12.5185C14.1332 12.2765 12.8015 12.5087 11.6667 13.1733V7.78571C11.6667 7.0469 11.9564 6.33834 12.4721 5.81592C12.9878 5.29349 13.6873 5 14.4167 5H20.8333ZM22.6667 5.46429V11.5C22.6667 11.7463 22.7632 11.9825 22.9352 12.1566C23.1071 12.3307 23.3402 12.4286 23.5833 12.4286H29.5417L22.6667 5.46429ZM18.0833 18C18.0833 18.9851 17.697 19.9298 17.0094 20.6264C16.3218 21.323 15.3891 21.7143 14.4167 21.7143C13.4442 21.7143 12.5116 21.323 11.8239 20.6264C11.1363 19.9298 10.75 18.9851 10.75 18C10.75 17.0149 11.1363 16.0702 11.8239 15.3736C12.5116 14.677 13.4442 14.2857 14.4167 14.2857C15.3891 14.2857 16.3218 14.677 17.0094 15.3736C17.697 16.0702 18.0833 17.0149 18.0833 18ZM20.8333 26.3571C20.8333 28.6693 19 31 14.4167 31C9.83333 31 8 28.6786 8 26.3571C8 25.6183 8.28973 24.9098 8.80546 24.3873C9.32118 23.8649 10.0207 23.5714 10.75 23.5714H18.0833C18.8127 23.5714 19.5122 23.8649 20.0279 24.3873C20.5436 24.9098 20.8333 25.6183 20.8333 26.3571Z" fill="black"/>
</svg>
