<svg width="38" height="38" viewBox="0 0 38 38" fill="none" xmlns="http://www.w3.org/2000/svg">
<path fill-rule="evenodd" clip-rule="evenodd" d="M13.4284 8.64875C14.6667 9.55116 15.6308 10.7829 16.4542 11.9616L16.933 12.6592L17.3848 13.3255C17.6107 13.6556 17.7073 14.0573 17.6562 14.4541C17.6051 14.8509 17.4097 15.215 17.1074 15.477L14.9938 17.0467C14.8917 17.1205 14.8199 17.2288 14.7916 17.3515C14.7633 17.4742 14.7805 17.6031 14.84 17.7141C15.3188 18.584 16.1703 19.8797 17.1453 20.8547C18.1214 21.8297 19.4778 22.7375 20.4083 23.2705C20.525 23.336 20.6624 23.3543 20.7921 23.3217C20.9219 23.289 21.0342 23.2079 21.106 23.095L22.4818 21.0009C22.7348 20.6649 23.1079 20.4398 23.5231 20.3728C23.9383 20.3057 24.3633 20.4019 24.7092 20.6412L25.4274 21.1385C26.7697 22.0702 28.2116 23.1286 29.3144 24.5402C29.4893 24.7653 29.6006 25.0332 29.6366 25.316C29.6726 25.5988 29.6321 25.8861 29.5192 26.1478C28.6124 28.2636 26.3179 30.0652 23.9313 29.9774L23.6063 29.959L23.3539 29.9373L23.0744 29.9048L22.77 29.8637L22.4396 29.8095C22.3817 29.7991 22.324 29.7882 22.2663 29.777L21.9023 29.699C21.8386 29.685 21.775 29.6706 21.7116 29.6557L21.3151 29.5538L20.898 29.4347L20.4625 29.2938C18.4627 28.6157 15.9244 27.2832 13.3201 24.6788C10.7168 22.0756 9.38434 19.5373 8.70618 17.5375L8.56534 17.102L8.44618 16.6849L8.34434 16.2884L8.25984 15.9136C8.23544 15.7962 8.21268 15.6785 8.19159 15.5604L8.13743 15.23L8.09409 14.9256L8.06268 14.6461L8.04101 14.3937L8.02368 14.0687C7.93593 11.6897 9.75701 9.37891 11.863 8.4765C12.1165 8.36704 12.3941 8.32537 12.6685 8.35557C12.9429 8.38577 13.2048 8.4868 13.4284 8.64875ZM24.4167 9.25C24.682 9.25003 24.9381 9.34745 25.1364 9.52377C25.3347 9.70009 25.4614 9.94306 25.4924 10.2066L25.5 10.3333V12.5H27.6667C27.9428 12.5003 28.2084 12.606 28.4092 12.7956C28.6099 12.9851 28.7308 13.2442 28.7469 13.5198C28.7631 13.7955 28.6734 14.0669 28.4962 14.2786C28.319 14.4904 28.0676 14.6265 27.7934 14.6591L27.6667 14.6667H25.5V16.8333C25.4997 17.1095 25.394 17.375 25.2044 17.5758C25.0149 17.7766 24.7558 17.8974 24.4802 17.9136C24.2045 17.9298 23.9331 17.8401 23.7214 17.6629C23.5096 17.4857 23.3735 17.2343 23.3409 16.9601L23.3333 16.8333V14.6667H21.1667C20.8906 14.6664 20.625 14.5606 20.4242 14.3711C20.2234 14.1815 20.1026 13.9225 20.0864 13.6468C20.0702 13.3712 20.1599 13.0998 20.3371 12.888C20.5144 12.6763 20.7657 12.5402 21.0399 12.5076L21.1667 12.5H23.3333V10.3333C23.3333 10.046 23.4475 9.77046 23.6506 9.5673C23.8538 9.36413 24.1294 9.25 24.4167 9.25Z" fill="black"/>
<circle cx="19" cy="19" r="17.5" stroke="black" stroke-width="3"/>
</svg>
