<svg width="38" height="38" viewBox="0 0 38 38" fill="none" xmlns="http://www.w3.org/2000/svg">
<circle cx="19" cy="19" r="17.5" stroke="black" stroke-width="3"/>
<path d="M9.9375 11C9.68886 11 9.4504 11.1129 9.27459 11.3138C9.09877 11.5147 9 11.7873 9 12.0714C9 12.3556 9.09877 12.6281 9.27459 12.829C9.4504 13.03 9.68886 13.1429 9.9375 13.1429H28.0625C28.3111 13.1429 28.5496 13.03 28.7254 12.829C28.9012 12.6281 29 12.3556 29 12.0714C29 11.7873 28.9012 11.5147 28.7254 11.3138C28.5496 11.1129 28.3111 11 28.0625 11H9.9375ZM9.9375 15.2857C9.68886 15.2857 9.4504 15.3986 9.27459 15.5995C9.09877 15.8005 9 16.073 9 16.3571C9 16.6413 9.09877 16.9138 9.27459 17.1148C9.4504 17.3157 9.68886 17.4286 9.9375 17.4286H28.0625C28.3111 17.4286 28.5496 17.3157 28.7254 17.1148C28.9012 16.9138 29 16.6413 29 16.3571C29 16.073 28.9012 15.8005 28.7254 15.5995C28.5496 15.3986 28.3111 15.2857 28.0625 15.2857H9.9375ZM9 20.6429C9 20.3587 9.09877 20.0862 9.27459 19.8852C9.4504 19.6843 9.68886 19.5714 9.9375 19.5714H28.0625C28.3111 19.5714 28.5496 19.6843 28.7254 19.8852C28.9012 20.0862 29 20.3587 29 20.6429C29 20.927 28.9012 21.1995 28.7254 21.4005C28.5496 21.6014 28.3111 21.7143 28.0625 21.7143H9.9375C9.68886 21.7143 9.4504 21.6014 9.27459 21.4005C9.09877 21.1995 9 20.927 9 20.6429ZM9.9375 23.8571C9.68886 23.8571 9.4504 23.97 9.27459 24.171C9.09877 24.3719 9 24.6444 9 24.9286C9 25.2127 9.09877 25.4853 9.27459 25.6862C9.4504 25.8871 9.68886 26 9.9375 26H21.8125C22.0611 26 22.2996 25.8871 22.4754 25.6862C22.6512 25.4853 22.75 25.2127 22.75 24.9286C22.75 24.6444 22.6512 24.3719 22.4754 24.171C22.2996 23.97 22.0611 23.8571 21.8125 23.8571H9.9375Z" fill="black"/>
</svg>
