<svg width="34" height="34" viewBox="0 0 34 34" fill="none" xmlns="http://www.w3.org/2000/svg">
<circle cx="17" cy="17" r="17" fill="#A7D129"/>
<path fill-rule="evenodd" clip-rule="evenodd" d="M29.5 12.4713C29.4977 12.7157 29.3984 12.9493 29.2241 13.1206C29.0497 13.2919 28.8144 13.387 28.57 13.385H22.3675C22.2464 13.3862 22.1262 13.3635 22.0138 13.3182C21.9014 13.2729 21.7991 13.2059 21.7126 13.121C21.6261 13.0362 21.5572 12.9351 21.5098 12.8236C21.4624 12.7122 21.4374 12.5924 21.4362 12.4713C21.4362 11.9663 21.8537 11.5563 22.3675 11.5563H28.57C29.0825 11.5563 29.5 11.9663 29.5 12.4713ZM29.5 17.9575C29.4977 18.202 29.3984 18.4355 29.2241 18.6068C29.0497 18.7782 28.8144 18.8733 28.57 18.8713H23.6075C23.363 18.8733 23.1278 18.7782 22.9534 18.6068C22.7791 18.4355 22.6798 18.202 22.6775 17.9575C22.6775 17.4525 23.0937 17.0425 23.6075 17.0425H28.57C29.0825 17.0425 29.5 17.4525 29.5 17.9575Z" fill="black"/>
<path d="M17.7338 12.2975L18.1888 12.7438C20.0863 14.6088 21.0363 15.5425 21.035 16.5525C21.035 16.8838 20.9663 17.21 20.8338 17.5138C20.4275 18.4425 19.18 18.93 16.6863 19.9062L16.505 19.9762C15.7988 20.2525 15.445 20.3912 15.16 20.6137C14.9445 20.7817 14.7586 20.9845 14.61 21.2138C14.4138 21.5138 14.31 21.875 14.1013 22.5938C13.7788 23.71 13.6188 24.2687 13.275 24.515C13.0182 24.6994 12.7013 24.7802 12.3875 24.7413C11.965 24.6913 11.5475 24.28 10.7125 23.46L9.43 22.1975L6.08875 25.4825C5.91272 25.6542 5.67654 25.7503 5.43063 25.7503C5.18471 25.7503 4.94854 25.6542 4.7725 25.4825C4.68621 25.3983 4.61764 25.2977 4.57082 25.1866C4.524 25.0755 4.49988 24.9562 4.49988 24.8356C4.49988 24.7151 4.524 24.5957 4.57082 24.4846C4.61764 24.3735 4.68621 24.2729 4.7725 24.1887L8.10125 20.8925L6.83 19.6425C5.99625 18.8238 5.57875 18.4138 5.52625 17.9975C5.48723 17.6883 5.56968 17.3759 5.75625 17.1262C6.00875 16.7887 6.57625 16.63 7.71125 16.3138C8.44375 16.11 8.81 16.0075 9.11625 15.815C9.3484 15.6699 9.55459 15.487 9.72625 15.2738C9.9525 14.9938 10.0938 14.6462 10.375 13.9513L10.4463 13.7737C11.4388 11.3237 11.935 10.0975 12.8813 9.69875C13.19 9.5675 13.5225 9.5 13.8575 9.5C14.8875 9.5 15.8363 10.4312 17.7338 12.2975Z" fill="black"/>
<path fill-rule="evenodd" clip-rule="evenodd" d="M29.5 23.4438C29.4977 23.6883 29.3985 23.9218 29.2241 24.0931C29.0497 24.2644 28.8145 24.3596 28.57 24.3576H17.405C17.1606 24.3596 16.9253 24.2644 16.7509 24.0931C16.5766 23.9218 16.4773 23.6883 16.475 23.4438C16.475 22.9388 16.8913 22.5288 17.405 22.5288H28.57C29.0825 22.5288 29.5 22.9388 29.5 23.4438Z" fill="black"/>
</svg>
