<svg width="38" height="38" viewBox="0 0 38 38" fill="none" xmlns="http://www.w3.org/2000/svg">
<circle cx="19" cy="19" r="17.5" stroke="black" stroke-width="3"/>
<path d="M13.2126 11.81C13.668 10.3753 14.8193 9.18867 16.3333 8.53867V10.3333C16.3333 10.5101 16.4035 10.6797 16.5286 10.8047C16.6536 10.9298 16.8232 11 17 11C17.1768 11 17.3464 10.9298 17.4714 10.8047C17.5964 10.6797 17.6666 10.5101 17.6666 10.3333V7.66667C17.6666 7.48986 17.7369 7.32029 17.8619 7.19526C17.9869 7.07024 18.1565 7 18.3333 7H19.6666C19.8435 7 20.013 7.07024 20.138 7.19526C20.2631 7.32029 20.3333 7.48986 20.3333 7.66667V10.3333C20.3333 10.5101 20.4035 10.6797 20.5286 10.8047C20.6536 10.9298 20.8232 11 21 11C21.1768 11 21.3464 10.9298 21.4714 10.8047C21.5964 10.6797 21.6666 10.5101 21.6666 10.3333V8.53867C23.2026 9.198 24.3646 10.4087 24.8066 11.8713C24.6353 12.01 24.3493 12.178 23.9033 12.3407C22.9086 12.7033 21.24 13 18.6493 13C16.7833 13 15.284 12.7093 14.2726 12.34C13.784 12.162 13.4326 11.974 13.2126 11.81Z" fill="black"/>
<path fill-rule="evenodd" clip-rule="evenodd" d="M24.36 13.5933C24.95 13.3773 25.4153 13.1186 25.746 12.8213C26.124 13.1833 26.3333 13.5813 26.3333 13.9999C26.3333 14.7986 25.5707 15.5246 24.3267 16.0619C24.3311 16.1517 24.3333 16.2422 24.3333 16.3333C24.3327 17.0447 24.1897 17.7488 23.9129 18.4041C23.636 19.0594 23.2309 19.6527 22.7212 20.1491C22.2116 20.6454 21.6078 21.0348 20.9455 21.2943C20.2831 21.5538 19.5755 21.6782 18.8643 21.6601C18.1531 21.642 17.4528 21.4818 16.8044 21.1889C16.1561 20.8961 15.5729 20.4765 15.0892 19.9548C14.6055 19.4332 14.2311 18.82 13.9879 18.1514C13.7447 17.4829 13.6378 16.7724 13.6733 16.0619C12.4293 15.5246 11.6667 14.7986 11.6667 13.9999C11.6667 13.5666 11.8907 13.1553 12.294 12.7839L12.3693 12.8439C12.732 13.1246 13.228 13.3786 13.816 13.5926C14.9967 14.0239 16.6553 14.3333 18.6493 14.3333C21.3213 14.3333 23.162 14.0299 24.36 13.5933ZM15.004 16.5159C15.05 17.5448 15.4912 18.5163 16.2355 19.2281C16.9799 19.9398 17.9701 20.3371 19 20.3371C20.0299 20.3371 21.0201 19.9398 21.7645 19.2281C22.5088 18.5163 22.95 17.5448 22.996 16.5159C21.8467 16.8226 20.4733 16.9999 19 16.9999C17.5267 16.9999 16.1533 16.8219 15.004 16.5159ZM7 30.9999H21V23.3333L19.6667 24.3333V26.9313C19.4482 26.9821 19.2242 27.0052 19 26.9999C18.6833 26.9999 18.47 26.9666 18.3333 26.9313V24.4813L15.2353 22.0719C11.3467 22.8186 7 24.5586 7 26.9999V30.9999ZM11.6667 29.6666H17V26.4533L12.65 27.1786L13.9007 23.7399C13.1431 23.9352 12.3972 24.1734 11.6667 24.4533V29.6666ZM8.33333 29.6666H10.3333V25.0526L10.284 25.0786C9.57467 25.4546 9.056 25.8379 8.72933 26.1986C8.40933 26.5533 8.33333 26.8153 8.33333 26.9999V29.6666Z" fill="black"/>
<path d="M24.7132 20.1C25.0985 19.7067 25.6332 20.1033 25.5158 20.6413L25.4985 20.72C25.4386 20.9942 25.4408 21.2784 25.5052 21.5516C25.5695 21.8248 25.6943 22.0801 25.8703 22.2987C26.0463 22.5174 26.2691 22.6938 26.5222 22.815C26.7754 22.9362 27.0525 22.9991 27.3332 22.9991C27.6139 22.9991 27.891 22.9362 28.1441 22.815C28.3973 22.6938 28.6201 22.5174 28.7961 22.2987C28.9721 22.0801 29.0968 21.8248 29.1612 21.5516C29.2255 21.2784 29.2278 20.9942 29.1678 20.72L29.1505 20.6413C29.0332 20.1033 29.5678 19.7073 29.9532 20.1007C30.6254 20.7852 31.0013 21.7066 30.9998 22.666C31 23.2878 30.842 23.8993 30.5408 24.4433C30.2395 24.9872 29.8049 25.4456 29.2778 25.7753C29.0918 25.8913 28.9998 26.114 28.9998 26.3333V29.6667C28.9998 30.0203 28.8594 30.3594 28.6093 30.6095C28.3593 30.8595 28.0201 31 27.6665 31H26.9998C26.6462 31 26.3071 30.8595 26.057 30.6095C25.807 30.3594 25.6665 30.0203 25.6665 29.6667V26.3333C25.6665 26.114 25.5745 25.8913 25.3885 25.7753C24.8614 25.4456 24.4268 24.9872 24.1256 24.4433C23.8243 23.8993 23.6664 23.2878 23.6665 22.666C23.6665 21.6673 24.0658 20.7607 24.7132 20.1Z" fill="black"/>
</svg>
