<svg width="35" height="35" viewBox="0 0 35 35" fill="none" xmlns="http://www.w3.org/2000/svg">
<path d="M21.8721 7.29167C24.55 7.29037 27.1213 8.34142 29.0315 10.2183C30.9418 12.0951 32.038 14.6474 32.0839 17.325C32.1298 20.0026 31.1217 22.5909 29.277 24.5322C27.4322 26.4734 24.8985 27.612 22.2221 27.7025L21.8721 27.7083H13.1279C10.4499 27.7096 7.87871 26.6586 5.96848 24.7818C4.05825 22.9049 2.96202 20.3526 2.9161 17.675C2.87019 14.9975 3.87827 12.4091 5.72303 10.4678C7.56779 8.52661 10.1015 7.38802 12.7779 7.29751L13.1265 7.29167H21.8721ZM21.5104 18.2292C21.0269 18.2292 20.5633 18.4212 20.2214 18.7631C19.8796 19.105 19.6875 19.5686 19.6875 20.0521C19.6875 20.5356 19.8796 20.9992 20.2214 21.3411C20.5633 21.683 21.0269 21.875 21.5104 21.875C21.9939 21.875 22.4575 21.683 22.7994 21.3411C23.1413 20.9992 23.3333 20.5356 23.3333 20.0521C23.3333 19.5686 23.1413 19.105 22.7994 18.7631C22.4575 18.4212 21.9939 18.2292 21.5104 18.2292ZM11.6667 13.125C11.4024 13.125 11.147 13.2207 10.9478 13.3945C10.7486 13.5682 10.6191 13.8082 10.5831 14.07L10.5729 14.2188V16.4033H8.38542C8.10632 16.4005 7.83671 16.5045 7.63177 16.6939C7.42684 16.8834 7.30209 17.1441 7.28308 17.4225C7.26407 17.701 7.35223 17.9762 7.52951 18.1918C7.70679 18.4073 7.95978 18.547 8.23667 18.5821L8.38542 18.5923L10.5729 18.5908V20.7813C10.573 21.0584 10.6783 21.3251 10.8675 21.5276C11.0566 21.7301 11.3156 21.8532 11.5921 21.8721C11.8686 21.891 12.1419 21.8043 12.3569 21.6294C12.5719 21.4545 12.7124 21.2045 12.7502 20.93L12.7604 20.7813V18.5908H14.9479C15.2233 18.5883 15.4876 18.4819 15.688 18.293C15.8883 18.1041 16.0101 17.8465 16.0289 17.5717C16.0477 17.297 15.9621 17.0253 15.7893 16.8108C15.6165 16.5964 15.3691 16.455 15.0967 16.415L14.9479 16.4048L12.7604 16.4033V14.2188C12.7604 13.9287 12.6452 13.6505 12.4401 13.4454C12.2349 13.2402 11.9567 13.125 11.6667 13.125ZM24.4271 13.125C23.9436 13.125 23.4799 13.3171 23.1381 13.6589C22.7962 14.0008 22.6042 14.4645 22.6042 14.9479C22.6042 15.4314 22.7962 15.8951 23.1381 16.2369C23.4799 16.5788 23.9436 16.7708 24.4271 16.7708C24.9105 16.7708 25.3742 16.5788 25.7161 16.2369C26.0579 15.8951 26.25 15.4314 26.25 14.9479C26.25 14.4645 26.0579 14.0008 25.7161 13.6589C25.3742 13.3171 24.9105 13.125 24.4271 13.125Z" fill="#1B1919"/>
</svg>
