<svg width="26" height="26" viewBox="0 0 26 26" fill="none" xmlns="http://www.w3.org/2000/svg">
<path d="M13 0C14.7604 0 16.4435 0.343378 18.0491 1.03013C19.6548 1.71689 21.0379 2.64062 22.1987 3.80134C23.3594 4.96205 24.2831 6.34524 24.9699 7.95089C25.6566 9.55655 26 11.2396 26 13C26 14.7507 25.659 16.4289 24.9771 18.0346C24.2952 19.6403 23.3739 21.0234 22.2132 22.1842C21.0525 23.3449 19.6693 24.271 18.0636 24.9626C16.458 25.6542 14.7701 26 13 26C11.2299 26 9.54204 25.6566 7.93638 24.9699C6.33073 24.2831 4.94996 23.357 3.79408 22.1914C2.63821 21.0259 1.71689 19.6427 1.03013 18.0419C0.343378 16.441 0 14.7604 0 13C0 11.2396 0.343378 9.55655 1.03013 7.95089C1.71689 6.34524 2.64062 4.96205 3.80134 3.80134C4.96205 2.64062 6.34524 1.71689 7.95089 1.03013C9.55655 0.343378 11.2396 0 13 0ZM21.981 19.6016C23.4222 17.6187 24.1429 15.4182 24.1429 13C24.1429 11.4911 23.8478 10.0499 23.2578 8.67634C22.6678 7.30283 21.8746 6.11793 20.8783 5.12165C19.8821 4.12537 18.6972 3.33222 17.3237 2.74219C15.9501 2.15216 14.5089 1.85714 13 1.85714C11.4911 1.85714 10.0499 2.15216 8.67634 2.74219C7.30283 3.33222 6.11793 4.12537 5.12165 5.12165C4.12537 6.11793 3.33222 7.30283 2.74219 8.67634C2.15216 10.0499 1.85714 11.4911 1.85714 13C1.85714 15.4182 2.57775 17.6187 4.01897 19.6016C4.65737 16.4386 6.13728 14.8571 8.4587 14.8571C9.72582 16.0952 11.2396 16.7143 13 16.7143C14.7604 16.7143 16.2742 16.0952 17.5413 14.8571C19.8627 14.8571 21.3426 16.4386 21.981 19.6016ZM18.5714 10.2143C18.5714 8.67634 18.0273 7.36328 16.9392 6.27511C15.851 5.18694 14.5379 4.64286 13 4.64286C11.4621 4.64286 10.149 5.18694 9.06083 6.27511C7.97266 7.36328 7.42857 8.67634 7.42857 10.2143C7.42857 11.7522 7.97266 13.0653 9.06083 14.1535C10.149 15.2416 11.4621 15.7857 13 15.7857C14.5379 15.7857 15.851 15.2416 16.9392 14.1535C18.0273 13.0653 18.5714 11.7522 18.5714 10.2143Z" fill="#A7D129"/>
</svg>
