<svg width="109" height="42" viewBox="0 0 109 42" fill="none" xmlns="http://www.w3.org/2000/svg">
<path d="M37.2032 17.296C37.2272 17.296 37.2272 17.296 37.2032 17.296C37.2032 17.272 37.2152 17.26 37.2392 17.26C37.8152 16.876 38.4752 16.576 39.2192 16.36C39.9872 16.12 40.7432 16 41.4872 16C43.0712 16 44.2952 16.384 45.1592 17.152C45.1592 17.176 45.2312 17.26 45.3752 17.404C45.3992 17.404 45.3992 17.416 45.3752 17.44C45.3512 17.44 45.3512 17.452 45.3752 17.476L45.6992 17.26C46.2752 16.876 46.9352 16.576 47.6792 16.36C48.4232 16.12 49.1792 16 49.9472 16C51.5312 16 52.7552 16.384 53.6192 17.152C54.2912 17.752 54.6272 19.732 54.6272 23.092C54.6272 24.076 54.6032 25.576 54.5552 27.592C54.5072 29.32 54.4832 30.556 54.4832 31.3C54.4832 32.116 54.5072 33.028 54.5552 34.036C53.2352 34.228 51.9392 34.3 50.6672 34.252H48.9752C48.9272 33.532 48.9032 32.14 48.9032 30.076V28.276C48.9032 26.932 48.8672 25.924 48.7952 25.252C48.6752 24.004 48.5072 23.164 48.2912 22.732C48.0752 22.3 47.7032 22.084 47.1752 22.084C46.9352 22.084 46.7312 22.18 46.5632 22.372C46.3952 22.54 46.2632 22.9 46.1672 23.452C46.1672 24.46 46.1432 26.02 46.0952 28.132C46.0472 29.716 46.0232 30.856 46.0232 31.552C46.0232 32.296 46.0472 33.124 46.0952 34.036C44.7752 34.228 43.4792 34.3 42.2072 34.252H40.5152C40.4672 33.532 40.4432 32.14 40.4432 30.076V28.276C40.4432 27.1 40.4192 26.248 40.3712 25.72C40.3712 25.696 40.3592 25.66 40.3352 25.612C40.3352 25.54 40.3352 25.42 40.3352 25.252C40.2872 24.46 40.2032 23.812 40.0832 23.308C39.9872 22.804 39.7952 22.456 39.5072 22.264C39.3152 22.144 39.0392 22.084 38.6792 22.084C38.2472 22.084 37.8632 22.24 37.5272 22.552C37.1912 22.864 37.0112 23.38 36.9872 24.1C36.9632 24.46 36.9512 25.012 36.9512 25.756C36.9512 26.356 36.9752 27.232 37.0232 28.384C37.0712 29.584 37.0952 30.484 37.0952 31.084C37.0952 32.164 37.0472 33.124 36.9512 33.964C36.3032 34.132 35.7752 34.228 35.3672 34.252C34.9832 34.3 34.5512 34.312 34.0712 34.288C33.8552 34.264 33.5072 34.252 33.0272 34.252C32.4752 34.252 31.9352 34.276 31.4072 34.324C31.4072 31.444 31.3952 29.308 31.3712 27.916C31.3232 24.796 31.2992 22.432 31.2992 20.824C31.2992 19.648 31.3232 17.98 31.3712 15.82C32.1392 15.916 32.7392 15.964 33.1712 15.964C33.5792 15.964 33.9752 15.94 34.3592 15.892L34.9712 15.82C35.4992 15.772 35.9072 15.748 36.1952 15.748C36.7712 15.748 37.0832 15.832 37.1312 16C37.1792 16.288 37.2032 16.708 37.2032 17.26V17.296ZM61.3806 26.008C61.4046 26.8 61.4406 27.388 61.4886 27.772C61.5606 28.132 61.7286 28.516 61.9926 28.924C62.1846 29.284 62.4366 29.56 62.7486 29.752C63.0606 29.944 63.3846 30.04 63.7206 30.04C64.2246 30.04 64.6326 29.776 64.9446 29.248C65.2566 28.696 65.3886 27.892 65.3406 26.836C66.0366 26.932 66.7806 26.956 67.5726 26.908L70.9566 27.088C70.9566 28.168 70.8726 29.26 70.7046 30.364C70.5606 31.468 70.2726 32.308 69.8406 32.884C69.3606 33.556 68.6646 34.012 67.7526 34.252C66.8646 34.516 65.8206 34.648 64.6206 34.648C64.1646 34.648 63.5286 34.624 62.7126 34.576C62.3286 34.552 61.7646 34.54 61.0206 34.54C60.2766 34.444 59.5326 34.18 58.7886 33.748C57.6366 32.836 56.7846 31.54 56.2326 29.86C55.6806 28.18 55.4046 26.356 55.4046 24.388C55.4046 22.324 55.6926 20.428 56.2686 18.7C56.7486 17.62 57.6366 16.78 58.9326 16.18C60.2286 15.58 61.6686 15.28 63.2526 15.28C64.1166 15.28 64.9566 15.376 65.7726 15.568C67.6206 15.928 68.9646 16.804 69.8046 18.196C70.6686 19.564 71.1006 21.208 71.1006 23.128C71.1006 23.44 71.0766 23.98 71.0286 24.748C70.5726 24.868 69.5286 24.988 67.8966 25.108C66.2646 25.204 64.7406 25.252 63.3246 25.252H61.3806V26.008ZM64.9086 19.528C64.5486 19.312 64.2246 19.204 63.9366 19.204C63.0966 19.204 62.4966 19.396 62.1366 19.78C61.7766 20.164 61.5606 20.704 61.4886 21.4C61.4646 21.496 61.4526 21.604 61.4526 21.724C61.4526 21.868 61.5246 21.952 61.6686 21.976C61.8126 22 62.1726 22 62.7486 21.976H64.3326L65.4126 22.012H65.8806C65.9526 22.036 66.0006 22.036 66.0246 22.012C66.0486 21.988 66.0606 21.94 66.0606 21.868V21.724C66.0606 21.22 65.9646 20.776 65.7726 20.392C65.6046 20.008 65.3646 19.732 65.0526 19.564L64.9086 19.528ZM77.8447 17.296C77.8687 17.296 77.8687 17.296 77.8447 17.296C77.8447 17.272 77.8567 17.26 77.8807 17.26C78.4567 16.876 79.1167 16.576 79.8607 16.36C80.6287 16.12 81.3847 16 82.1287 16C83.7127 16 84.9367 16.384 85.8007 17.152C86.4727 17.752 86.8087 19.732 86.8087 23.092C86.8087 24.076 86.7847 25.576 86.7367 27.592C86.6887 29.32 86.6647 30.556 86.6647 31.3C86.6647 32.116 86.6887 33.028 86.7367 34.036C85.4167 34.228 84.1207 34.3 82.8487 34.252H81.1567C81.1087 33.532 81.0847 32.14 81.0847 30.076V28.276C81.0847 27.1 81.0607 26.248 81.0127 25.72L80.9767 25.504V25.252C80.9287 24.58 80.8687 24.052 80.7967 23.668C80.7487 23.284 80.5927 22.924 80.3287 22.588C80.0887 22.252 79.7047 22.084 79.1767 22.084C78.7927 22.084 78.4447 22.252 78.1327 22.588C77.8207 22.924 77.6527 23.428 77.6287 24.1C77.6047 24.46 77.5927 25.012 77.5927 25.756C77.5927 26.356 77.6167 27.232 77.6647 28.384C77.7127 29.584 77.7367 30.484 77.7367 31.084C77.7367 32.164 77.6887 33.124 77.5927 33.964C76.9447 34.132 76.4167 34.228 76.0087 34.252C75.6247 34.3 75.1927 34.312 74.7127 34.288C74.4967 34.264 74.1487 34.252 73.6687 34.252C73.1167 34.252 72.5767 34.276 72.0487 34.324C72.0487 31.444 72.0367 29.308 72.0127 27.916C71.9647 24.796 71.9407 22.432 71.9407 20.824C71.9407 19.648 71.9647 17.98 72.0127 15.82C72.7807 15.916 73.3807 15.964 73.8127 15.964C74.2207 15.964 74.6167 15.94 75.0007 15.892L75.6127 15.82C76.1407 15.772 76.5487 15.748 76.8367 15.748C77.4127 15.748 77.7247 15.832 77.7727 16C77.8207 16.288 77.8447 16.708 77.8447 17.26V17.296ZM97.0037 32.704L96.9317 32.74H96.9677C96.3917 33.124 95.7317 33.436 94.9877 33.676C94.2437 33.892 93.4877 34 92.7197 34C91.1357 34 89.9117 33.616 89.0477 32.848C88.3757 32.248 88.0397 30.268 88.0397 26.908C88.0397 25.924 88.0637 24.424 88.1117 22.408C88.1597 20.68 88.1837 19.444 88.1837 18.7C88.1837 17.884 88.1597 16.972 88.1117 15.964C89.3837 15.772 90.6797 15.7 91.9997 15.748H93.6917C93.7397 16.468 93.7637 17.86 93.7637 19.924C93.7637 21.268 93.7877 22.468 93.8357 23.524C93.8597 23.836 93.8717 24.244 93.8717 24.748C93.9677 26.356 94.2557 27.364 94.7357 27.772C94.9277 27.868 95.1917 27.916 95.5277 27.916C95.9597 27.916 96.3317 27.76 96.6437 27.448C96.9797 27.136 97.1717 26.62 97.2197 25.9C97.2677 25.228 97.2917 24.736 97.2917 24.424C97.2917 23.608 97.2557 22.768 97.1837 21.904C97.1597 21.616 97.1357 21.196 97.1117 20.644C97.0877 20.068 97.0757 19.564 97.0757 19.132C97.0757 17.884 97.1357 16.852 97.2557 16.036C97.8797 15.868 98.3837 15.772 98.7677 15.748C99.1517 15.7 99.5837 15.688 100.064 15.712C100.28 15.736 100.652 15.748 101.18 15.748C101.732 15.748 102.272 15.724 102.8 15.676C102.8 18.556 102.812 20.692 102.836 22.084C102.884 25.204 102.908 27.568 102.908 29.176C102.908 30.328 102.884 31.984 102.836 34.144L101.972 34.108C101.468 34.108 101 34.12 100.568 34.144C99.8477 34.216 99.1037 34.252 98.3357 34.252C97.4957 34.252 97.0757 34.168 97.0757 34C97.0277 33.688 97.0037 33.268 97.0037 32.74V32.704Z" fill="#1B1919"/>
<path d="M0.96875 23.5625C0.711821 23.5625 0.465416 23.4604 0.28374 23.2788C0.102065 23.0971 0 22.8507 0 22.5938V14.8457C0 14.5888 0.102065 14.3424 0.28374 14.1607C0.465416 13.979 0.711821 13.8769 0.96875 13.8769H8.71875C8.97568 13.8769 9.22208 13.979 9.40376 14.1607C9.58543 14.3424 9.6875 14.5888 9.6875 14.8457V22.5938C9.6875 22.8507 9.58543 23.0971 9.40376 23.2788C9.22208 23.4604 8.97568 23.5625 8.71875 23.5625H0.96875ZM14.5312 23.5625C14.2743 23.5625 14.0279 23.4604 13.8462 23.2788C13.6646 23.0971 13.5625 22.8507 13.5625 22.5938V14.8457C13.5625 14.5888 13.6646 14.3424 13.8462 14.1607C14.0279 13.979 14.2743 13.8769 14.5312 13.8769H22.2793C22.5362 13.8769 22.7826 13.979 22.9643 14.1607C23.146 14.3424 23.2481 14.5888 23.2481 14.8457V22.5938C23.2481 22.8507 23.146 23.0971 22.9643 23.2788C22.7826 23.4604 22.5362 23.5625 22.2793 23.5625H14.5312ZM0.96875 37.125C0.711821 37.125 0.465416 37.0229 0.28374 36.8413C0.102065 36.6596 0 36.4132 0 36.1563V28.4063C0 28.1493 0.102065 27.9029 0.28374 27.7212C0.465416 27.5396 0.711821 27.4375 0.96875 27.4375H8.71875C8.97568 27.4375 9.22208 27.5396 9.40376 27.7212C9.58543 27.9029 9.6875 28.1493 9.6875 28.4063V36.1563C9.6875 36.4132 9.58543 36.6596 9.40376 36.8413C9.22208 37.0229 8.97568 37.125 8.71875 37.125H0.96875ZM14.5312 37.125C14.2743 37.125 14.0279 37.0229 13.8462 36.8413C13.6646 36.6596 13.5625 36.4132 13.5625 36.1563V28.4063C13.5625 28.1493 13.6646 27.9029 13.8462 27.7212C14.0279 27.5396 14.2743 27.4375 14.5312 27.4375H22.2793C22.5362 27.4375 22.7826 27.5396 22.9643 27.7212C23.146 27.9029 23.2481 28.1493 23.2481 28.4063V36.1563C23.2481 36.4132 23.146 36.6596 22.9643 36.8413C22.7826 37.0229 22.5362 37.125 22.2793 37.125H14.5312Z" fill="black"/>
</svg>
