<svg width="40" height="40" viewBox="0 0 40 40" fill="none" xmlns="http://www.w3.org/2000/svg">
<mask id="path-1-inside-1_48_935" fill="white">
<path d="M30 5C30.4082 5.00005 30.8022 5.14993 31.1073 5.42119C31.4123 5.69246 31.6072 6.06625 31.655 6.47167L31.6667 6.66667V33.3333C31.6662 33.7581 31.5035 34.1667 31.2119 34.4756C30.9203 34.7845 30.5217 34.9704 30.0977 34.9953C29.6736 35.0202 29.256 34.8822 28.9303 34.6096C28.6045 34.3369 28.3952 33.9502 28.345 33.5283L28.3333 33.3333V6.66667C28.3333 6.22464 28.5089 5.80072 28.8215 5.48816C29.134 5.17559 29.558 5 30 5ZM8.82166 5.48833C9.10865 5.20137 9.49049 5.02899 9.89553 5.00352C10.3006 4.97805 10.701 5.10125 11.0217 5.35L11.1783 5.48833L24.5117 18.8217C24.7986 19.1087 24.971 19.4905 24.9965 19.8955C25.0219 20.3006 24.8987 20.701 24.65 21.0217L24.5117 21.1783L11.1783 34.5117C10.8784 34.8106 10.4759 34.9841 10.0527 34.997C9.62944 35.01 9.21714 34.8613 8.89953 34.5813C8.58192 34.3012 8.38282 33.9107 8.34267 33.4892C8.30251 33.0677 8.42431 32.6467 8.68333 32.3117L8.82166 32.155L20.9767 20L8.82166 7.845C8.50921 7.53245 8.33369 7.10861 8.33369 6.66667C8.33369 6.22473 8.50921 5.80088 8.82166 5.48833Z"/>
</mask>
<path d="M30 5C30.4082 5.00005 30.8022 5.14993 31.1073 5.42119C31.4123 5.69246 31.6072 6.06625 31.655 6.47167L31.6667 6.66667V33.3333C31.6662 33.7581 31.5035 34.1667 31.2119 34.4756C30.9203 34.7845 30.5217 34.9704 30.0977 34.9953C29.6736 35.0202 29.256 34.8822 28.9303 34.6096C28.6045 34.3369 28.3952 33.9502 28.345 33.5283L28.3333 33.3333V6.66667C28.3333 6.22464 28.5089 5.80072 28.8215 5.48816C29.134 5.17559 29.558 5 30 5ZM8.82166 5.48833C9.10865 5.20137 9.49049 5.02899 9.89553 5.00352C10.3006 4.97805 10.701 5.10125 11.0217 5.35L11.1783 5.48833L24.5117 18.8217C24.7986 19.1087 24.971 19.4905 24.9965 19.8955C25.0219 20.3006 24.8987 20.701 24.65 21.0217L24.5117 21.1783L11.1783 34.5117C10.8784 34.8106 10.4759 34.9841 10.0527 34.997C9.62944 35.01 9.21714 34.8613 8.89953 34.5813C8.58192 34.3012 8.38282 33.9107 8.34267 33.4892C8.30251 33.0677 8.42431 32.6467 8.68333 32.3117L8.82166 32.155L20.9767 20L8.82166 7.845C8.50921 7.53245 8.33369 7.10861 8.33369 6.66667C8.33369 6.22473 8.50921 5.80088 8.82166 5.48833Z" fill="black"/>
<path d="M30 5L30.0013 -5H30V5ZM31.655 6.47167L41.6371 5.87445L41.62 5.58733L41.5863 5.30167L31.655 6.47167ZM31.6667 6.66667H41.6667V6.36779L41.6488 6.06945L31.6667 6.66667ZM31.6667 33.3333L41.6667 33.3444V33.3333H31.6667ZM28.345 33.5283L18.3628 34.1256L18.3804 34.4183L18.415 34.7094L28.345 33.5283ZM28.3333 33.3333H18.3333V33.6322L18.3512 33.9306L28.3333 33.3333ZM8.82166 5.48833L1.75093 -1.58307L1.74953 -1.58167L8.82166 5.48833ZM11.0217 5.35L17.6405 -2.14605L17.4022 -2.35651L17.1509 -2.5514L11.0217 5.35ZM11.1783 5.48833L18.2494 -1.58273L18.0299 -1.80224L17.7972 -2.00771L11.1783 5.48833ZM24.5117 18.8217L31.5831 11.7509L31.5827 11.7506L24.5117 18.8217ZM24.65 21.0217L32.146 27.6405L32.3565 27.4022L32.5514 27.1509L24.65 21.0217ZM24.5117 21.1783L31.5827 28.2494L31.8022 28.0299L32.0077 27.7972L24.5117 21.1783ZM11.1783 34.5117L18.2374 41.5947L18.2434 41.5887L18.2494 41.5827L11.1783 34.5117ZM8.68333 32.3117L1.18729 25.6928L0.971663 25.937L0.772387 26.1947L8.68333 32.3117ZM8.82166 32.155L1.7506 25.0839L1.53109 25.3034L1.32563 25.5361L8.82166 32.155ZM20.9767 20L28.0477 27.0711L35.1188 20L28.0477 12.9289L20.9767 20ZM8.82166 7.845L1.74953 14.915L1.7506 14.9161L8.82166 7.845ZM29.9987 15C27.9576 14.9997 25.9875 14.2504 24.4622 12.894L37.7523 -2.05165C35.6169 -3.95051 32.8589 -4.99962 30.0013 -5L29.9987 15ZM24.4622 12.894C22.937 11.5377 21.9625 9.66878 21.7237 7.64167L41.5863 5.30167C41.252 2.46372 39.8877 -0.15281 37.7523 -2.05165L24.4622 12.894ZM21.6728 7.06889L21.6845 7.26389L41.6488 6.06945L41.6371 5.87445L21.6728 7.06889ZM21.6667 6.66667V33.3333H41.6667V6.66667H21.6667ZM21.6667 33.3222C21.669 31.1982 22.4823 29.1553 23.9404 27.6108L38.4834 41.3404C40.5247 39.1781 41.6634 36.318 41.6667 33.3444L21.6667 33.3222ZM23.9404 27.6108C25.3985 26.0664 27.3913 25.1369 29.5116 25.0125L30.6837 44.9781C33.6522 44.8038 36.4421 43.5026 38.4834 41.3404L23.9404 27.6108ZM29.5116 25.0125C31.6319 24.888 33.7198 25.5778 35.3486 26.9411L22.5119 42.278C24.7923 44.1866 27.7153 45.1524 30.6837 44.9781L29.5116 25.0125ZM35.3486 26.9411C36.9774 28.3044 38.0241 30.2381 38.275 32.3472L18.415 34.7094C18.7662 37.6622 20.2317 40.3695 22.5119 42.278L35.3486 26.9411ZM38.3271 32.9311L38.3155 32.7361L18.3512 33.9306L18.3628 34.1256L38.3271 32.9311ZM38.3333 33.3333V6.66667H18.3333V33.3333H38.3333ZM38.3333 6.66667C38.3333 8.87678 37.4554 10.9964 35.8926 12.5592L21.7504 -1.58291C19.5625 0.605026 18.3333 3.57249 18.3333 6.66667H38.3333ZM35.8926 12.5592C34.3297 14.122 32.2101 15 30 15V-5C26.9058 -5 23.9383 -3.77084 21.7504 -1.58291L35.8926 12.5592ZM15.8924 12.5597C14.4575 13.9945 12.5483 14.8565 10.5231 14.9838L9.26798 -4.97677C6.43267 -4.79849 3.75984 -3.59179 1.75093 -1.58307L15.8924 12.5597ZM10.5231 14.9838C8.49786 15.1112 6.49576 14.4952 4.8924 13.2514L17.1509 -2.5514C14.9062 -4.29266 12.1033 -5.15505 9.26798 -4.97677L10.5231 14.9838ZM4.40281 12.846L4.55947 12.9844L17.7972 -2.00771L17.6405 -2.14605L4.40281 12.846ZM4.10726 12.5594L17.4406 25.8927L31.5827 11.7506L18.2494 -1.58273L4.10726 12.5594ZM17.4403 25.8924C16.0055 24.4575 15.1435 22.5483 15.0162 20.5231L34.9768 19.268C34.7985 16.4327 33.5918 13.7599 31.5831 11.7509L17.4403 25.8924ZM15.0162 20.5231C14.8888 18.4979 15.5048 16.4958 16.7486 14.8924L32.5514 27.1509C34.2927 24.9062 35.155 22.1033 34.9768 19.268L15.0162 20.5231ZM17.154 14.4028L17.0156 14.5595L32.0077 27.7972L32.146 27.6405L17.154 14.4028ZM17.4406 14.1073L4.10726 27.4406L18.2494 41.5827L31.5827 28.2494L17.4406 14.1073ZM4.11927 27.4286C5.61894 25.934 7.63125 25.0663 9.74747 25.0017L10.3579 44.9924C13.3206 44.9019 16.1379 43.6871 18.2374 41.5947L4.11927 27.4286ZM9.74747 25.0017C11.8637 24.9371 13.9252 25.6804 15.5133 27.0807L2.2858 42.0818C4.50906 44.0422 7.39516 45.0829 10.3579 44.9924L9.74747 25.0017ZM15.5133 27.0807C17.1013 28.481 18.0968 30.4332 18.2976 32.5409L-1.61227 34.4375C-1.33118 37.3883 0.0625381 40.1214 2.2858 42.0818L15.5133 27.0807ZM18.2976 32.5409C18.4984 34.6486 17.8894 36.7537 16.5943 38.4286L0.772387 26.1947C-1.04075 28.5396 -1.89336 31.4868 -1.61227 34.4375L18.2976 32.5409ZM16.1794 38.9305L16.3177 38.7739L1.32563 25.5361L1.18729 25.6928L16.1794 38.9305ZM15.8927 39.2261L28.0477 27.0711L13.9056 12.9289L1.7506 25.0839L15.8927 39.2261ZM28.0477 12.9289L15.8927 0.773932L1.7506 14.9161L13.9056 27.0711L28.0477 12.9289ZM15.8938 0.775C17.4561 2.33773 18.3337 4.45696 18.3337 6.66667H-1.66631C-1.66631 9.76025 -0.43763 12.7272 1.74953 14.915L15.8938 0.775ZM18.3337 6.66667C18.3337 8.87637 17.4561 10.9956 15.8938 12.5583L1.74953 -1.58167C-0.437631 0.606154 -1.66631 3.57308 -1.66631 6.66667H18.3337Z" fill="black" mask="url(#path-1-inside-1_48_935)"/>
</svg>
