<svg width="40" height="40" viewBox="0 0 40 40" fill="none" xmlns="http://www.w3.org/2000/svg">
<mask id="path-1-inside-1_48_937" fill="white">
<path d="M10 5C9.59179 5.00005 9.19778 5.14993 8.89272 5.42119C8.58767 5.69246 8.39277 6.06625 8.34501 6.47167L8.33334 6.66667V33.3333C8.33381 33.7581 8.49648 34.1667 8.78809 34.4756C9.07971 34.7845 9.47827 34.9704 9.90234 34.9953C10.3264 35.0202 10.744 34.8822 11.0697 34.6096C11.3955 34.3369 11.6048 33.9502 11.655 33.5283L11.6667 33.3333V6.66667C11.6667 6.22464 11.4911 5.80072 11.1785 5.48816C10.866 5.17559 10.442 5 10 5ZM31.1783 5.48833C30.8914 5.20137 30.5095 5.02899 30.1045 5.00352C29.6994 4.97805 29.299 5.10125 28.9783 5.35L28.8217 5.48833L15.4883 18.8217C15.2014 19.1087 15.029 19.4905 15.0035 19.8955C14.9781 20.3006 15.1013 20.701 15.35 21.0217L15.4883 21.1783L28.8217 34.5117C29.1216 34.8106 29.5241 34.9841 29.9473 34.997C30.3706 35.01 30.7829 34.8613 31.1005 34.5813C31.4181 34.3012 31.6172 33.9107 31.6573 33.4892C31.6975 33.0677 31.5757 32.6467 31.3167 32.3117L31.1783 32.155L19.0233 20L31.1783 7.845C31.4908 7.53245 31.6663 7.10861 31.6663 6.66667C31.6663 6.22473 31.4908 5.80088 31.1783 5.48833Z"/>
</mask>
<path d="M10 5C9.59179 5.00005 9.19778 5.14993 8.89272 5.42119C8.58767 5.69246 8.39277 6.06625 8.34501 6.47167L8.33334 6.66667V33.3333C8.33381 33.7581 8.49648 34.1667 8.78809 34.4756C9.07971 34.7845 9.47827 34.9704 9.90234 34.9953C10.3264 35.0202 10.744 34.8822 11.0697 34.6096C11.3955 34.3369 11.6048 33.9502 11.655 33.5283L11.6667 33.3333V6.66667C11.6667 6.22464 11.4911 5.80072 11.1785 5.48816C10.866 5.17559 10.442 5 10 5ZM31.1783 5.48833C30.8914 5.20137 30.5095 5.02899 30.1045 5.00352C29.6994 4.97805 29.299 5.10125 28.9783 5.35L28.8217 5.48833L15.4883 18.8217C15.2014 19.1087 15.029 19.4905 15.0035 19.8955C14.9781 20.3006 15.1013 20.701 15.35 21.0217L15.4883 21.1783L28.8217 34.5117C29.1216 34.8106 29.5241 34.9841 29.9473 34.997C30.3706 35.01 30.7829 34.8613 31.1005 34.5813C31.4181 34.3012 31.6172 33.9107 31.6573 33.4892C31.6975 33.0677 31.5757 32.6467 31.3167 32.3117L31.1783 32.155L19.0233 20L31.1783 7.845C31.4908 7.53245 31.6663 7.10861 31.6663 6.66667C31.6663 6.22473 31.4908 5.80088 31.1783 5.48833Z" fill="black"/>
<path d="M10 5L9.99869 -5H10V5ZM8.34501 6.47167L-1.63714 5.87445L-1.61996 5.58733L-1.58631 5.30167L8.34501 6.47167ZM8.33334 6.66667H-1.66666V6.36779L-1.64881 6.06945L8.33334 6.66667ZM8.33334 33.3333L-1.66666 33.3444V33.3333H8.33334ZM11.655 33.5283L21.6372 34.1256L21.6196 34.4183L21.585 34.7094L11.655 33.5283ZM11.6667 33.3333H21.6667V33.6322L21.6488 33.9306L11.6667 33.3333ZM31.1783 5.48833L38.2491 -1.58307L38.2505 -1.58167L31.1783 5.48833ZM28.9783 5.35L22.3595 -2.14605L22.5978 -2.35651L22.8491 -2.5514L28.9783 5.35ZM28.8217 5.48833L21.7506 -1.58273L21.9701 -1.80224L22.2028 -2.00771L28.8217 5.48833ZM15.4883 18.8217L8.41694 11.7509L8.41728 11.7506L15.4883 18.8217ZM15.35 21.0217L7.85397 27.6405L7.64351 27.4022L7.44861 27.1509L15.35 21.0217ZM15.4883 21.1783L8.41728 28.2494L8.19777 28.0299L7.99231 27.7972L15.4883 21.1783ZM28.8217 34.5117L21.7626 41.5947L21.7566 41.5887L21.7506 41.5827L28.8217 34.5117ZM31.3167 32.3117L38.8127 25.6928L39.0283 25.937L39.2276 26.1947L31.3167 32.3117ZM31.1783 32.155L38.2494 25.0839L38.4689 25.3034L38.6744 25.5361L31.1783 32.155ZM19.0233 20L11.9523 27.0711L4.88121 20L11.9523 12.9289L19.0233 20ZM31.1783 7.845L38.2505 14.915L38.2494 14.9161L31.1783 7.845ZM10.0013 15C12.0424 14.9997 14.0125 14.2504 15.5378 12.894L2.24768 -2.05165C4.38309 -3.95051 7.14113 -4.99962 9.99869 -5L10.0013 15ZM15.5378 12.894C17.063 11.5377 18.0375 9.66878 18.2763 7.64167L-1.58631 5.30167C-1.25197 2.46372 0.112291 -0.15281 2.24768 -2.05165L15.5378 12.894ZM18.3272 7.06889L18.3155 7.26389L-1.64881 6.06945L-1.63714 5.87445L18.3272 7.06889ZM18.3333 6.66667V33.3333H-1.66666V6.66667H18.3333ZM18.3333 33.3222C18.331 31.1982 17.5177 29.1553 16.0596 27.6108L1.51658 41.3404C-0.524727 39.1781 -1.66335 36.318 -1.66665 33.3444L18.3333 33.3222ZM16.0596 27.6108C14.6015 26.0664 12.6087 25.1369 10.4884 25.0125L9.31629 44.9781C6.3478 44.8038 3.55789 43.5026 1.51658 41.3404L16.0596 27.6108ZM10.4884 25.0125C8.36806 24.888 6.2802 25.5778 4.6514 26.9411L17.4881 42.278C15.2078 44.1866 12.2847 45.1524 9.31629 44.9781L10.4884 25.0125ZM4.6514 26.9411C3.02263 28.3044 1.97587 30.2381 1.725 32.3472L21.585 34.7094C21.2338 37.6622 19.7683 40.3695 17.4881 42.278L4.6514 26.9411ZM1.67286 32.9311L1.68453 32.7361L21.6488 33.9306L21.6372 34.1256L1.67286 32.9311ZM1.66668 33.3333V6.66667H21.6667V33.3333H1.66668ZM1.66668 6.66667C1.66668 8.87678 2.54464 10.9964 4.10745 12.5592L18.2496 -1.58291C20.4375 0.605026 21.6667 3.57249 21.6667 6.66667H1.66668ZM4.10745 12.5592C5.67027 14.122 7.78988 15 10 15V-5C13.0942 -5 16.0617 -3.77084 18.2496 -1.58291L4.10745 12.5592ZM24.1076 12.5597C25.5425 13.9945 27.4517 14.8565 29.4769 14.9838L30.732 -4.97677C33.5673 -4.79849 36.2402 -3.59179 38.2491 -1.58307L24.1076 12.5597ZM29.4769 14.9838C31.5022 15.1112 33.5042 14.4952 35.1076 13.2514L22.8491 -2.5514C25.0938 -4.29266 27.8967 -5.15505 30.732 -4.97677L29.4769 14.9838ZM35.5972 12.846L35.4405 12.9844L22.2028 -2.00771L22.3595 -2.14605L35.5972 12.846ZM35.8927 12.5594L22.5594 25.8927L8.41728 11.7506L21.7506 -1.58273L35.8927 12.5594ZM22.5597 25.8924C23.9946 24.4575 24.8565 22.5483 24.9838 20.5231L5.02324 19.268C5.20152 16.4327 6.40821 13.7599 8.41694 11.7509L22.5597 25.8924ZM24.9838 20.5231C25.1112 18.4979 24.4952 16.4958 23.2514 14.8924L7.44861 27.1509C5.70734 24.9062 4.84496 22.1033 5.02324 19.268L24.9838 20.5231ZM22.846 14.4028L22.9844 14.5595L7.99231 27.7972L7.85397 27.6405L22.846 14.4028ZM22.5594 14.1073L35.8927 27.4406L21.7506 41.5827L8.41728 28.2494L22.5594 14.1073ZM35.8807 27.4286C34.3811 25.934 32.3688 25.0663 30.2525 25.0017L29.6421 44.9924C26.6794 44.9019 23.8621 43.6871 21.7626 41.5947L35.8807 27.4286ZM30.2525 25.0017C28.1363 24.9371 26.0748 25.6804 24.4867 27.0807L37.7142 42.0818C35.4909 44.0422 32.6049 45.0829 29.6421 44.9924L30.2525 25.0017ZM24.4867 27.0807C22.8987 28.481 21.9032 30.4332 21.7024 32.5409L41.6123 34.4375C41.3312 37.3883 39.9375 40.1214 37.7142 42.0818L24.4867 27.0807ZM21.7024 32.5409C21.5016 34.6486 22.1106 36.7537 23.4057 38.4286L39.2276 26.1947C41.0408 28.5396 41.8934 31.4868 41.6123 34.4375L21.7024 32.5409ZM23.8206 38.9305L23.6823 38.7739L38.6744 25.5361L38.8127 25.6928L23.8206 38.9305ZM24.1073 39.2261L11.9523 27.0711L26.0944 12.9289L38.2494 25.0839L24.1073 39.2261ZM11.9523 12.9289L24.1073 0.773932L38.2494 14.9161L26.0944 27.0711L11.9523 12.9289ZM24.1062 0.775C22.544 2.33773 21.6663 4.45696 21.6663 6.66667H41.6663C41.6663 9.76025 40.4376 12.7272 38.2505 14.915L24.1062 0.775ZM21.6663 6.66667C21.6663 8.87637 22.544 10.9956 24.1062 12.5583L38.2505 -1.58167C40.4376 0.606154 41.6663 3.57308 41.6663 6.66667H21.6663Z" fill="black" mask="url(#path-1-inside-1_48_937)"/>
</svg>
