<svg width="192" height="38" viewBox="0 0 192 38" fill="none" xmlns="http://www.w3.org/2000/svg">
<path d="M70.2333 6.73C71.6933 6.73 72.9733 6.94 74.0733 7.36C75.1933 7.76 75.7533 8.31 75.7533 9.01C75.7533 9.71 75.4833 10.58 74.9433 11.62C74.4233 12.64 73.9833 13.15 73.6233 13.15C73.5233 13.15 73.4033 13.1 73.2633 13C73.1433 12.88 72.8433 12.76 72.3633 12.64C71.9033 12.5 71.5033 12.43 71.1633 12.43C70.0033 12.43 69.0633 12.84 68.3433 13.66C67.6433 14.48 67.2933 15.74 67.2933 17.44C67.2933 19.12 67.6533 20.37 68.3733 21.19C69.1133 22.01 70.0433 22.42 71.1633 22.42C71.6233 22.42 72.1333 22.36 72.6933 22.24C73.2733 22.1 73.6833 21.91 73.9233 21.67C73.9633 21.63 74.0433 21.61 74.1633 21.61C74.2833 21.61 74.5033 21.84 74.8233 22.3C75.1633 22.74 75.4733 23.33 75.7533 24.07C76.0333 24.79 76.1733 25.35 76.1733 25.75C76.1733 26.53 75.5733 27.15 74.3733 27.61C73.1733 28.07 71.7533 28.3 70.1133 28.3C67.4733 28.3 65.3033 27.37 63.6033 25.51C61.9033 23.65 61.0533 21.03 61.0533 17.65C61.0533 14.25 61.9233 11.58 63.6633 9.64C65.4233 7.7 67.6133 6.73 70.2333 6.73ZM79.6097 26.23C78.3697 24.85 77.7497 22.94 77.7497 20.5C77.7497 18.06 78.3697 16.15 79.6097 14.77C80.8697 13.39 82.5597 12.7 84.6797 12.7C86.7997 12.7 88.4797 13.39 89.7197 14.77C90.9597 16.15 91.5797 18.06 91.5797 20.5C91.5797 22.94 90.9597 24.85 89.7197 26.23C88.4797 27.61 86.7997 28.3 84.6797 28.3C82.5597 28.3 80.8697 27.61 79.6097 26.23ZM84.6797 17.71C83.5597 17.71 82.9997 18.63 82.9997 20.47C82.9997 22.31 83.5597 23.23 84.6797 23.23C85.8197 23.23 86.3897 22.31 86.3897 20.47C86.3897 18.63 85.8197 17.71 84.6797 17.71ZM99.1606 27.76C99.1606 27.94 98.1406 28.03 96.1006 28.03C94.5006 28.01 93.7006 27.93 93.7006 27.79V7.36C93.7006 7.06 94.6706 6.91 96.6106 6.91C98.3106 6.97 99.1606 7.07 99.1606 7.21V27.76ZM107.334 27.76C107.334 27.94 106.314 28.03 104.274 28.03C102.674 28.01 101.874 27.93 101.874 27.79V7.36C101.874 7.06 102.844 6.91 104.784 6.91C106.484 6.97 107.334 7.07 107.334 7.21V27.76ZM121.388 27.19C120.128 27.93 118.508 28.3 116.528 28.3C114.548 28.3 112.878 27.63 111.518 26.29C110.158 24.93 109.478 23.06 109.478 20.68C109.478 18.28 110.128 16.35 111.428 14.89C112.748 13.43 114.408 12.7 116.408 12.7C118.408 12.7 119.948 13.21 121.028 14.23C122.128 15.25 122.678 16.49 122.678 17.95C122.678 21.19 120.818 22.81 117.098 22.81H115.028C115.028 23.41 115.188 23.83 115.508 24.07C115.848 24.29 116.338 24.4 116.978 24.4C118.378 24.4 119.708 24.08 120.968 23.44C120.988 23.42 121.078 23.56 121.238 23.86C121.718 24.72 121.958 25.45 121.958 26.05C121.958 26.63 121.768 27.01 121.388 27.19ZM117.638 18.52C117.638 17.68 117.228 17.26 116.408 17.26C116.028 17.26 115.698 17.38 115.418 17.62C115.158 17.84 115.028 18.17 115.028 18.61V19.54H116.648C117.308 19.54 117.638 19.2 117.638 18.52ZM129.558 20.56C129.558 22.52 130.298 23.5 131.778 23.5C132.738 23.5 133.538 23.31 134.178 22.93C134.478 22.93 134.718 23.45 134.898 24.49C135.098 25.51 135.198 26.21 135.198 26.59C135.198 26.95 135.148 27.19 135.048 27.31C133.988 27.97 132.538 28.3 130.698 28.3C128.858 28.3 127.288 27.62 125.988 26.26C124.708 24.88 124.068 23.01 124.068 20.65C124.068 18.27 124.698 16.35 125.958 14.89C127.238 13.43 128.928 12.7 131.028 12.7C133.148 12.7 134.618 13.21 135.438 14.23C135.618 14.45 135.708 14.78 135.708 15.22C135.708 15.64 135.628 16.16 135.468 16.78C135.108 18.06 134.638 18.8 134.058 19C133.978 19.02 133.858 19.03 133.698 19.03C133.558 19.03 133.378 18.91 133.158 18.67C132.378 17.89 131.748 17.5 131.268 17.5C130.808 17.5 130.408 17.74 130.068 18.22C129.728 18.7 129.558 19.48 129.558 20.56ZM144.253 27.82C144.253 28.06 143.413 28.18 141.733 28.18C139.733 28.1 138.733 27.97 138.733 27.79V17.17H137.203C136.803 17.17 136.603 16.48 136.603 15.1C136.603 14.74 136.633 14.3 136.693 13.78C136.773 13.26 136.923 13 137.143 13H138.733V10.36C138.733 9.96 139.573 9.76 141.253 9.76C142.953 9.76 143.803 9.92 143.803 10.24V12.16L143.833 13H146.383C146.723 13 146.893 13.7 146.893 15.1C146.893 16.5 146.723 17.2 146.383 17.2H144.253V27.82ZM153.888 27.82C153.888 27.98 152.968 28.06 151.128 28.06C149.308 28.06 148.398 27.99 148.398 27.85V13.12C148.398 12.98 149.308 12.91 151.128 12.91C152.968 12.91 153.888 12.97 153.888 13.09V27.82ZM153.888 11.32C153.888 11.46 152.968 11.53 151.128 11.53C149.308 11.53 148.398 11.47 148.398 11.35V7.03C148.398 6.83 149.308 6.73 151.128 6.73C152.968 6.73 153.888 6.79 153.888 6.91V11.32ZM157.891 26.23C156.651 24.85 156.031 22.94 156.031 20.5C156.031 18.06 156.651 16.15 157.891 14.77C159.151 13.39 160.841 12.7 162.961 12.7C165.081 12.7 166.761 13.39 168.001 14.77C169.241 16.15 169.861 18.06 169.861 20.5C169.861 22.94 169.241 24.85 168.001 26.23C166.761 27.61 165.081 28.3 162.961 28.3C160.841 28.3 159.151 27.61 157.891 26.23ZM162.961 17.71C161.841 17.71 161.281 18.63 161.281 20.47C161.281 22.31 161.841 23.23 162.961 23.23C164.101 23.23 164.671 22.31 164.671 20.47C164.671 18.63 164.101 17.71 162.961 17.71ZM178.252 27.82C178.252 27.96 177.532 28.03 176.092 28.03C174.092 27.97 173.092 27.86 173.092 27.7V17.98H172.312C171.792 17.98 171.452 17.54 171.292 16.66C171.252 16.4 171.232 16.14 171.232 15.88C171.232 15.26 171.352 14.64 171.592 14.02C171.952 13.14 172.512 12.7 173.272 12.7C174.032 12.7 174.712 12.88 175.312 13.24C175.912 13.6 176.312 13.96 176.512 14.32C177.772 13.24 179.272 12.7 181.012 12.7C182.752 12.7 184.012 13.17 184.792 14.11C185.572 15.05 185.962 16.59 185.962 18.73V27.73C185.962 27.97 185.102 28.09 183.382 28.09C181.682 28.09 180.832 27.97 180.832 27.73V19.06C180.832 18.06 180.482 17.56 179.782 17.56C179.582 17.56 179.302 17.65 178.942 17.83C178.582 17.99 178.352 18.11 178.252 18.19V27.82Z" fill="#A7D129"/>
<path d="M20.9 17.1V9.5H17.1V17.1H9.5V20.9H17.1V28.5H20.9V20.9H28.5V17.1H20.9ZM19 38C13.9609 38 9.12816 35.9982 5.56497 32.435C2.00178 28.8718 0 24.0391 0 19C0 13.9609 2.00178 9.12816 5.56497 5.56497C9.12816 2.00178 13.9609 0 19 0C24.0391 0 28.8718 2.00178 32.435 5.56497C35.9982 9.12816 38 13.9609 38 19C38 24.0391 35.9982 28.8718 32.435 32.435C28.8718 35.9982 24.0391 38 19 38Z" fill="#A7D129"/>
</svg>
