<svg width="178" height="35" viewBox="0 0 178 35" fill="none" xmlns="http://www.w3.org/2000/svg">
<path d="M67.0579 23.89C68.3379 23.95 69.6579 23.96 71.0179 23.92V23.98C71.0579 24.62 71.0679 25.29 71.0479 25.99C71.0279 26.67 70.9379 27.31 70.7779 27.91C68.7379 27.89 66.6579 27.92 64.5379 28C62.4379 28.06 60.4179 28.01 58.4779 27.85C58.4779 26.11 58.4579 24.39 58.4179 22.69C58.3779 20.97 58.3479 19.26 58.3279 17.56C58.3079 15.86 58.3079 14.16 58.3279 12.46C58.3479 10.76 58.4079 9.05 58.5079 7.33C59.2879 7.29 60.1279 7.26 61.0279 7.24C61.9479 7.2 62.8679 7.17 63.7879 7.15C64.7079 7.13 65.5979 7.11 66.4579 7.09C67.3179 7.07 68.0779 7.06 68.7379 7.06C69.3979 7.06 69.9279 7.07 70.3279 7.09C70.7279 7.11 70.9279 7.13 70.9279 7.15C71.0279 7.85 71.0479 8.56 70.9879 9.28C70.9479 10 70.9279 10.71 70.9279 11.41V11.44C70.2879 11.58 69.6379 11.67 68.9779 11.71C68.3379 11.73 67.6879 11.74 67.0279 11.74C66.3679 11.72 65.7079 11.71 65.0479 11.71C64.3879 11.71 63.7279 11.74 63.0679 11.8H62.9779L62.9479 11.83C62.9679 12.41 62.9379 13.01 62.8579 13.63C62.7979 14.23 62.8379 14.8 62.9779 15.34L63.0079 15.37C63.6079 15.41 64.2179 15.43 64.8379 15.43C65.4579 15.43 66.0779 15.44 66.6979 15.46V15.49C66.7979 16.17 66.8279 16.85 66.7879 17.53C66.7479 18.21 66.7379 18.92 66.7579 19.66C66.4579 19.74 66.1179 19.79 65.7379 19.81C65.3579 19.81 64.9879 19.81 64.6279 19.81C64.2879 19.81 63.9779 19.82 63.6979 19.84C63.4179 19.86 63.2279 19.91 63.1279 19.99C63.0279 20.57 62.9879 21.22 63.0079 21.94C63.0479 22.66 63.0879 23.26 63.1279 23.74L63.1579 23.77C64.4779 23.77 65.7779 23.81 67.0579 23.89ZM83.9613 12.97C83.9613 12.99 83.9513 13 83.9313 13C83.5313 14.24 83.0713 15.5 82.5513 16.78C82.0513 18.04 81.6913 19.32 81.4713 20.62C81.6913 21.82 82.0313 23.06 82.4913 24.34C82.9513 25.62 83.3213 26.84 83.6013 28C83.5013 27.98 83.4113 27.97 83.3313 27.97C83.2513 27.97 83.1613 27.97 83.0613 27.97C82.8413 27.97 82.6013 27.98 82.3413 28C82.0813 28 81.8313 28 81.5913 28C81.5113 28 81.3513 28 81.1113 28C80.8913 28 80.6513 28 80.3913 28C80.1513 27.98 79.9113 27.97 79.6713 27.97C79.4513 27.95 79.3113 27.93 79.2513 27.91H79.2213C79.0613 27.57 78.9213 27.2 78.8013 26.8C78.7013 26.38 78.6013 25.96 78.5013 25.54C78.4013 25.12 78.2913 24.71 78.1713 24.31C78.0713 23.89 77.9413 23.51 77.7813 23.17V23.14C77.4213 23.94 77.1513 24.78 76.9713 25.66C76.7913 26.52 76.5313 27.31 76.1913 28.03C76.1113 28.03 75.9713 28.03 75.7713 28.03C75.5713 28.03 75.3513 28.03 75.1113 28.03C74.8713 28.05 74.6413 28.06 74.4213 28.06C74.2213 28.06 74.0813 28.06 74.0013 28.06C73.6813 28.06 73.3013 28.05 72.8613 28.03C72.4413 28.03 72.1013 27.98 71.8413 27.88C71.9813 27.36 72.1513 26.8 72.3513 26.2C72.5713 25.58 72.7913 24.96 73.0113 24.34C73.2313 23.7 73.4413 23.06 73.6413 22.42C73.8413 21.78 74.0113 21.17 74.1513 20.59C73.9113 19.35 73.5413 18.09 73.0413 16.81C72.5613 15.53 72.0913 14.29 71.6313 13.09C72.5313 13.03 73.2313 13 73.7313 13C73.9113 13 74.1413 13 74.4213 13C74.7213 13 75.0013 13 75.2613 13C75.5413 13 75.7813 13.01 75.9813 13.03C76.1813 13.05 76.2913 13.07 76.3113 13.09C76.3913 13.39 76.4913 13.78 76.6113 14.26C76.7513 14.72 76.8813 15.2 77.0013 15.7C77.1413 16.18 77.2713 16.65 77.3913 17.11C77.5113 17.57 77.6213 17.93 77.7213 18.19C77.8413 17.91 77.9613 17.55 78.0813 17.11C78.2213 16.65 78.3513 16.17 78.4713 15.67C78.6113 15.17 78.7313 14.69 78.8313 14.23C78.9513 13.75 79.0613 13.36 79.1613 13.06C79.3413 13.04 79.6113 13.03 79.9713 13.03C80.3513 13.01 80.7613 13 81.2013 13C81.6613 12.98 82.1313 12.97 82.6113 12.97C83.0913 12.97 83.5313 12.97 83.9313 12.97H83.9613ZM89.0039 32.83C89.0039 33.05 88.9939 33.36 88.9739 33.76V34.09C88.9739 34.11 88.8339 34.13 88.5539 34.15C88.2939 34.19 87.9639 34.21 87.5639 34.21C87.1839 34.23 86.7739 34.23 86.3339 34.21C85.8939 34.21 85.5139 34.18 85.1939 34.12V32.14C85.1939 30.48 85.1739 28.82 85.1339 27.16C85.0939 25.5 85.0539 23.87 85.0139 22.27C84.9939 20.65 84.9739 19.07 84.9539 17.53C84.9539 15.97 84.9739 14.47 85.0139 13.03C85.6339 13.03 86.3139 13.02 87.0539 13C87.7939 12.96 88.4639 12.98 89.0639 13.06C89.0839 13.1 89.0939 13.17 89.0939 13.27C89.0939 13.47 89.0939 13.63 89.0939 13.75C89.1139 13.87 89.1239 14.04 89.1239 14.26C89.1639 14.36 89.2039 14.44 89.2439 14.5C89.3039 14.54 89.3639 14.5 89.4239 14.38C89.7239 13.78 90.1239 13.4 90.6239 13.24C91.1239 13.06 91.6539 13.01 92.2139 13.09C93.3539 13.17 94.2539 13.47 94.9139 13.99C95.5739 14.49 96.0639 15.14 96.3839 15.94C96.7239 16.72 96.9439 17.6 97.0439 18.58C97.1439 19.56 97.2139 20.55 97.2539 21.55C97.2539 22.25 97.2039 22.93 97.1039 23.59C97.0239 24.25 96.8839 24.86 96.6839 25.42C96.5039 25.96 96.2539 26.43 95.9339 26.83C95.6339 27.21 95.2639 27.48 94.8239 27.64C94.2839 27.84 93.6839 27.96 93.0239 28C92.3839 28.06 91.7739 28.06 91.1939 28C90.6139 27.96 90.1239 27.87 89.7239 27.73C89.3239 27.59 89.1039 27.43 89.0639 27.25C89.0839 28.19 89.0939 28.95 89.0939 29.53C89.0939 30.11 89.0939 30.57 89.0939 30.91C89.0939 31.27 89.0839 31.54 89.0639 31.72C89.0639 31.92 89.0539 32.1 89.0339 32.26C89.0339 32.44 89.0239 32.63 89.0039 32.83ZM92.7239 24.04C93.2239 23.68 93.5239 23.15 93.6239 22.45C93.7239 22.17 93.7839 21.88 93.8039 21.58C93.8239 21.28 93.8339 20.99 93.8339 20.71C93.8339 20.21 93.7739 19.73 93.6539 19.27C93.5339 18.79 93.3539 18.37 93.1139 18.01C92.8739 17.63 92.5839 17.33 92.2439 17.11C91.9039 16.89 91.5239 16.78 91.1039 16.78C90.5839 16.78 90.1839 16.89 89.9039 17.11C89.6239 17.33 89.4039 17.63 89.2439 18.01C89.1039 18.39 89.0139 18.85 88.9739 19.39C88.9539 19.93 88.9439 20.51 88.9439 21.13C88.9439 21.91 88.9539 22.53 88.9739 22.99C89.0139 23.43 89.0939 23.77 89.2139 24.01C89.3339 24.25 89.5139 24.41 89.7539 24.49C90.0139 24.55 90.3539 24.58 90.7739 24.58C91.5939 24.58 92.2439 24.4 92.7239 24.04ZM98.7799 11.65C98.7799 9.83 98.8699 8.01 99.0499 6.19L103.13 6.28C103.13 7.1 103.12 8.09 103.1 9.25C103.08 10.41 103.06 11.65 103.04 12.97C103.02 14.29 103 15.66 102.98 17.08C102.98 18.5 102.98 19.87 102.98 21.19C102.98 22.51 102.99 23.75 103.01 24.91C103.03 26.05 103.06 27.02 103.1 27.82C103 27.94 102.75 28 102.35 28C101.95 28.02 101.51 28.02 101.03 28C100.57 28 100.13 27.99 99.7099 27.97C99.2899 27.95 99.0099 27.96 98.8699 28C99.0099 26.2 99.0599 24.39 99.0199 22.57C98.9999 20.75 98.9599 18.93 98.8999 17.11C98.8399 15.29 98.7999 13.47 98.7799 11.65ZM105.142 15.22C105.262 14.84 105.352 14.54 105.412 14.32C105.552 14.02 105.772 13.76 106.072 13.54C106.392 13.32 106.752 13.14 107.152 13C107.572 12.84 108.012 12.73 108.472 12.67C108.952 12.61 109.432 12.58 109.912 12.58C110.312 12.62 110.692 12.63 111.052 12.61C111.432 12.57 111.832 12.57 112.252 12.61C112.892 12.65 113.502 12.78 114.082 13C114.662 13.2 115.162 13.5 115.582 13.9C115.862 14.08 116.082 14.37 116.242 14.77C116.402 15.17 116.522 15.64 116.602 16.18C116.682 16.7 116.732 17.28 116.752 17.92C116.772 18.54 116.792 19.18 116.812 19.84C116.792 20.42 116.762 21.08 116.722 21.82C116.702 22.56 116.652 23.27 116.572 23.95C116.512 24.63 116.422 25.24 116.302 25.78C116.202 26.32 116.052 26.69 115.852 26.89C115.512 27.37 115.062 27.71 114.502 27.91C113.962 28.11 113.372 28.23 112.732 28.27C112.092 28.33 111.432 28.33 110.752 28.27C110.072 28.23 109.452 28.21 108.892 28.21C107.872 28.03 107.012 27.59 106.312 26.89C105.772 26.41 105.402 25.81 105.202 25.09C105.002 24.37 104.882 23.62 104.842 22.84C104.802 22.04 104.792 21.24 104.812 20.44C104.852 19.64 104.842 18.91 104.782 18.25C104.782 17.89 104.792 17.54 104.812 17.2C104.832 16.84 104.872 16.47 104.932 16.09C104.952 15.87 105.022 15.58 105.142 15.22ZM110.182 17.2C109.762 17.32 109.422 17.54 109.162 17.86C109.042 17.94 108.952 18.14 108.892 18.46C108.812 19.1 108.772 19.74 108.772 20.38C108.772 21 108.752 21.66 108.712 22.36C108.692 22.82 108.812 23.18 109.072 23.44C109.332 23.68 109.642 23.85 110.002 23.95C110.382 24.03 110.772 24.05 111.172 24.01C111.572 23.95 111.902 23.85 112.162 23.71C112.502 23.55 112.732 23.22 112.852 22.72C112.932 22.08 112.992 21.44 113.032 20.8C113.092 20.14 113.062 19.52 112.942 18.94C112.842 18.24 112.552 17.73 112.072 17.41C111.592 17.09 110.962 17.02 110.182 17.2ZM122.669 13.75C122.689 13.81 122.699 13.91 122.699 14.05C122.779 14.01 122.959 13.93 123.239 13.81C123.539 13.69 123.829 13.58 124.109 13.48C124.489 13.36 124.919 13.27 125.399 13.21C125.879 13.13 126.329 13.08 126.749 13.06C127.169 13.04 127.519 13.04 127.799 13.06C128.099 13.06 128.249 13.07 128.249 13.09C128.249 13.77 128.239 14.37 128.219 14.89C128.219 15.41 128.219 15.88 128.219 16.3C128.219 16.7 128.219 17.07 128.219 17.41C128.219 17.75 128.229 18.07 128.249 18.37L127.979 18.28C127.879 18.24 127.769 18.21 127.649 18.19C127.549 18.15 127.449 18.11 127.349 18.07C127.109 18.01 126.859 17.96 126.599 17.92C126.359 17.88 126.229 17.86 126.209 17.86C125.669 17.8 125.169 17.77 124.709 17.77C124.269 17.77 123.879 17.84 123.539 17.98C123.219 18.12 122.969 18.34 122.789 18.64C122.609 18.94 122.529 19.37 122.549 19.93C122.569 20.63 122.589 21.29 122.609 21.91C122.629 22.53 122.639 23.16 122.639 23.8C122.639 24.42 122.639 25.06 122.639 25.72C122.659 26.36 122.669 27.05 122.669 27.79V27.91C122.329 28.01 122.019 28.07 121.739 28.09C121.459 28.11 121.169 28.11 120.869 28.09C120.569 28.09 120.239 28.08 119.879 28.06C119.539 28.04 119.129 28.05 118.649 28.09C118.649 25.63 118.619 23.17 118.559 20.71C118.519 18.25 118.539 15.7 118.619 13.06C118.859 13.08 119.059 13.1 119.219 13.12C119.379 13.12 119.529 13.12 119.669 13.12C119.809 13.12 119.959 13.12 120.119 13.12C120.279 13.1 120.479 13.08 120.719 13.06C120.799 13.06 120.939 13.05 121.139 13.03C121.359 13.01 121.579 12.99 121.799 12.97C122.039 12.95 122.239 12.95 122.399 12.97C122.579 12.97 122.669 12.99 122.669 13.03C122.669 13.19 122.669 13.31 122.669 13.39C122.669 13.47 122.669 13.54 122.669 13.6C122.669 13.64 122.669 13.69 122.669 13.75ZM134.194 20.56C133.754 20.54 133.434 20.51 133.234 20.47V21.01C133.254 21.61 133.274 22.1 133.294 22.48C133.334 22.86 133.464 23.23 133.684 23.59C133.924 24.05 134.264 24.39 134.704 24.61C135.144 24.83 135.574 24.9 135.994 24.82C136.414 24.74 136.764 24.5 137.044 24.1C137.344 23.68 137.474 23.06 137.434 22.24C137.634 22.26 137.904 22.27 138.244 22.27C138.584 22.25 138.934 22.23 139.294 22.21C139.674 22.19 140.034 22.19 140.374 22.21C140.714 22.21 140.994 22.24 141.214 22.3C141.174 22.82 141.134 23.33 141.094 23.83C141.054 24.33 141.004 24.8 140.944 25.24C140.884 25.66 140.804 26.03 140.704 26.35C140.624 26.65 140.514 26.86 140.374 26.98C140.034 27.46 139.594 27.8 139.054 28C138.514 28.2 137.924 28.32 137.284 28.36C136.644 28.4 135.984 28.4 135.304 28.36C134.644 28.32 134.034 28.3 133.474 28.3C132.914 28.22 132.394 28.04 131.914 27.76C131.374 27.38 130.924 26.89 130.564 26.29C130.204 25.67 129.914 25 129.694 24.28C129.474 23.54 129.324 22.76 129.244 21.94C129.164 21.12 129.144 20.3 129.184 19.48C129.244 18.74 129.304 18.03 129.364 17.35C129.444 16.65 129.604 15.97 129.844 15.31C130.104 14.73 130.504 14.24 131.044 13.84C131.584 13.42 132.194 13.11 132.874 12.91C133.554 12.69 134.274 12.57 135.034 12.55C135.794 12.53 136.534 12.61 137.254 12.79C138.174 12.95 138.914 13.27 139.474 13.75C140.034 14.23 140.454 14.81 140.734 15.49C141.034 16.17 141.214 16.92 141.274 17.74C141.334 18.56 141.334 19.39 141.274 20.23C141.134 20.27 140.864 20.31 140.464 20.35C140.084 20.39 139.624 20.43 139.084 20.47C138.564 20.51 138.004 20.54 137.404 20.56C136.804 20.58 136.224 20.59 135.664 20.59C135.124 20.59 134.634 20.58 134.194 20.56ZM137.704 16.63C137.504 16.27 137.224 16 136.864 15.82C136.704 15.72 136.544 15.65 136.384 15.61C136.224 15.55 136.034 15.52 135.814 15.52C135.334 15.52 134.944 15.57 134.644 15.67C134.344 15.77 134.104 15.91 133.924 16.09C133.744 16.27 133.604 16.48 133.504 16.72C133.424 16.96 133.364 17.21 133.324 17.47C133.284 17.69 133.264 17.85 133.264 17.95C133.284 18.03 133.384 18.09 133.564 18.13C133.744 18.15 134.024 18.16 134.404 18.16C134.804 18.14 135.384 18.13 136.144 18.13C136.664 18.13 137.054 18.14 137.314 18.16C137.574 18.18 137.754 18.19 137.854 18.19C137.974 18.17 138.034 18.14 138.034 18.1C138.034 18.04 138.034 17.93 138.034 17.77C138.034 17.37 137.924 16.99 137.704 16.63Z" fill="#A7D129"/>
<path d="M11.8636 33C11.514 33 11.1787 32.863 10.9315 32.6192C10.6843 32.3754 10.5455 32.0448 10.5455 31.7C10.5455 31.3552 10.6843 31.0246 10.9315 30.7808C11.1787 30.537 11.514 30.4 11.8636 30.4H22.8485C23.7808 30.4 24.6749 30.0348 25.3341 29.3846C25.9933 28.7345 26.3636 27.8528 26.3636 26.9333V13.0667C26.3636 12.1472 25.9933 11.2655 25.3341 10.6154C24.6749 9.96524 23.7808 9.6 22.8485 9.6H11.8636C11.514 9.6 11.1787 9.46304 10.9315 9.21924C10.6843 8.97544 10.5455 8.64478 10.5455 8.3C10.5455 7.95522 10.6843 7.62456 10.9315 7.38076C11.1787 7.13696 11.514 7 11.8636 7H22.8485C24.48 7 26.0446 7.63916 27.1983 8.77689C28.3519 9.91461 29 11.4577 29 13.0667V26.9333C29 28.5423 28.3519 30.0854 27.1983 31.2231C26.0446 32.3608 24.48 33 22.8485 33H11.8636ZM11.8478 13.4116C11.975 13.2957 12.124 13.2057 12.2865 13.1466C12.449 13.0875 12.6216 13.0606 12.7946 13.0674C12.9676 13.0741 13.1376 13.1145 13.2948 13.186C13.452 13.2576 13.5934 13.359 13.7108 13.4844L18.9836 19.1177C19.2086 19.3579 19.3336 19.673 19.3336 20C19.3336 20.327 19.2086 20.6421 18.9836 20.8823L13.7108 26.5156C13.5933 26.6409 13.4518 26.7421 13.2945 26.8135C13.1372 26.8849 12.9673 26.9251 12.7943 26.9317C12.6213 26.9383 12.4486 26.9112 12.2862 26.852C12.1239 26.7928 11.9749 26.7026 11.8478 26.5867C11.7208 26.4707 11.6181 26.3312 11.5457 26.1761C11.4733 26.021 11.4326 25.8533 11.4259 25.6827C11.4124 25.3382 11.5383 25.0024 11.7758 24.7493L15.0062 21.2983H1.31818C0.968578 21.2983 0.633294 21.1613 0.386087 20.9175C0.13888 20.6737 0 20.343 0 19.9983C0 19.6535 0.13888 19.3228 0.386087 19.079C0.633294 18.8352 0.968578 18.6983 1.31818 18.6983H15.0044L11.774 15.2489C11.6565 15.1235 11.5652 14.9765 11.5053 14.8163C11.4454 14.6561 11.4181 14.4858 11.425 14.3152C11.4318 14.1446 11.4727 13.9769 11.5453 13.8219C11.6178 13.6669 11.7206 13.5274 11.8478 13.4116Z" fill="#A7D129"/>
</svg>
