<svg width="112" height="33" viewBox="0 0 112 33" fill="none" xmlns="http://www.w3.org/2000/svg">
<path d="M48.948 21.808C48.948 21.952 48.132 22.024 46.5 22.024C45.22 22.008 44.58 21.944 44.58 21.832V5.488C44.58 5.248 45.356 5.128 46.908 5.128C48.268 5.176 48.948 5.256 48.948 5.368V21.808ZM52.1511 20.584C51.1591 19.48 50.6631 17.952 50.6631 16C50.6631 14.048 51.1591 12.52 52.1511 11.416C53.1591 10.312 54.5111 9.76 56.2071 9.76C57.9031 9.76 59.2471 10.312 60.2391 11.416C61.2311 12.52 61.7271 14.048 61.7271 16C61.7271 17.952 61.2311 19.48 60.2391 20.584C59.2471 21.688 57.9031 22.24 56.2071 22.24C54.5111 22.24 53.1591 21.688 52.1511 20.584ZM56.2071 13.768C55.3111 13.768 54.8631 14.504 54.8631 15.976C54.8631 17.448 55.3111 18.184 56.2071 18.184C57.1191 18.184 57.5751 17.448 57.5751 15.976C57.5751 14.504 57.1191 13.768 56.2071 13.768ZM67.8398 22C66.2878 22 65.0878 21.504 64.2398 20.512C63.3918 19.504 62.9678 18.024 62.9678 16.072C62.9678 14.104 63.5198 12.568 64.6238 11.464C65.7438 10.344 67.2238 9.784 69.0638 9.784C70.9198 9.784 72.4478 10.192 73.6478 11.008V22.96C73.6478 24.144 73.1678 25.048 72.2078 25.672C71.2478 26.312 70.0158 26.632 68.5117 26.632C67.0078 26.632 65.6638 26.44 64.4798 26.056C64.3198 25.672 64.2398 25.328 64.2398 25.024C64.2398 24 64.4078 23.248 64.7438 22.768C65.8158 23.232 66.9598 23.464 68.1758 23.464C69.0558 23.464 69.4958 23.152 69.4958 22.528V21.808C68.8078 21.936 68.2558 22 67.8398 22ZM68.9438 13.696C67.8718 13.696 67.3358 14.504 67.3358 16.12C67.3358 17.128 67.5438 17.784 67.9598 18.088C68.2318 18.296 68.5038 18.4 68.7758 18.4C69.0478 18.4 69.2878 18.376 69.4958 18.328V13.768C69.3038 13.72 69.1198 13.696 68.9438 13.696ZM80.1908 21.856C80.1908 21.984 79.4548 22.048 77.9828 22.048C76.5268 22.048 75.7988 21.992 75.7988 21.88V10.096C75.7988 9.984 76.5268 9.928 77.9828 9.928C79.4548 9.928 80.1908 9.976 80.1908 10.072V21.856ZM80.1908 8.656C80.1908 8.768 79.4548 8.824 77.9828 8.824C76.5268 8.824 75.7988 8.776 75.7988 8.68V5.224C75.7988 5.064 76.5268 4.984 77.9828 4.984C79.4548 4.984 80.1908 5.032 80.1908 5.128V8.656ZM87.3773 21.856C87.3773 21.968 86.8013 22.024 85.6493 22.024C84.0493 21.976 83.2493 21.888 83.2493 21.76V13.984H82.6253C82.2093 13.984 81.9373 13.632 81.8093 12.928C81.7773 12.72 81.7613 12.512 81.7613 12.304C81.7613 11.808 81.8573 11.312 82.0493 10.816C82.3373 10.112 82.7853 9.76 83.3933 9.76C84.0013 9.76 84.5453 9.904 85.0253 10.192C85.5053 10.48 85.8253 10.768 85.9853 11.056C86.9933 10.192 88.1933 9.76 89.5853 9.76C90.9773 9.76 91.9853 10.136 92.6093 10.888C93.2333 11.64 93.5453 12.872 93.5453 14.584V21.784C93.5453 21.976 92.8573 22.072 91.4813 22.072C90.1213 22.072 89.4413 21.976 89.4413 21.784V14.848C89.4413 14.048 89.1613 13.648 88.6013 13.648C88.4413 13.648 88.2173 13.72 87.9293 13.864C87.6413 13.992 87.4573 14.088 87.3773 14.152V21.856Z" fill="#95BA27"/>
<path d="M11.8636 30C11.514 30 11.1787 29.863 10.9315 29.6192C10.6843 29.3754 10.5455 29.0448 10.5455 28.7C10.5455 28.3552 10.6843 28.0246 10.9315 27.7808C11.1787 27.537 11.514 27.4 11.8636 27.4H22.8485C23.7808 27.4 24.6749 27.0348 25.3341 26.3846C25.9933 25.7345 26.3636 24.8528 26.3636 23.9333V10.0667C26.3636 9.14725 25.9933 8.26549 25.3341 7.61536C24.6749 6.96524 23.7808 6.6 22.8485 6.6H11.8636C11.514 6.6 11.1787 6.46304 10.9315 6.21924C10.6843 5.97544 10.5455 5.64478 10.5455 5.3C10.5455 4.95522 10.6843 4.62456 10.9315 4.38076C11.1787 4.13696 11.514 4 11.8636 4H22.8485C24.48 4 26.0446 4.63916 27.1983 5.77689C28.3519 6.91461 29 8.45769 29 10.0667V23.9333C29 25.5423 28.3519 27.0854 27.1983 28.2231C26.0446 29.3608 24.48 30 22.8485 30H11.8636ZM11.8478 10.4116C11.975 10.2957 12.124 10.2057 12.2865 10.1466C12.449 10.0875 12.6216 10.0606 12.7946 10.0674C12.9676 10.0741 13.1376 10.1145 13.2948 10.186C13.452 10.2576 13.5934 10.359 13.7108 10.4844L18.9836 16.1177C19.2086 16.3579 19.3336 16.673 19.3336 17C19.3336 17.327 19.2086 17.6421 18.9836 17.8823L13.7108 23.5156C13.5933 23.6409 13.4518 23.7421 13.2945 23.8135C13.1372 23.8849 12.9673 23.9251 12.7943 23.9317C12.6213 23.9383 12.4486 23.9112 12.2862 23.852C12.1239 23.7928 11.9749 23.7026 11.8478 23.5867C11.7208 23.4707 11.6181 23.3312 11.5457 23.1761C11.4733 23.021 11.4326 22.8533 11.4259 22.6827C11.4124 22.3382 11.5383 22.0024 11.7758 21.7493L15.0062 18.2983H1.31818C0.968578 18.2983 0.633294 18.1613 0.386087 17.9175C0.13888 17.6737 0 17.343 0 16.9983C0 16.6535 0.13888 16.3228 0.386087 16.079C0.633294 15.8352 0.968578 15.6983 1.31818 15.6983H15.0044L11.774 12.2489C11.6565 12.1235 11.5652 11.9765 11.5053 11.8163C11.4454 11.6561 11.4181 11.4858 11.425 11.3152C11.4318 11.1446 11.4727 10.9769 11.5453 10.8219C11.6178 10.6669 11.7206 10.5274 11.8478 10.4116Z" fill="#A7D129"/>
</svg>
