<svg width="34" height="34" viewBox="0 0 34 34" fill="none" xmlns="http://www.w3.org/2000/svg">
<g clip-path="url(#clip0_62_161)">
<path d="M28.8962 25.4051C28.6179 23.4446 28.0645 21.816 27.236 20.5195C26.4076 19.223 25.2407 18.4736 23.7355 18.2712C22.888 19.2072 21.8793 19.9377 20.7093 20.4626C19.5392 20.9875 18.3028 21.25 17 21.25C15.6972 21.25 14.4608 20.9875 13.2907 20.4626C12.1207 19.9377 11.112 19.2072 10.2645 18.2712C8.7593 18.4736 7.59245 19.223 6.76395 20.5195C5.93545 21.816 5.38207 23.4446 5.10379 25.4051C6.44457 27.3025 8.15848 28.8045 10.2455 29.9113C12.3326 31.018 14.5841 31.5714 17 31.5714C19.4159 31.5714 21.6674 31.018 23.7545 29.9113C25.8415 28.8045 27.5554 27.3025 28.8962 25.4051ZM24.2857 12.1429C24.2857 10.1317 23.5742 8.41462 22.1512 6.99163C20.7282 5.56864 19.0112 4.85714 17 4.85714C14.9888 4.85714 13.2718 5.56864 11.8488 6.99163C10.4258 8.41462 9.71429 10.1317 9.71429 12.1429C9.71429 14.154 10.4258 15.8711 11.8488 17.2941C13.2718 18.7171 14.9888 19.4286 17 19.4286C19.0112 19.4286 20.7282 18.7171 22.1512 17.2941C23.5742 15.8711 24.2857 14.154 24.2857 12.1429ZM34 17C34 19.3021 33.551 21.4998 32.6529 23.5932C31.7548 25.6866 30.55 27.4953 29.0385 29.0195C27.527 30.5437 25.7214 31.7548 23.6217 32.6529C21.5219 33.551 19.3147 34 17 34C14.6979 34 12.497 33.551 10.3973 32.6529C8.29762 31.7548 6.48884 30.5469 4.97098 29.029C3.45312 27.5112 2.24516 25.7024 1.3471 23.6027C0.449033 21.503 0 19.3021 0 17C0 14.6979 0.449033 12.497 1.3471 10.3973C2.24516 8.29762 3.45312 6.48884 4.97098 4.97098C6.48884 3.45312 8.29762 2.24516 10.3973 1.3471C12.497 0.449033 14.6979 0 17 0C19.3021 0 21.503 0.449033 23.6027 1.3471C25.7024 2.24516 27.5112 3.45312 29.029 4.97098C30.5469 6.48884 31.7548 8.29762 32.6529 10.3973C33.551 12.497 34 14.6979 34 17Z" fill="#A7D129"/>
</g>
<defs>
<clipPath id="clip0_62_161">
<rect width="34" height="34" fill="white"/>
</clipPath>
</defs>
</svg>
