<svg width="70" height="70" viewBox="0 0 70 70" fill="none" xmlns="http://www.w3.org/2000/svg">
<path d="M32.5208 9.91667L21.6708 27.65C20.475 29.575 21.875 32.0833 24.15 32.0833H45.8208C48.0958 32.0833 49.4958 29.575 48.3 27.65L37.4792 9.91667C37.2213 9.48977 36.8576 9.13669 36.4233 8.89161C35.989 8.64652 35.4987 8.51775 35 8.51775C34.5013 8.51775 34.011 8.64652 33.5767 8.89161C33.1423 9.13669 32.7786 9.48977 32.5208 9.91667Z" fill="#A7D129"/>
<path d="M51.0416 64.1667C58.2904 64.1667 64.1666 58.2904 64.1666 51.0417C64.1666 43.7929 58.2904 37.9167 51.0416 37.9167C43.7929 37.9167 37.9166 43.7929 37.9166 51.0417C37.9166 58.2904 43.7929 64.1667 51.0416 64.1667Z" fill="#A7D129"/>
<path d="M11.6667 62.7083H29.1667C30.7708 62.7083 32.0833 61.3958 32.0833 59.7917V42.2917C32.0833 40.6875 30.7708 39.375 29.1667 39.375H11.6667C10.0625 39.375 8.75 40.6875 8.75 42.2917V59.7917C8.75 61.3958 10.0625 62.7083 11.6667 62.7083Z" fill="#A7D129"/>
</svg>
