<svg width="22" height="22" viewBox="0 0 22 22" fill="none" xmlns="http://www.w3.org/2000/svg">
<g clip-path="url(#clip0_267_11)">
<g filter="url(#filter0_d_267_11)">
<path d="M9.16671 20.1667H8.02087C6.38059 20.1642 4.80819 19.5116 3.64833 18.3517C2.48847 17.1919 1.8358 15.6194 1.83337 13.9792V8.02083C1.8358 6.38055 2.48847 4.80814 3.64833 3.64828C4.80819 2.48843 6.38059 1.83575 8.02087 1.83333H13.9792C15.6195 1.83575 17.1919 2.48843 18.3518 3.64828C19.5116 4.80814 20.1643 6.38055 20.1667 8.02083V9.16666C20.1667 9.349 20.0943 9.52387 19.9653 9.6528C19.8364 9.78173 19.6615 9.85416 19.4792 9.85416C19.2969 9.85416 19.122 9.78173 18.9931 9.6528C18.8641 9.52387 18.7917 9.349 18.7917 9.16666V8.02083C18.7893 6.74522 18.2815 5.52255 17.3795 4.62055C16.4775 3.71856 15.2548 3.21075 13.9792 3.20833H8.02087C6.74526 3.21075 5.52259 3.71856 4.6206 4.62055C3.7186 5.52255 3.2108 6.74522 3.20837 8.02083V13.9792C3.2108 15.2548 3.7186 16.4774 4.6206 17.3794C5.52259 18.2814 6.74526 18.7892 8.02087 18.7917H9.16671C9.34904 18.7917 9.52391 18.8641 9.65284 18.993C9.78177 19.122 9.85421 19.2968 9.85421 19.4792C9.85421 19.6615 9.78177 19.8364 9.65284 19.9653C9.52391 20.0942 9.34904 20.1667 9.16671 20.1667Z" fill="#A7D129"/>
<path d="M19.0417 8.02083V8.02035C19.0392 6.6786 18.505 5.39254 17.5563 4.44378C16.6075 3.49501 15.3214 2.96088 13.9797 2.95833H13.9792L8.02087 2.95833L8.0204 2.95833C6.67865 2.96088 5.39258 3.49501 4.44382 4.44378C3.49506 5.39254 2.96092 6.6786 2.95837 8.02035V8.02083L2.95837 13.9792L2.95837 13.9796C2.96092 15.3214 3.49506 16.6075 4.44382 17.5562C5.39258 18.505 6.67865 19.0391 8.0204 19.0417H8.02087H9.16671C9.28274 19.0417 9.39402 19.0878 9.47607 19.1698C9.55811 19.2519 9.60421 19.3631 9.60421 19.4792C9.60421 19.5952 9.55811 19.7065 9.47607 19.7885C9.39402 19.8706 9.28274 19.9167 9.16671 19.9167H8.02124C6.44714 19.9143 4.93817 19.288 3.82511 18.1749C2.71209 17.0619 2.08575 15.553 2.08337 13.979V8.02102C2.08575 6.44698 2.71209 4.93808 3.82511 3.82506C4.93813 2.71204 6.44702 2.0857 8.02106 2.08333H13.979C15.5531 2.0857 17.062 2.71204 18.175 3.82506C19.288 4.93812 19.9144 6.44709 19.9167 8.0212V9.16666C19.9167 9.28269 19.8706 9.39397 19.7886 9.47602C19.7065 9.55807 19.5952 9.60416 19.4792 9.60416C19.3632 9.60416 19.2519 9.55807 19.1698 9.47602C19.0878 9.39397 19.0417 9.28269 19.0417 9.16666V8.02083Z" stroke="black" stroke-width="0.5"/>
</g>
<g filter="url(#filter1_d_267_11)">
<path d="M19.7266 13.3192C19.7094 13.6998 19.5671 14.0642 19.3219 14.3559C19.0766 14.6476 18.742 14.8502 18.37 14.9325L15.4733 15.4092L15.3908 15.4917C15.355 15.5285 15.3269 15.5721 15.3083 15.62L14.85 18.2875C14.756 18.6717 14.5367 19.0136 14.2266 19.2592C13.9383 19.4872 13.5855 19.6187 13.2183 19.635H13.1358C12.78 19.6314 12.4334 19.5212 12.1409 19.3186C11.8483 19.116 11.6233 18.8302 11.495 18.4983L8.93746 11.2567C8.82372 10.9436 8.80213 10.6045 8.87524 10.2796C8.94836 9.95465 9.1131 9.65749 9.34996 9.42333C9.58388 9.18472 9.88407 9.02186 10.2116 8.95583C10.5378 8.88101 10.8788 8.90332 11.1925 9.02L18.5258 11.5683C18.885 11.6941 19.1941 11.9324 19.4071 12.2478C19.6201 12.5633 19.7257 12.939 19.7083 13.3192H19.7266Z" fill="#A7D129"/>
<path d="M19.4586 13.3077L19.4479 13.5401C19.3984 13.7802 19.2899 14.0055 19.1305 14.195C18.9221 14.4429 18.6382 14.6157 18.3224 14.687L15.4327 15.1625L15.3534 15.1755L15.2965 15.2324L15.214 15.3149L15.214 15.3149L15.2116 15.3173C15.1524 15.3781 15.1061 15.4503 15.0753 15.5294L15.0662 15.5528L15.0619 15.5777L14.6051 18.2363C14.5233 18.5631 14.3357 18.8539 14.0714 19.0632C13.8257 19.2575 13.5254 19.37 13.2125 19.385H13.1371C12.8317 19.3817 12.5343 19.287 12.2832 19.1131C12.0328 18.9396 11.84 18.6953 11.7294 18.4115L9.17319 11.1734L9.1732 11.1734L9.17243 11.1713C9.07502 10.9032 9.05653 10.6128 9.11915 10.3345C9.18176 10.0562 9.32286 9.80166 9.52572 9.60111L9.52574 9.60114L9.52848 9.59834C9.72735 9.39549 9.98255 9.25703 10.261 9.2009L10.261 9.20099L10.2675 9.1995C10.5461 9.1356 10.8374 9.15465 11.1053 9.25431L11.1053 9.25437L11.1104 9.25614L18.4432 11.8043C18.4433 11.8043 18.4434 11.8044 18.4435 11.8044C18.7518 11.9125 19.0171 12.117 19.1999 12.3878C19.3828 12.6586 19.4735 12.9812 19.4586 13.3077Z" stroke="black" stroke-width="0.5"/>
</g>
</g>
<defs>
<filter id="filter0_d_267_11" x="-2.16663" y="1.83333" width="26.3334" height="26.3333" filterUnits="userSpaceOnUse" color-interpolation-filters="sRGB">
<feFlood flood-opacity="0" result="BackgroundImageFix"/>
<feColorMatrix in="SourceAlpha" type="matrix" values="0 0 0 0 0 0 0 0 0 0 0 0 0 0 0 0 0 0 127 0" result="hardAlpha"/>
<feOffset dy="4"/>
<feGaussianBlur stdDeviation="2"/>
<feComposite in2="hardAlpha" operator="out"/>
<feColorMatrix type="matrix" values="0 0 0 0 0 0 0 0 0 0 0 0 0 0 0 0 0 0 0.25 0"/>
<feBlend mode="normal" in2="BackgroundImageFix" result="effect1_dropShadow_267_11"/>
<feBlend mode="normal" in="SourceGraphic" in2="effect1_dropShadow_267_11" result="shape"/>
</filter>
<filter id="filter1_d_267_11" x="4.83276" y="8.91245" width="18.8938" height="18.7225" filterUnits="userSpaceOnUse" color-interpolation-filters="sRGB">
<feFlood flood-opacity="0" result="BackgroundImageFix"/>
<feColorMatrix in="SourceAlpha" type="matrix" values="0 0 0 0 0 0 0 0 0 0 0 0 0 0 0 0 0 0 127 0" result="hardAlpha"/>
<feOffset dy="4"/>
<feGaussianBlur stdDeviation="2"/>
<feComposite in2="hardAlpha" operator="out"/>
<feColorMatrix type="matrix" values="0 0 0 0 0 0 0 0 0 0 0 0 0 0 0 0 0 0 0.25 0"/>
<feBlend mode="normal" in2="BackgroundImageFix" result="effect1_dropShadow_267_11"/>
<feBlend mode="normal" in="SourceGraphic" in2="effect1_dropShadow_267_11" result="shape"/>
</filter>
<clipPath id="clip0_267_11">
<rect width="22" height="22" fill="white"/>
</clipPath>
</defs>
</svg>
