<svg width="22" height="22" viewBox="0 0 22 22" fill="none" xmlns="http://www.w3.org/2000/svg">
<path d="M9.16667 20.1667H8.02084C6.38055 20.1642 4.80815 19.5116 3.64829 18.3517C2.48843 17.1919 1.83576 15.6194 1.83334 13.9792V8.02083C1.83576 6.38055 2.48843 4.80814 3.64829 3.64829C4.80815 2.48843 6.38055 1.83576 8.02084 1.83333H13.9792C15.6195 1.83576 17.1919 2.48843 18.3517 3.64829C19.5116 4.80814 20.1642 6.38055 20.1667 8.02083V9.16667C20.1667 9.349 20.0942 9.52387 19.9653 9.6528C19.8364 9.78173 19.6615 9.85417 19.4792 9.85417C19.2968 9.85417 19.122 9.78173 18.993 9.6528C18.8641 9.52387 18.7917 9.349 18.7917 9.16667V8.02083C18.7892 6.74522 18.2814 5.52255 17.3794 4.62056C16.4775 3.71856 15.2548 3.21075 13.9792 3.20833H8.02084C6.74523 3.21075 5.52255 3.71856 4.62056 4.62056C3.71857 5.52255 3.21076 6.74522 3.20834 8.02083V13.9792C3.21076 15.2548 3.71857 16.4774 4.62056 17.3794C5.52255 18.2814 6.74523 18.7892 8.02084 18.7917H9.16667C9.34901 18.7917 9.52387 18.8641 9.6528 18.993C9.78174 19.122 9.85417 19.2968 9.85417 19.4792C9.85417 19.6615 9.78174 19.8364 9.6528 19.9653C9.52387 20.0942 9.34901 20.1667 9.16667 20.1667Z" fill="#A7D129"/>
<path d="M19.7267 13.3192C19.7094 13.6999 19.5672 14.0642 19.3219 14.3559C19.0767 14.6476 18.7421 14.8502 18.37 14.9325L15.4733 15.4092L15.3908 15.4917C15.355 15.5285 15.327 15.5721 15.3083 15.62L14.85 18.2875C14.7561 18.6717 14.5367 19.0136 14.2267 19.2592C13.9383 19.4872 13.5856 19.6187 13.2183 19.635H13.1358C12.78 19.6315 12.4334 19.5212 12.1409 19.3186C11.8484 19.116 11.6234 18.8302 11.495 18.4983L8.9375 11.2567C8.82376 10.9436 8.80217 10.6045 8.87528 10.2796C8.94839 9.95465 9.11314 9.65749 9.35 9.42333C9.58392 9.18472 9.88411 9.02186 10.2117 8.95583C10.5379 8.88102 10.8788 8.90332 11.1925 9.02L18.5258 11.5683C18.885 11.6941 19.1941 11.9324 19.4071 12.2479C19.6202 12.5633 19.7258 12.939 19.7083 13.3192H19.7267Z" fill="#A7D129"/>
</svg>
