<svg width="26" height="26" viewBox="0 0 26 26" fill="none" xmlns="http://www.w3.org/2000/svg">
<g clip-path="url(#clip0_388_59)">
<path d="M20.0417 7.07013H18.0651V8.55258C18.0651 8.69535 18.037 8.83671 17.9824 8.96861C17.9277 9.10051 17.8477 9.22035 17.7467 9.3213C17.6458 9.42225 17.5259 9.50233 17.394 9.55696C17.2621 9.6116 17.1208 9.63972 16.978 9.63972C16.8352 9.63972 16.6939 9.6116 16.562 9.55696C16.4301 9.50233 16.3102 9.42225 16.2093 9.3213C16.1083 9.22035 16.0282 9.10051 15.9736 8.96861C15.919 8.83671 15.8909 8.69535 15.8909 8.55258V7.07013H10.134V8.55258C10.134 8.84091 10.0194 9.11742 9.81557 9.3213C9.61169 9.52518 9.33518 9.63972 9.04685 9.63972C8.75852 9.63972 8.48201 9.52518 8.27813 9.3213C8.07425 9.11742 7.95971 8.84091 7.95971 8.55258V7.07013H5.98311C5.86551 7.06879 5.74884 7.09104 5.63999 7.13558C5.53115 7.18012 5.43234 7.24603 5.34941 7.32942C5.26648 7.41281 5.20112 7.51198 5.15719 7.62107C5.11325 7.73016 5.09164 7.84695 5.09363 7.96454V19.0237C5.09167 19.1392 5.11248 19.2539 5.15488 19.3614C5.19728 19.4689 5.26044 19.5669 5.34074 19.65C5.42104 19.7331 5.51692 19.7995 5.6229 19.8455C5.72888 19.8915 5.84288 19.9161 5.9584 19.9181H20.0417C20.1572 19.9161 20.2712 19.8915 20.3772 19.8455C20.4832 19.7995 20.5791 19.7331 20.6594 19.65C20.7397 19.5669 20.8029 19.4689 20.8453 19.3614C20.8876 19.2539 20.9085 19.1392 20.9065 19.0237V7.96454C20.9085 7.84903 20.8876 7.73426 20.8453 7.62679C20.8029 7.51932 20.7397 7.42126 20.6594 7.3382C20.5791 7.25514 20.4832 7.18872 20.3772 7.14272C20.2712 7.09672 20.1572 7.07206 20.0417 7.07013ZM9.04685 16.9532H8.05855V15.9649H9.04685V16.9532ZM9.04685 14.4824H8.05855V13.4941H9.04685V14.4824ZM9.04685 12.0116H8.05855V11.0233H9.04685V12.0116ZM12.0118 16.9532H11.0235V15.9649H12.0118V16.9532ZM12.0118 14.4824H11.0235V13.4941H12.0118V14.4824ZM12.0118 12.0116H11.0235V11.0233H12.0118V12.0116ZM14.9767 16.9532H13.9884V15.9649H14.9767V16.9532ZM14.9767 14.4824H13.9884V13.4941H14.9767V14.4824ZM14.9767 12.0116H13.9884V11.0233H14.9767V12.0116ZM17.9416 16.9532H16.9533V15.9649H17.9416V16.9532ZM17.9416 14.4824H16.9533V13.4941H17.9416V14.4824ZM17.9416 12.0116H16.9533V11.0233H17.9416V12.0116Z" fill="#A7D129"/>
<path d="M9.04664 9.04672C9.1777 9.04672 9.30339 8.99466 9.39606 8.90199C9.48873 8.80932 9.54079 8.68363 9.54079 8.55257V5.58766C9.54079 5.4566 9.48873 5.33091 9.39606 5.23824C9.30339 5.14557 9.1777 5.09351 9.04664 5.09351C8.91559 5.09351 8.7899 5.14557 8.69722 5.23824C8.60455 5.33091 8.55249 5.4566 8.55249 5.58766V8.55257C8.55249 8.68363 8.60455 8.80932 8.69722 8.90199C8.7899 8.99466 8.91559 9.04672 9.04664 9.04672Z" fill="#A7D129"/>
<path d="M16.9531 9.04672C17.0842 9.04672 17.2099 8.99466 17.3026 8.90199C17.3952 8.80932 17.4473 8.68363 17.4473 8.55257V5.58766C17.4473 5.4566 17.3952 5.33091 17.3026 5.23824C17.2099 5.14557 17.0842 5.09351 16.9531 5.09351C16.8221 5.09351 16.6964 5.14557 16.6037 5.23824C16.511 5.33091 16.459 5.4566 16.459 5.58766V8.55257C16.459 8.68363 16.511 8.80932 16.6037 8.90199C16.6964 8.99466 16.8221 9.04672 16.9531 9.04672Z" fill="#A7D129"/>
</g>
<circle cx="13" cy="13" r="12" stroke="#A7D129" stroke-width="2"/>
<defs>
<clipPath id="clip0_388_59">
<rect width="17.7895" height="17.7895" fill="white" transform="translate(4.10522 4.10522)"/>
</clipPath>
</defs>
</svg>
