<svg width="26" height="26" viewBox="0 0 26 26" fill="none" xmlns="http://www.w3.org/2000/svg">
<circle cx="13" cy="13" r="12" stroke="#A7D129" stroke-width="2"/>
<path d="M15.2216 6.15784C16.7919 6.15701 18.2996 6.82625 19.4197 8.0213C20.5399 9.21635 21.1827 10.8415 21.2096 12.5464C21.2365 14.2513 20.6454 15.8994 19.5637 17.1355C18.4819 18.3715 16.9962 19.0965 15.4268 19.1541L15.2216 19.1578H10.0941C8.52383 19.1587 7.01609 18.4894 5.89597 17.2944C4.77584 16.0993 4.13303 14.4742 4.10611 12.7693C4.07918 11.0644 4.6703 9.41626 5.75204 8.18021C6.83377 6.94416 8.31949 6.21918 9.88891 6.16155L10.0933 6.15784H15.2216ZM15.0095 13.1221C14.726 13.1221 14.4541 13.2444 14.2536 13.4621C14.0532 13.6798 13.9406 13.975 13.9406 14.2828C13.9406 14.5907 14.0532 14.8859 14.2536 15.1036C14.4541 15.3213 14.726 15.4436 15.0095 15.4436C15.293 15.4436 15.5649 15.3213 15.7653 15.1036C15.9658 14.8859 16.0784 14.5907 16.0784 14.2828C16.0784 13.975 15.9658 13.6798 15.7653 13.4621C15.5649 13.2444 15.293 13.1221 15.0095 13.1221ZM9.23729 9.87212C9.0823 9.87213 8.93257 9.93308 8.81576 10.0437C8.69896 10.1543 8.623 10.3071 8.60192 10.4738L8.59593 10.5686V11.9596H7.31322C7.14956 11.9577 6.99147 12.0239 6.8713 12.1446C6.75113 12.2652 6.67798 12.4312 6.66683 12.6085C6.65568 12.7858 6.70738 12.961 6.81133 13.0983C6.91529 13.2356 7.06363 13.3245 7.22599 13.3468L7.31322 13.3533L8.59593 13.3524V14.7471C8.59598 14.9236 8.65771 15.0934 8.76865 15.2224C8.87958 15.3513 9.03145 15.4297 9.19357 15.4417C9.35569 15.4537 9.51597 15.3985 9.64203 15.2871C9.76808 15.1758 9.85051 15.0166 9.87266 14.8418L9.87864 14.7471V13.3524H11.1614C11.3228 13.3508 11.4778 13.283 11.5953 13.1627C11.7128 13.0425 11.7842 12.8785 11.7952 12.7035C11.8062 12.5286 11.7561 12.3555 11.6547 12.219C11.5534 12.0825 11.4084 11.9925 11.2486 11.967L11.1614 11.9605L9.87864 11.9596V10.5686C9.87864 10.3838 9.81107 10.2067 9.69079 10.0761C9.57052 9.9455 9.40739 9.87212 9.23729 9.87212ZM16.7198 9.87212C16.4363 9.87212 16.1644 9.99441 15.9639 10.2121C15.7635 10.4298 15.6509 10.725 15.6509 11.0328C15.6509 11.3407 15.7635 11.6359 15.9639 11.8536C16.1644 12.0713 16.4363 12.1936 16.7198 12.1936C17.0033 12.1936 17.2752 12.0713 17.4756 11.8536C17.6761 11.6359 17.7887 11.3407 17.7887 11.0328C17.7887 10.725 17.6761 10.4298 17.4756 10.2121C17.2752 9.99441 17.0033 9.87212 16.7198 9.87212Z" fill="#A7D129"/>
</svg>
