<svg width="50" height="50" viewBox="0 0 50 50" fill="none" xmlns="http://www.w3.org/2000/svg">
<path d="M25 19.7917C23.6186 19.7917 22.2939 20.3404 21.3171 21.3172C20.3404 22.2939 19.7916 23.6187 19.7916 25C19.7916 26.3813 20.3404 27.7061 21.3171 28.6828C22.2939 29.6596 23.6186 30.2083 25 30.2083C26.3813 30.2083 27.7061 29.6596 28.6828 28.6828C29.6596 27.7061 30.2083 26.3813 30.2083 25C30.2083 23.6187 29.6596 22.2939 28.6828 21.3172C27.7061 20.3404 26.3813 19.7917 25 19.7917ZM25 27.0833C24.4474 27.0833 23.9175 26.8638 23.5268 26.4731C23.1361 26.0824 22.9166 25.5525 22.9166 25C22.9166 24.4475 23.1361 23.9176 23.5268 23.5269C23.9175 23.1362 24.4474 22.9167 25 22.9167C25.5525 22.9167 26.0824 23.1362 26.4731 23.5269C26.8638 23.9176 27.0833 24.4475 27.0833 25C27.0833 25.5525 26.8638 26.0824 26.4731 26.4731C26.0824 26.8638 25.5525 27.0833 25 27.0833ZM25 19.7917C23.6186 19.7917 22.2939 20.3404 21.3171 21.3172C20.3404 22.2939 19.7916 23.6187 19.7916 25C19.7916 26.3813 20.3404 27.7061 21.3171 28.6828C22.2939 29.6596 23.6186 30.2083 25 30.2083C26.3813 30.2083 27.7061 29.6596 28.6828 28.6828C29.6596 27.7061 30.2083 26.3813 30.2083 25C30.2083 23.6187 29.6596 22.2939 28.6828 21.3172C27.7061 20.3404 26.3813 19.7917 25 19.7917ZM25 27.0833C24.4474 27.0833 23.9175 26.8638 23.5268 26.4731C23.1361 26.0824 22.9166 25.5525 22.9166 25C22.9166 24.4475 23.1361 23.9176 23.5268 23.5269C23.9175 23.1362 24.4474 22.9167 25 22.9167C25.5525 22.9167 26.0824 23.1362 26.4731 23.5269C26.8638 23.9176 27.0833 24.4475 27.0833 25C27.0833 25.5525 26.8638 26.0824 26.4731 26.4731C26.0824 26.8638 25.5525 27.0833 25 27.0833ZM25 4.16667C22.2641 4.16667 19.555 4.70554 17.0274 5.75251C14.4998 6.79948 12.2031 8.33405 10.2686 10.2686C6.36156 14.1756 4.16663 19.4747 4.16663 25C4.16663 30.5253 6.36156 35.8244 10.2686 39.7314C12.2031 41.6659 14.4998 43.2005 17.0274 44.2475C19.555 45.2945 22.2641 45.8333 25 45.8333C30.5253 45.8333 35.8243 43.6384 39.7314 39.7314C43.6384 35.8244 45.8333 30.5253 45.8333 25C45.8333 22.2641 45.2944 19.555 44.2475 17.0274C43.2005 14.4998 41.6659 12.2032 39.7314 10.2686C37.7968 8.33405 35.5002 6.79948 32.9725 5.75251C30.4449 4.70554 27.7358 4.16667 25 4.16667ZM25 33.3333C19.5208 33.3333 14.5833 30.0625 12.5 25C13.8835 21.6866 16.5254 19.0578 19.8456 17.6906C23.1658 16.3235 26.8928 16.3299 30.2083 17.7083C33.5028 19.0859 36.1224 21.7055 37.5 25C35.4166 30.0625 30.4791 33.3333 25 33.3333ZM25 19.7917C23.6186 19.7917 22.2939 20.3404 21.3171 21.3172C20.3404 22.2939 19.7916 23.6187 19.7916 25C19.7916 26.3813 20.3404 27.7061 21.3171 28.6828C22.2939 29.6596 23.6186 30.2083 25 30.2083C26.3813 30.2083 27.7061 29.6596 28.6828 28.6828C29.6596 27.7061 30.2083 26.3813 30.2083 25C30.2083 23.6187 29.6596 22.2939 28.6828 21.3172C27.7061 20.3404 26.3813 19.7917 25 19.7917ZM25 27.0833C24.4474 27.0833 23.9175 26.8638 23.5268 26.4731C23.1361 26.0824 22.9166 25.5525 22.9166 25C22.9166 24.4475 23.1361 23.9176 23.5268 23.5269C23.9175 23.1362 24.4474 22.9167 25 22.9167C25.5525 22.9167 26.0824 23.1362 26.4731 23.5269C26.8638 23.9176 27.0833 24.4475 27.0833 25C27.0833 25.5525 26.8638 26.0824 26.4731 26.4731C26.0824 26.8638 25.5525 27.0833 25 27.0833Z" fill="#95BA27"/>
</svg>
