<svg width="70" height="70" viewBox="0 0 70 70" fill="none" xmlns="http://www.w3.org/2000/svg">
<path d="M26.25 13.75C20.6141 13.75 15.2091 15.9888 11.224 19.974C7.23883 23.9591 5 29.3641 5 35C5 40.6359 7.23883 46.0409 11.224 50.026C15.2091 54.0112 20.6141 56.25 26.25 56.25H43.75C49.3858 56.25 54.7909 54.0112 58.776 50.026C62.7612 46.0409 65 40.6359 65 35C65 29.3641 62.7612 23.9591 58.776 19.974C54.7909 15.9888 49.3858 13.75 43.75 13.75H26.25ZM45 41.25C45 42.2446 44.6049 43.1984 43.9016 43.9016C43.1984 44.6049 42.2446 45 41.25 45C40.2554 45 39.3016 44.6049 38.5984 43.9016C37.8951 43.1984 37.5 42.2446 37.5 41.25C37.5 40.2554 37.8951 39.3016 38.5984 38.5983C39.3016 37.8951 40.2554 37.5 41.25 37.5C42.2446 37.5 43.1984 37.8951 43.9016 38.5983C44.6049 39.3016 45 40.2554 45 41.25ZM48.75 35C48.2575 35 47.7699 34.903 47.3149 34.7145C46.86 34.5261 46.4466 34.2499 46.0984 33.9017C45.7501 33.5534 45.4739 33.14 45.2855 32.6851C45.097 32.2301 45 31.7425 45 31.25C45 30.7575 45.097 30.2699 45.2855 29.8149C45.4739 29.36 45.7501 28.9466 46.0984 28.5983C46.4466 28.2501 46.86 27.9739 47.3149 27.7855C47.7699 27.597 48.2575 27.5 48.75 27.5C49.7446 27.5 50.6984 27.8951 51.4016 28.5983C52.1049 29.3016 52.5 30.2554 52.5 31.25C52.5 32.2446 52.1049 33.1984 51.4016 33.9017C50.6984 34.6049 49.7446 35 48.75 35ZM13.75 34.375C13.75 33.8777 13.9475 33.4008 14.2992 33.0492C14.6508 32.6975 15.1277 32.5 15.625 32.5H20V28.125C20 27.6277 20.1975 27.1508 20.5492 26.7992C20.9008 26.4475 21.3777 26.25 21.875 26.25C22.3723 26.25 22.8492 26.4475 23.2008 26.7992C23.5525 27.1508 23.75 27.6277 23.75 28.125V32.5H28.125C28.6223 32.5 29.0992 32.6975 29.4508 33.0492C29.8025 33.4008 30 33.8777 30 34.375C30 34.8723 29.8025 35.3492 29.4508 35.7008C29.0992 36.0525 28.6223 36.25 28.125 36.25H23.75V40.625C23.75 41.1223 23.5525 41.5992 23.2008 41.9508C22.8492 42.3025 22.3723 42.5 21.875 42.5C21.3777 42.5 20.9008 42.3025 20.5492 41.9508C20.1975 41.5992 20 41.1223 20 40.625V36.25H15.625C15.1277 36.25 14.6508 36.0525 14.2992 35.7008C13.9475 35.3492 13.75 34.8723 13.75 34.375Z" fill="#A7D129"/>
</svg>
