<svg width="28" height="28" viewBox="0 0 28 28" fill="none" xmlns="http://www.w3.org/2000/svg">
<g clip-path="url(#clip0_92_69)">
<path d="M12.2501 2.33325C14.112 2.33313 15.9364 2.85721 17.5144 3.84552C19.0924 4.83383 20.3603 6.24645 21.173 7.92169C21.9857 9.59694 22.3103 11.4671 22.1097 13.3183C21.9091 15.1694 21.1914 16.9266 20.0387 18.3889L24.2994 22.6496C24.5119 22.8696 24.6295 23.1643 24.6268 23.4702C24.6242 23.7761 24.5015 24.0687 24.2852 24.285C24.0689 24.5013 23.7763 24.624 23.4704 24.6267C23.1645 24.6294 22.8698 24.5118 22.6497 24.2992L18.3891 20.0386C17.1471 21.0174 15.689 21.685 14.1366 21.9857C12.5841 22.2863 10.9823 22.2114 9.46465 21.7671C7.94704 21.3228 6.55768 20.522 5.4125 19.4316C4.26731 18.3411 3.39949 16.9926 2.88146 15.4986C2.36343 14.0046 2.21019 12.4083 2.43454 10.843C2.6589 9.27766 3.25433 7.78869 4.17116 6.5003C5.08799 5.21191 6.29964 4.16145 7.70502 3.43656C9.11039 2.71168 10.6687 2.33339 12.2501 2.33325ZM12.2501 4.66659C10.2388 4.66659 8.30998 5.46554 6.88783 6.88769C5.46567 8.30984 4.66672 10.2387 4.66672 12.2499C4.66672 14.2611 5.46567 16.19 6.88783 17.6121C8.30998 19.0343 10.2388 19.8333 12.2501 19.8333C14.2613 19.8333 16.1901 19.0343 17.6123 17.6121C19.0344 16.19 19.8334 14.2611 19.8334 12.2499C19.8334 10.2387 19.0344 8.30984 17.6123 6.88769C16.1901 5.46554 14.2613 4.66659 12.2501 4.66659ZM12.2501 5.83325C13.9519 5.83325 15.584 6.50929 16.7873 7.71265C17.9907 8.91601 18.6667 10.5481 18.6667 12.2499C18.6667 13.9517 17.9907 15.5838 16.7873 16.7872C15.584 17.9905 13.9519 18.6666 12.2501 18.6666C10.5482 18.6666 8.91614 17.9905 7.71278 16.7872C6.50943 15.5838 5.83339 13.9517 5.83339 12.2499C5.83339 10.5481 6.50943 8.91601 7.71278 7.71265C8.91614 6.50929 10.5482 5.83325 12.2501 5.83325Z" fill="black"/>
</g>
<defs>
<clipPath id="clip0_92_69">
<rect width="28" height="28" fill="white"/>
</clipPath>
</defs>
</svg>
