<svg width="34" height="34" viewBox="0 0 34 34" fill="none" xmlns="http://www.w3.org/2000/svg">
<path d="M17 0C26.3891 0 34 7.6109 34 17C34 26.3891 26.3891 34 17 34C7.6109 34 0 26.3891 0 17C0 7.6109 7.6109 0 17 0ZM23.12 8.84C22.9414 8.70605 22.7382 8.60859 22.5219 8.55319C22.3056 8.49778 22.0806 8.48551 21.8596 8.51709C21.6386 8.54866 21.426 8.62345 21.2339 8.73719C21.0418 8.85094 20.8739 9.0014 20.74 9.18L17 14.1661L13.26 9.18C13.1261 9.0014 12.9582 8.85094 12.7661 8.73719C12.574 8.62345 12.3614 8.54866 12.1404 8.51709C11.9194 8.48551 11.6944 8.49778 11.4781 8.55319C11.2618 8.60859 11.0586 8.70605 10.88 8.84C10.7014 8.97395 10.5509 9.14176 10.4372 9.33386C10.3235 9.52596 10.2487 9.73858 10.2171 9.95958C10.1855 10.1806 10.1978 10.4056 10.2532 10.6219C10.3086 10.8382 10.4061 11.0414 10.54 11.22L14.875 17L10.54 22.78C10.2695 23.1407 10.1533 23.5941 10.2171 24.0404C10.2808 24.4868 10.5193 24.8895 10.88 25.16C11.2407 25.4305 11.6941 25.5467 12.1404 25.4829C12.5868 25.4192 12.9895 25.1807 13.26 24.82L17 19.8339L20.74 24.82C21.0105 25.1807 21.4132 25.4192 21.8596 25.4829C22.3059 25.5467 22.7593 25.4305 23.12 25.16C23.4807 24.8895 23.7192 24.4868 23.7829 24.0404C23.8467 23.5941 23.7305 23.1407 23.46 22.78L19.125 17L23.46 11.22C23.5939 11.0414 23.6914 10.8382 23.7468 10.6219C23.8022 10.4056 23.8145 10.1806 23.7829 9.95958C23.7513 9.73858 23.6765 9.52596 23.5628 9.33386C23.4491 9.14176 23.2986 8.97395 23.12 8.84Z" fill="#A7D129"/>
</svg>
