<svg width="38" height="38" viewBox="0 0 38 38" fill="none" xmlns="http://www.w3.org/2000/svg">
<circle cx="19" cy="19" r="17.5" stroke="black" stroke-width="3"/>
<path d="M17.9956 18.9783L18.1895 18.4238C18.2287 18.3121 18.3149 18.218 18.4304 18.1609C18.5459 18.1038 18.6818 18.0881 18.81 18.1171L19.5521 18.2848M14.8067 12.5106C13.937 12.7911 13.1399 13.2228 12.4624 13.7803C12.0152 14.1494 11.6295 14.5727 11.317 15.0376M14.8067 12.5106C14.8067 12.5106 16.9682 8 17.7679 8C17.8415 8 17.9176 8.01325 17.9963 8.03974C19.0722 8.40108 20.5739 11.1242 21.4754 13.0353M14.8067 12.5106C16.1134 12.0877 17.5234 11.9743 18.8951 12.1816M11.317 15.0376C8.93339 16.1676 5.96794 17.2957 6.00026 18.0097C6.00216 18.0322 6.00544 18.0546 6.0101 18.0768M11.317 15.0376C10.9607 15.5709 10.8715 16.663 10.9326 17.7868C10.9326 17.7868 7.73175 17.5229 6.0101 18.0768M21.4754 13.0353C22.2117 13.4376 22.8414 13.975 23.3222 14.6111C25.0762 16.9505 24.982 19.7345 23.0376 21.8442M21.4754 13.0353C20.6858 12.6062 19.8095 12.3165 18.8951 12.1822C18.0701 11.3732 17.9956 8.03974 17.9956 8.03974M23.0376 21.8442C22.8886 22.0061 22.7288 22.1642 22.5583 22.3173C20.9589 23.7528 18.7609 24.3159 16.6647 24.0384M23.0376 21.8442L32 24.9554M6.0101 18.0768C6.19983 18.8082 8.86242 20.1449 11.6627 21.1538M11.6627 21.1538C11.9698 21.5648 12.3345 21.956 12.7541 22.3173C13.8203 23.24 15.1887 23.8423 16.6647 24.0384M11.6627 21.1538C11.336 20.7167 11.0106 19.226 10.9319 17.7868M16.6647 24.0384C16.5803 25.6005 17.9394 30 17.9394 30M13.2516 18.0774C13.9016 19.303 14.1279 19.1217 14.7561 18.9056C15.6872 18.5859 15.2972 18.3183 14.8896 17.559C14.2712 16.4091 13.8974 16.4575 13.3647 16.6711C12.8328 16.8847 12.7548 17.2479 13.2516 18.0774ZM19.7671 15.538C19.5029 15.1022 19.1698 14.6104 19.6582 14.3068C20.4172 13.7518 20.5099 14.2416 21.0587 14.8973C21.6785 15.6386 21.9744 15.8137 21.2506 16.2899C20.6041 16.7152 20.1691 16.2011 19.7671 15.538Z" stroke="black" stroke-linecap="round" stroke-linejoin="round"/>
</svg>
