<svg width="38" height="38" viewBox="0 0 38 38" fill="none" xmlns="http://www.w3.org/2000/svg">
<g clip-path="url(#clip0_65_75)">
<path d="M19 0C21.5729 0 24.0327 0.50186 26.3795 1.50558C28.7262 2.5093 30.7478 3.85937 32.4442 5.5558C34.1406 7.25223 35.4907 9.27381 36.4944 11.6205C37.4981 13.9673 38 16.4271 38 19C38 21.5588 37.5017 24.0115 36.505 26.3583C35.5084 28.705 34.1618 30.7266 32.4654 32.423C30.769 34.1194 28.7474 35.473 26.4007 36.4838C24.0539 37.4946 21.5871 38 19 38C16.4129 38 13.9461 37.4981 11.5993 36.4944C9.2526 35.4907 7.23456 34.1371 5.5452 32.4336C3.85584 30.7301 2.5093 28.7085 1.50558 26.3689C0.50186 24.0292 0 21.5729 0 19C0 16.4271 0.50186 13.9673 1.50558 11.6205C2.5093 9.27381 3.85937 7.25223 5.5558 5.5558C7.25223 3.85937 9.27381 2.5093 11.6205 1.50558C13.9673 0.50186 16.4271 0 19 0ZM32.1261 28.6484C34.2325 25.7504 35.2857 22.5342 35.2857 19C35.2857 16.7946 34.8545 14.6882 33.9922 12.6808C33.1298 10.6734 31.9706 8.94159 30.5145 7.48549C29.0584 6.02939 27.3266 4.87016 25.3192 4.00781C23.3118 3.14546 21.2054 2.71429 19 2.71429C16.7946 2.71429 14.6882 3.14546 12.6808 4.00781C10.6734 4.87016 8.94159 6.02939 7.48549 7.48549C6.02939 8.94159 4.87016 10.6734 4.00781 12.6808C3.14546 14.6882 2.71429 16.7946 2.71429 19C2.71429 22.5342 3.76748 25.7504 5.87388 28.6484C6.80692 24.0257 8.96987 21.7143 12.3627 21.7143C14.2147 23.5238 16.4271 24.4286 19 24.4286C21.5729 24.4286 23.7853 23.5238 25.6373 21.7143C29.0301 21.7143 31.1931 24.0257 32.1261 28.6484ZM27.1429 14.9286C27.1429 12.6808 26.3477 10.7617 24.7573 9.17132C23.1669 7.58091 21.2478 6.78571 19 6.78571C16.7522 6.78571 14.8331 7.58091 13.2427 9.17132C11.6523 10.7617 10.8571 12.6808 10.8571 14.9286C10.8571 17.1763 11.6523 19.0954 13.2427 20.6858C14.8331 22.2762 16.7522 23.0714 19 23.0714C21.2478 23.0714 23.1669 22.2762 24.7573 20.6858C26.3477 19.0954 27.1429 17.1763 27.1429 14.9286Z" fill="black"/>
</g>
<defs>
<clipPath id="clip0_65_75">
<rect width="38" height="38" fill="white"/>
</clipPath>
</defs>
</svg>
