<svg width="26" height="26" viewBox="0 0 26 26" fill="none" xmlns="http://www.w3.org/2000/svg">
<circle cx="13" cy="13" r="11.5" stroke="#A7D129" stroke-width="3"/>
<path d="M9.04028 8.08048C9.35183 7.09887 10.1396 6.28694 11.1755 5.8422V7.07013C11.1755 7.19111 11.2235 7.30713 11.3091 7.39267C11.3946 7.47821 11.5106 7.52627 11.6316 7.52627C11.7526 7.52627 11.8686 7.47821 11.9542 7.39267C12.0397 7.30713 12.0878 7.19111 12.0878 7.07013V5.24557C12.0878 5.12459 12.1358 5.00857 12.2214 4.92303C12.3069 4.83749 12.4229 4.78943 12.5439 4.78943H13.4562C13.5772 4.78943 13.6932 4.83749 13.7787 4.92303C13.8643 5.00857 13.9123 5.12459 13.9123 5.24557V7.07013C13.9123 7.19111 13.9604 7.30713 14.0459 7.39267C14.1315 7.47821 14.2475 7.52627 14.3685 7.52627C14.4894 7.52627 14.6055 7.47821 14.691 7.39267C14.7765 7.30713 14.8246 7.19111 14.8246 7.07013V5.8422C15.8755 6.29332 16.6706 7.12167 16.973 8.12245C16.8558 8.21732 16.6601 8.33227 16.3549 8.44357C15.6744 8.69171 14.5327 8.89469 12.7601 8.89469C11.4834 8.89469 10.4575 8.69581 9.76555 8.44311C9.4312 8.32132 9.19081 8.19269 9.04028 8.08048Z" fill="#A7D129"/>
<path fill-rule="evenodd" clip-rule="evenodd" d="M16.6674 9.3007C17.0711 9.15291 17.3895 8.97593 17.6158 8.77249C17.8744 9.02018 18.0176 9.29249 18.0176 9.57895C18.0176 10.1254 17.4958 10.6221 16.6446 10.9898C16.6477 11.0512 16.6492 11.1131 16.6492 11.1754C16.6488 11.6622 16.5509 12.1439 16.3615 12.5923C16.1721 13.0407 15.8949 13.4466 15.5462 13.7862C15.1975 14.1259 14.7844 14.3923 14.3312 14.5698C13.878 14.7474 13.3938 14.8325 12.9072 14.8201C12.4206 14.8077 11.9414 14.6981 11.4978 14.4977C11.0543 14.2973 10.6552 14.0102 10.3243 13.6533C9.99332 13.2964 9.73712 12.8769 9.57074 12.4195C9.40437 11.962 9.33119 11.4759 9.35552 10.9898C8.50436 10.6221 7.98253 10.1254 7.98253 9.57895C7.98253 9.28246 8.1358 9.00102 8.41176 8.74695L8.4633 8.788C8.71144 8.98004 9.05081 9.15383 9.45313 9.30025C10.261 9.59537 11.3958 9.80702 12.7601 9.80702C14.5884 9.80702 15.8478 9.59947 16.6674 9.3007ZM10.266 11.3004C10.2975 12.0044 10.5993 12.6691 11.1086 13.1561C11.6179 13.6431 12.2954 13.9149 13.0001 13.9149C13.7047 13.9149 14.3823 13.6431 14.8916 13.1561C15.4009 12.6691 15.7027 12.0044 15.7342 11.3004C14.9478 11.5102 14.0081 11.6316 13.0001 11.6316C11.992 11.6316 11.0524 11.5098 10.266 11.3004ZM4.78955 21.2105H14.3685V15.9649L13.4562 16.6491V18.4267C13.3068 18.4615 13.1535 18.4773 13.0001 18.4737C12.7834 18.4737 12.6374 18.4509 12.5439 18.4267V16.7504L10.4243 15.1019C7.76359 15.6128 4.78955 16.8033 4.78955 18.4737V21.2105ZM7.98253 20.2982H11.6317V18.0997L8.65534 18.5959L9.51106 16.2432C8.99272 16.3768 8.48239 16.5397 7.98253 16.7312V20.2982ZM5.70183 20.2982H7.07025V17.1413L7.0365 17.1591C6.55116 17.4164 6.19629 17.6786 5.97278 17.9254C5.75383 18.1681 5.70183 18.3473 5.70183 18.4737V20.2982Z" fill="#A7D129"/>
<path d="M16.909 13.7526C17.1727 13.4835 17.5385 13.7549 17.4582 14.123L17.4463 14.1768C17.4053 14.3644 17.4069 14.5588 17.4509 14.7458C17.4949 14.9327 17.5803 15.1074 17.7007 15.257C17.8211 15.4066 17.9736 15.5273 18.1468 15.6102C18.32 15.6931 18.5096 15.7362 18.7016 15.7362C18.8937 15.7362 19.0833 15.6931 19.2565 15.6102C19.4297 15.5273 19.5821 15.4066 19.7026 15.257C19.823 15.1074 19.9084 14.9327 19.9524 14.7458C19.9964 14.5588 19.998 14.3644 19.9569 14.1768L19.9451 14.123C19.8648 13.7549 20.2306 13.4839 20.4943 13.7531C20.9542 14.2214 21.2114 14.8519 21.2104 15.5083C21.2105 15.9337 21.1024 16.3522 20.8963 16.7243C20.6902 17.0965 20.3929 17.4101 20.0322 17.6357C19.9049 17.7151 19.842 17.8674 19.842 18.0175V20.2982C19.842 20.5402 19.7459 20.7722 19.5748 20.9433C19.4037 21.1144 19.1717 21.2105 18.9297 21.2105H18.4736C18.2316 21.2105 17.9996 21.1144 17.8285 20.9433C17.6574 20.7722 17.5613 20.5402 17.5613 20.2982V18.0175C17.5613 17.8674 17.4983 17.7151 17.3711 17.6357C17.0104 17.4101 16.7131 17.0965 16.507 16.7243C16.3009 16.3522 16.1928 15.9337 16.1929 15.5083C16.1929 14.825 16.4661 14.2046 16.909 13.7526Z" fill="#A7D129"/>
</svg>
