<svg width="26" height="26" viewBox="0 0 26 26" fill="none" xmlns="http://www.w3.org/2000/svg">
<circle cx="13" cy="13" r="12" stroke="#A7D129" stroke-width="2"/>
<path d="M6.79941 7.52637C6.62928 7.52637 6.46613 7.6036 6.34583 7.74108C6.22554 7.87856 6.15796 8.06502 6.15796 8.25945C6.15796 8.45388 6.22554 8.64034 6.34583 8.77782C6.46613 8.9153 6.62928 8.99253 6.79941 8.99253H19.2007C19.3708 8.99253 19.534 8.9153 19.6543 8.77782C19.7746 8.64034 19.8422 8.45388 19.8422 8.25945C19.8422 8.06502 19.7746 7.87856 19.6543 7.74108C19.534 7.6036 19.3708 7.52637 19.2007 7.52637H6.79941ZM6.79941 10.4587C6.62928 10.4587 6.46613 10.5359 6.34583 10.6734C6.22554 10.8109 6.15796 10.9974 6.15796 11.1918C6.15796 11.3862 6.22554 11.5727 6.34583 11.7101C6.46613 11.8476 6.62928 11.9249 6.79941 11.9249H19.2007C19.3708 11.9249 19.534 11.8476 19.6543 11.7101C19.7746 11.5727 19.8422 11.3862 19.8422 11.1918C19.8422 10.9974 19.7746 10.8109 19.6543 10.6734C19.534 10.5359 19.3708 10.4587 19.2007 10.4587H6.79941ZM6.15796 14.1241C6.15796 13.9297 6.22554 13.7432 6.34583 13.6057C6.46613 13.4683 6.62928 13.391 6.79941 13.391H19.2007C19.3708 13.391 19.534 13.4683 19.6543 13.6057C19.7746 13.7432 19.8422 13.9297 19.8422 14.1241C19.8422 14.3185 19.7746 14.505 19.6543 14.6425C19.534 14.78 19.3708 14.8572 19.2007 14.8572H6.79941C6.62928 14.8572 6.46613 14.78 6.34583 14.6425C6.22554 14.505 6.15796 14.3185 6.15796 14.1241ZM6.79941 16.3234C6.62928 16.3234 6.46613 16.4006 6.34583 16.5381C6.22554 16.6756 6.15796 16.862 6.15796 17.0564C6.15796 17.2509 6.22554 17.4373 6.34583 17.5748C6.46613 17.7123 6.62928 17.7895 6.79941 17.7895H14.9244C15.0945 17.7895 15.2577 17.7123 15.378 17.5748C15.4983 17.4373 15.5659 17.2509 15.5659 17.0564C15.5659 16.862 15.4983 16.6756 15.378 16.5381C15.2577 16.4006 15.0945 16.3234 14.9244 16.3234H6.79941Z" fill="#A7D129"/>
</svg>
