<svg width="43" height="43" viewBox="0 0 43 43" fill="none" xmlns="http://www.w3.org/2000/svg">
<mask id="mask0_219_3" style="mask-type:luminance" maskUnits="userSpaceOnUse" x="0" y="0" width="43" height="43">
<path d="M0 0H43V43H0V0Z" fill="white"/>
<path d="M7.75308 18.6984C7.62284 18.5222 7.5289 18.3219 7.4767 18.1092C7.42451 17.8964 7.4151 17.6754 7.44904 17.459C7.48297 17.2425 7.55957 17.035 7.67437 16.8484C7.78918 16.6619 7.93991 16.4999 8.11782 16.3721C8.29572 16.2443 8.49725 16.153 8.7107 16.1037C8.92415 16.0544 9.14527 16.048 9.36122 16.0849C9.57717 16.1218 9.78364 16.2012 9.96865 16.3185C10.1537 16.4358 10.3135 16.5887 10.4389 16.7683C10.9417 17.4679 11.7174 18.1361 12.7212 18.7149C14.8597 19.9487 17.8234 20.6731 21.0103 20.6731C24.1989 20.6731 27.1626 19.9503 29.301 18.7149C30.3049 18.1361 31.0806 17.4679 31.5834 16.7683C31.7088 16.5887 31.8686 16.4358 32.0536 16.3185C32.2386 16.2012 32.4451 16.1218 32.6611 16.0849C32.877 16.048 33.0981 16.0544 33.3116 16.1037C33.525 16.153 33.7266 16.2443 33.9045 16.3721C34.0824 16.4999 34.2331 16.6619 34.3479 16.8484C34.4627 17.035 34.5393 17.2425 34.5732 17.459C34.6072 17.6754 34.5978 17.8964 34.5456 18.1092C34.4934 18.3219 34.3994 18.5222 34.2692 18.6984C33.4754 19.8048 32.3441 20.7773 30.9549 21.5794C28.2889 23.1175 24.7563 23.9808 21.0103 23.9808C17.266 23.9808 13.7334 23.1175 11.0674 21.5794C9.67816 20.7773 8.54693 19.8048 7.75308 18.6984Z" fill="black"/>
<path d="M23.1544 23.1539C23.1544 22.7153 22.9801 22.2946 22.67 21.9844C22.3598 21.6743 21.9392 21.5 21.5005 21.5C21.0619 21.5 20.6412 21.6743 20.3311 21.9844C20.0209 22.2946 19.8467 22.7153 19.8467 23.1539V27.2885C19.8467 27.7271 20.0209 28.1478 20.3311 28.4579C20.6412 28.7681 21.0619 28.9423 21.5005 28.9423C21.9392 28.9423 22.3598 28.7681 22.67 28.4579C22.9801 28.1478 23.1544 27.7271 23.1544 27.2885V23.1539ZM14.1078 22.7536C14.2202 22.3347 14.4927 21.9768 14.8665 21.7568C15.2403 21.5369 15.6855 21.4725 16.1063 21.5777C16.5271 21.6829 16.8897 21.9492 17.116 22.3192C17.3423 22.6892 17.4143 23.1333 17.3163 23.5558L16.4894 26.8635C16.4398 27.0774 16.3481 27.2792 16.2197 27.4573C16.0912 27.6354 15.9286 27.7861 15.7413 27.9007C15.554 28.0153 15.3457 28.0914 15.1287 28.1247C14.9117 28.1579 14.6902 28.1476 14.4772 28.0944C14.2641 28.0411 14.0639 27.946 13.888 27.8145C13.7121 27.683 13.5642 27.5179 13.4529 27.3286C13.3415 27.1394 13.269 26.9298 13.2394 26.7123C13.2099 26.4947 13.224 26.2734 13.2809 26.0613L14.1078 22.7536ZM28.0663 22.7536C27.9539 22.3347 27.6815 21.9768 27.3077 21.7568C26.9338 21.5369 26.4886 21.4725 26.0678 21.5777C25.6471 21.6829 25.2845 21.9492 25.0581 22.3192C24.8318 22.6892 24.7599 23.1333 24.8578 23.5558L25.6848 26.8635C25.7344 27.0774 25.826 27.2792 25.9545 27.4573C26.0829 27.6354 26.2455 27.7861 26.4328 27.9007C26.6202 28.0153 26.8284 28.0914 27.0454 28.1247C27.2625 28.1579 27.484 28.1476 27.697 28.0944C27.91 28.0411 28.1103 27.946 28.2861 27.8145C28.462 27.683 28.6099 27.5179 28.7213 27.3286C28.8326 27.1394 28.9052 26.9298 28.9347 26.7123C28.9642 26.4947 28.9501 26.2734 28.8932 26.0613L28.0663 22.7536ZM32.2919 18.6769C32.1393 18.519 31.9568 18.393 31.755 18.3063C31.5533 18.2196 31.3363 18.174 31.1167 18.1721C30.8971 18.1702 30.6793 18.212 30.476 18.2952C30.2728 18.3783 30.0881 18.5011 29.9328 18.6564C29.7776 18.8117 29.6548 18.9964 29.5716 19.1996C29.4884 19.4029 29.4466 19.6206 29.4485 19.8402C29.4504 20.0598 29.496 20.2768 29.5827 20.4786C29.6694 20.6804 29.7954 20.8629 29.9533 21.0155L33.261 24.3231C33.573 24.6244 33.9907 24.7911 34.4244 24.7873C34.858 24.7836 35.2728 24.6096 35.5794 24.303C35.8861 23.9964 36.06 23.5816 36.0638 23.1479C36.0675 22.7143 35.9008 22.2965 35.5996 21.9846L32.2919 18.6769ZM10.0526 18.7331C10.3478 18.4086 10.7599 18.2145 11.1981 18.1938C11.6364 18.173 12.0649 18.3271 12.3895 18.6223C12.7141 18.9175 12.9081 19.3296 12.9289 19.7678C12.9497 20.2061 12.7955 20.6346 12.5003 20.9592L9.49361 24.2669C9.34744 24.4276 9.17105 24.558 8.97451 24.6505C8.77796 24.7431 8.56511 24.796 8.34811 24.8063C8.13111 24.8166 7.91421 24.784 7.70979 24.7105C7.50537 24.637 7.31744 24.5239 7.15672 24.3777C6.99601 24.2316 6.86565 24.0552 6.7731 23.8586C6.68055 23.6621 6.62762 23.4492 6.61734 23.2322C6.60705 23.0152 6.6396 22.7983 6.71313 22.5939C6.78667 22.3895 6.89975 22.2016 7.04592 22.0408L10.0526 18.7331Z" fill="black"/>
</mask>
<g mask="url(#mask0_219_3)">
<path d="M21.5 43C33.3741 43 43 33.3741 43 21.5C43 9.62588 33.3741 0 21.5 0C9.62588 0 0 9.62588 0 21.5C0 33.3741 9.62588 43 21.5 43Z" fill="#95BA27"/>
</g>
</svg>
