<svg width="34" height="34" viewBox="0 0 34 34" fill="none" xmlns="http://www.w3.org/2000/svg">
<path d="M16.9996 34C26.2835 34 34 26.2837 34 17C34 7.69999 26.2664 0 16.9826 0C7.68309 0 0 7.69999 0 17C0 26.2837 7.69944 34 16.9996 34ZM10.9493 23.201V16.5342C10.9493 15.4505 11.366 14.9008 12.2663 14.7671V12.7504C12.2663 9.50054 14.2326 7.40061 16.9996 7.40061C19.766 7.40061 21.733 9.50054 21.733 12.7504V14.7507C22.6162 14.8837 23.0329 15.4334 23.0329 16.5342V23.201C23.0329 24.4511 22.4832 25.0172 21.3333 25.0172H12.666C11.4997 25.0172 10.9493 24.4511 10.9493 23.201ZM14.0001 14.7337L19.9999 14.7173V12.5676C19.9999 10.4677 18.7995 9.08383 16.9989 9.08383C15.1998 9.08383 13.9994 10.467 13.9994 12.5676L14.0001 14.7337Z" fill="#A7D129"/>
</svg>
