<svg width="38" height="38" viewBox="0 0 38 38" fill="none" xmlns="http://www.w3.org/2000/svg">
<g clip-path="url(#clip0_65_63)">
<path d="M29.5883 10.1333C29.4876 10.123 29.386 10.123 29.2853 10.1333H8.59645C8.46385 10.1354 8.33213 10.1553 8.20483 10.1924L18.8818 20.8251L29.5883 10.1333Z" fill="black"/>
<path d="M31.1558 12.35L20.3975 23.0639C20.1207 23.3391 19.7461 23.4936 19.3557 23.4936C18.9653 23.4936 18.5907 23.3391 18.3139 23.0639L7.6517 12.4313C7.61892 12.5517 7.60154 12.6759 7.59998 12.8007V27.5785C7.59998 27.9704 7.75567 28.3463 8.03281 28.6234C8.30994 28.9006 8.68582 29.0563 9.07775 29.0563H29.7666C30.1586 29.0563 30.5345 28.9006 30.8116 28.6234C31.0887 28.3463 31.2444 27.9704 31.2444 27.5785V12.8007C31.2385 12.6468 31.2086 12.4947 31.1558 12.35ZM10.09 27.5785H9.06298V26.5219L14.4347 21.1945L15.4765 22.2363L10.09 27.5785ZM29.7519 27.5785H28.7174L23.3309 22.2363L24.3728 21.1945L29.7445 26.5219L29.7519 27.5785Z" fill="black"/>
</g>
<circle cx="19" cy="19" r="17.5" stroke="black" stroke-width="3"/>
<defs>
<clipPath id="clip0_65_63">
<rect width="26.6" height="26.6" fill="white" transform="translate(5.69995 5.7)"/>
</clipPath>
</defs>
</svg>
