<svg width="70" height="70" viewBox="0 0 70 70" fill="none" xmlns="http://www.w3.org/2000/svg">
<path d="M46.6667 49.5833V55.4167H5.83337V49.5833C5.83337 49.5833 5.83337 37.9167 26.25 37.9167C46.6667 37.9167 46.6667 49.5833 46.6667 49.5833ZM36.4584 21.875C36.4584 19.856 35.8597 17.8823 34.738 16.2036C33.6163 14.5248 32.0219 13.2164 30.1566 12.4437C28.2913 11.6711 26.2387 11.4689 24.2585 11.8628C22.2783 12.2567 20.4593 13.229 19.0317 14.6566C17.604 16.0843 16.6317 17.9032 16.2379 19.8835C15.844 21.8637 16.0461 23.9162 16.8188 25.7816C17.5914 27.6469 18.8998 29.2412 20.5786 30.3629C22.2573 31.4846 24.231 32.0833 26.25 32.0833C28.9575 32.0833 31.554 31.0078 33.4684 29.0934C35.3829 27.179 36.4584 24.5824 36.4584 21.875ZM46.4917 37.9167C48.2847 39.3043 49.7519 41.0679 50.7899 43.0836C51.828 45.0992 52.4117 47.3178 52.5 49.5833V55.4167H64.1667V49.5833C64.1667 49.5833 64.1667 38.9958 46.4917 37.9167ZM43.75 11.6667C41.7425 11.6555 39.779 12.2557 38.1209 13.3875C39.8926 15.863 40.8452 18.8308 40.8452 21.875C40.8452 24.9192 39.8926 27.887 38.1209 30.3625C39.779 31.4943 41.7425 32.0945 43.75 32.0833C46.4575 32.0833 49.054 31.0078 50.9684 29.0934C52.8829 27.179 53.9584 24.5824 53.9584 21.875C53.9584 19.1676 52.8829 16.5711 50.9684 14.6566C49.054 12.7422 46.4575 11.6667 43.75 11.6667Z" fill="#A7D129"/>
</svg>
