<svg width="276" height="100" viewBox="0 0 276 100" fill="none" xmlns="http://www.w3.org/2000/svg">
<path d="M52.2238 9.40825C44.8925 13.8928 40.1554 21.0149 38.4599 28.8316C44.4885 27.149 51.2715 26.7578 58.063 26.7365C44.6601 32.8561 40.7842 40.0357 37.4456 47.8517C47.1361 37.7842 62.4646 38.1192 70.6395 47.7131C63.5006 43.5107 54.1307 44.4854 48.2804 50.613C41.5594 57.6535 41.7274 68.999 49.285 75.3419C52.9353 78.4059 57.2348 79.7729 61.6505 79.8071C61.6228 79.7934 61.5968 79.7778 61.5695 79.7639C68.2307 79.7165 72.3137 75.7441 72.099 71.2727C72.1455 70.695 72.0979 70.0846 71.9463 69.4782C71.4102 67.3317 69.7528 66.054 68.2435 66.6244C66.7338 67.1946 65.9441 69.3977 66.4802 71.5443C66.8554 73.0466 67.7798 74.1257 68.8188 74.4411C67.6004 75.5317 65.9848 76.3671 64.0049 76.741C59.4895 72.3672 60.9918 65.2367 66.0013 62.0713C58.8926 63.1243 56.2832 71.4191 60.6526 76.9202C59.6785 76.8541 58.6436 76.6901 57.5518 76.4133C55.03 73.1693 53.9569 68.5897 55.0309 63.9395C56.8086 56.2437 63.786 51.2761 70.6133 52.8436C75.0124 53.8537 78.272 57.3349 79.5613 61.7396C80.4773 64.4958 80.5171 67.5243 79.494 70.7182L79.4786 70.6443C79.0747 71.9884 78.5124 73.2385 77.8166 74.3704C71.1553 88.1539 59.3102 90.5712 43.2456 86.8824C33.2462 84.5858 24.9891 77.4501 20.8124 68.61C12.1673 52.7888 13.9034 31.9685 26.4544 18.1596C25.7176 21.2155 25.3344 24.346 25.3126 27.4894C30.0437 17.2706 40.204 9.98198 52.2238 9.40825ZM77.0182 37.3493C84.355 41.2037 89.0681 49.3045 82.9527 64.2739C82.5054 60.3363 80.7013 56.7072 77.8743 53.7396C80.9261 45.8002 76.7424 37.9451 68.6936 34.7469C71.5541 35.1683 74.4476 35.9987 77.0184 37.3496L77.0182 37.3493ZM34.768 22.2998C22.5438 30.9502 19.8802 53.2398 26.1066 66.3425C29.6816 75.1521 38.5866 82.5962 53.2533 84.6757C18.2092 69.7256 24.8526 43.1551 45.509 30.6159C36.6323 33.402 30.444 38.9087 27.1276 45.394C27.7255 37.0936 30.3418 28.7734 34.7679 22.2999L34.768 22.2998ZM71.8486 56.2898C67.0891 53.8359 60.7127 55.2593 57.601 64.754C61.6528 57.4622 75.697 54.7506 76.9283 69.9883C79.3623 64.3204 76.3197 58.5945 71.8487 56.2895L71.8486 56.2898ZM43.6891 48.5211C32.502 50.7039 30.4068 68.7023 45.9384 76.4932C38.6238 71.1436 35.4776 55.2681 43.6889 48.5211L43.6891 48.5211Z" fill="#4B4B4B" fill-opacity="0.8"/>
<path d="M127.507 9.35716C134.838 13.8417 139.575 20.9638 141.271 28.7805C135.242 27.0979 128.459 26.7067 121.668 26.6854C135.071 32.805 138.947 39.9846 142.285 47.8006C132.595 37.7331 117.266 38.0681 109.091 47.662C116.23 43.4597 125.6 44.4343 131.45 50.5619C138.171 57.6024 138.003 68.948 130.446 75.2908C126.796 78.3548 122.496 79.7218 118.08 79.756C118.108 79.7423 118.134 79.7267 118.161 79.7128C111.5 79.6654 107.417 75.693 107.632 71.2216C107.585 70.6439 107.633 70.0335 107.784 69.4271C108.321 67.2806 109.978 66.0029 111.487 66.5733C112.997 67.1435 113.787 69.3466 113.251 71.4933C112.875 72.9956 111.951 74.0746 110.912 74.39C112.13 75.4806 113.746 76.316 115.726 76.6899C120.241 72.3161 118.739 65.1856 113.73 62.0202C120.838 63.0732 123.448 71.368 119.078 76.8692C120.052 76.803 121.087 76.639 122.179 76.3622C124.701 73.1182 125.774 68.5386 124.7 63.8884C122.922 56.1926 115.945 51.225 109.118 52.7925C104.718 53.8026 101.459 57.2838 100.17 61.6885C99.2535 64.4448 99.2137 67.4732 100.237 70.6671L100.252 70.5932C100.656 71.9373 101.218 73.1874 101.914 74.3194C108.576 88.1028 120.421 90.5201 136.485 86.8313C146.485 84.5347 154.742 77.399 158.918 68.5589C167.564 52.7377 165.827 31.9174 153.276 18.1086C154.013 21.1645 154.396 24.2949 154.418 27.4383C149.687 17.2195 139.527 9.93089 127.507 9.35716ZM102.713 37.2982C95.3759 41.1526 90.6627 49.2534 96.7782 64.2228C97.2255 60.2852 99.0295 56.6561 101.856 53.6885C98.8048 45.7491 102.988 37.894 111.037 34.6958C108.177 35.1172 105.283 35.9476 102.712 37.2985L102.713 37.2982ZM144.963 22.2487C157.187 30.8992 159.851 53.1887 153.624 66.2914C150.049 75.101 141.144 82.5451 126.478 84.6246C161.522 69.6745 154.878 43.104 134.222 30.5648C143.098 33.3509 149.287 38.8576 152.603 45.3429C152.005 37.0425 149.389 28.7223 144.963 22.2488L144.963 22.2487ZM107.882 56.2387C112.642 53.7848 119.018 55.2082 122.13 64.7029C118.078 57.4111 104.034 54.6995 102.803 69.9372C100.369 64.2693 103.411 58.5434 107.882 56.2384L107.882 56.2387ZM136.042 48.47C147.229 50.6528 149.324 68.6513 133.792 76.4421C141.107 71.0925 144.253 55.2171 136.042 48.47L136.042 48.47Z" fill="#4B4B4B" fill-opacity="0.8"/>
<g clip-path="url(#clip0_161_2)">
<path d="M89.4225 22.2683C91.8966 22.2948 94.3628 22.5515 96.7893 23.0352C97.5659 23.1899 98.2828 23.5614 98.8571 24.1066C99.2022 24.6222 99.3664 25.2377 99.3242 25.8566C99.3125 27.6721 99.1099 29.4813 98.7195 31.2544C100.672 32.1025 102.501 33.2128 104.154 34.5547C105.572 33.4309 107.077 32.4206 108.655 31.5332C109.199 31.1858 109.845 31.0338 110.486 31.1022C111.485 31.3634 112.374 31.9357 113.024 32.7362C114.274 34.1827 115.346 35.7736 116.217 37.4749C117.1 39.0759 117.8 40.7717 118.302 42.5299C118.611 43.5547 118.756 44.6223 118.73 45.6925C118.694 46.3361 118.048 46.64 117.574 46.9378C115.865 47.798 114.092 48.5242 112.27 49.1098C112.545 51.177 112.539 53.2719 112.252 55.3374C113.885 55.9319 115.465 56.6637 116.975 57.5248C117.419 57.7424 117.809 58.0543 118.12 58.4386C118.431 58.823 118.654 59.2705 118.774 59.75C118.864 61.5707 118.386 63.3744 117.404 64.9108C116.114 67.4029 114.622 69.7854 112.943 72.0343C112.133 73.0244 111.141 74.1474 109.757 74.1412C108.486 73.8665 107.301 73.2867 106.303 72.4519C105.351 71.7371 104.445 70.9621 103.591 70.1317C102.004 71.3473 100.263 72.3481 98.4135 73.1085C98.585 74.6578 98.7913 76.219 98.8298 77.7716C98.9237 78.7668 98.7008 79.7662 98.193 80.6271C97.8177 81.1593 97.3209 81.5943 96.7438 81.8962C95.9011 82.1906 95.0185 82.3551 94.1264 82.3841C91.6761 82.5623 89.2178 82.6032 86.763 82.5066C85.4772 82.492 84.2043 82.2489 83.0036 81.7887C82.5721 81.6022 82.1926 81.3131 81.8982 80.9466C81.6038 80.5801 81.4033 80.1472 81.3142 79.6856C81.0145 77.5447 81.0804 75.3685 81.5091 73.2497C79.6618 72.5284 77.9167 71.5687 76.3181 70.3951C74.6871 71.4324 73.1093 72.5359 71.3898 73.4165C70.7719 73.8142 70.0364 73.9881 69.3058 73.9095C68.3202 73.5804 67.4586 72.9584 66.8359 72.1266C65.591 70.5669 64.5102 68.8829 63.6109 67.1014C62.7204 65.5083 62.01 63.821 61.493 62.0706C61.1354 60.97 61.1749 59.7789 61.6048 58.7045C61.9333 58.0919 62.4685 57.6157 63.1151 57.3606C64.4762 56.7133 65.8943 56.1933 67.3512 55.8074C67.0158 53.7273 66.9624 51.6115 67.1923 49.5172C65.6201 48.7899 64.0874 47.98 62.6006 47.0909C62.111 46.8097 61.6918 46.4208 61.3747 45.9536C61.1304 45.3129 61.0905 44.6123 61.2606 43.948C61.7744 42.0563 62.5628 40.2501 63.6006 38.5871C64.7358 36.6065 66.0063 34.7065 67.403 32.9008C67.9576 32.1289 68.6963 31.5079 69.5521 31.0944C70.2101 30.9361 70.904 31.0444 71.4824 31.3958C73.003 32.1703 74.4216 33.1305 75.7056 34.2544C77.466 32.8768 79.4218 31.7692 81.5087 30.9681C81.4387 29.1985 81.3145 27.4386 81.4162 25.6631C81.3971 24.9908 81.5986 24.3307 81.9899 23.7837C82.6042 23.2029 83.3711 22.809 84.201 22.648C85.9227 22.3187 87.6771 22.1925 89.4281 22.2721M90.0282 23.334C88.0285 23.1826 86.0173 23.3513 84.0707 23.8337C83.4074 24.0545 82.5443 24.3898 82.5466 25.2274C82.4113 27.3882 82.4335 29.556 82.613 31.7135C80.1073 32.6126 77.7785 33.944 75.7326 35.6472C74.4322 34.506 73.0242 33.4934 71.5284 32.6237C71.1155 32.3788 70.6663 32.2011 70.1976 32.0973C69.8335 32.1312 69.4944 32.2973 69.2443 32.5642C68.6167 33.1438 68.0521 33.788 67.5599 34.4863C65.8838 36.7808 64.4109 39.217 63.1578 41.7673C62.7038 42.673 62.394 43.644 62.2395 44.6453C62.1931 44.9464 62.2297 45.2545 62.3455 45.5363C62.536 45.7577 62.7536 45.9543 62.9931 46.1213L62.9827 46.1587C63.8348 46.6704 64.7124 47.1383 65.6121 47.5607C66.496 48.0928 67.455 48.451 68.3556 48.9631C68.2507 49.574 68.2082 50.2023 68.1511 50.8265C68.059 52.4249 68.1386 54.0286 68.3885 55.61L68.547 56.594C66.8019 57.0161 65.1036 57.6126 63.4779 58.3745C63.1607 58.5309 62.8743 58.7432 62.6324 59.0012C62.2867 59.7156 62.2136 60.5316 62.4266 61.2961C62.5871 62.1836 62.8557 63.0481 63.2264 63.8704C63.642 64.8813 64.1152 65.8676 64.6435 66.8244C65.1628 67.8272 65.7449 68.7962 66.3864 69.7256C66.9797 70.7522 67.7467 71.668 68.6532 72.4324C69.0318 72.6808 69.4566 73.0204 69.9315 72.8659C71.0359 72.4925 72.0763 71.9513 73.0159 71.2612C73.8701 70.7876 74.6908 70.2559 75.4722 69.67L75.5096 69.6804C75.7835 69.4912 76.0672 69.3168 76.3597 69.1579C76.6274 69.3686 76.9119 69.5569 77.2103 69.721C77.6978 70.1381 78.2268 70.5041 78.789 70.8132C80.0263 71.5145 81.3207 72.11 82.6583 72.5933C82.6426 73.3588 82.3574 74.1031 82.3674 74.8645C82.2318 75.4202 82.1694 75.9912 82.1819 76.563C82.0902 77.42 82.1406 78.2862 82.3311 79.1267C84.278 79.0791 86.244 79.1554 88.1874 79.1202C89.1855 79.2409 90.1951 79.1433 91.201 79.1878C92.8027 79.2546 94.3942 79.2135 95.9996 79.1784C96.5276 79.2301 97.0583 79.2513 97.5888 79.2418C97.7378 78.4922 97.7791 77.7253 97.7115 76.9641C97.7277 76.3419 97.5852 75.7272 97.5736 75.1085C97.5468 74.9713 97.5851 74.785 97.4848 74.6788C97.4873 73.9208 97.2966 73.1897 97.3116 72.4352C98.1401 72.0388 99.0121 71.7194 99.8102 71.2474C100.493 70.9499 101.138 70.5715 101.73 70.1204C102.345 69.743 102.893 69.2796 103.48 68.8565C103.658 68.6823 103.848 68.8939 103.982 69.0229C104.35 69.4176 104.746 69.785 105.167 70.122C106.335 71.265 107.686 72.2053 109.163 72.9042C109.38 72.9974 109.616 73.0396 109.852 73.0276C110.088 73.0156 110.319 72.9498 110.525 72.835C111.072 72.4874 111.553 72.046 111.946 71.5312C112.342 71.0865 112.687 70.5993 112.976 70.0786L113.028 70.0794C114.301 68.2192 115.466 66.2871 116.518 64.2928C117.034 63.3314 117.42 62.3052 117.665 61.2414C117.834 60.6667 117.807 60.0526 117.589 59.4947C117.36 59.1186 117.045 58.8014 116.671 58.5684C114.862 57.5555 112.989 56.6613 111.064 55.8913C111.514 53.4248 111.54 50.8996 111.14 48.4244C111.339 48.3228 111.534 48.2337 111.717 48.137L111.765 48.1503C113.021 47.7677 114.244 47.2837 115.462 46.7876C116.242 46.4915 116.983 46.1005 117.668 45.6235C117.722 45.3593 117.731 45.0878 117.694 44.8207C117.611 44.0062 117.445 43.2024 117.197 42.4222C117.15 42.3576 117.051 42.2384 117.017 42.1753C116.451 40.1463 115.582 38.2141 114.44 36.444C113.665 35.0456 112.664 33.7846 111.478 32.7116C111.262 32.4882 110.993 32.3238 110.695 32.2341C110.398 32.1444 110.082 32.1324 109.779 32.1991C109.085 32.4837 108.422 32.8379 107.8 33.2561C106.523 34.0897 105.321 34.9843 104.123 35.9068C102.212 34.2346 100.025 32.9063 97.6606 31.9806C97.6251 31.9153 97.5858 31.8521 97.5431 31.7913C98.0016 29.846 98.2541 27.8578 98.2961 25.8597L98.2837 25.8562C98.2303 25.4363 98.2865 24.9036 97.9054 24.6321C97.2946 24.2623 96.617 24.0163 95.9112 23.9079C93.9667 23.5789 92.0018 23.3844 90.0305 23.3257L90.0282 23.334Z" fill="#010101"/>
<path d="M66.419 69.737C67.0124 70.7636 67.7794 71.6794 68.6859 72.4437C69.0645 72.6921 69.4893 73.0317 69.9642 72.8772C71.0668 72.4997 72.1066 71.9588 73.0486 71.2725C73.905 70.8025 74.7259 70.2707 75.5049 69.6813C75.2424 69.5949 75.0178 69.7429 74.7972 69.8763C74.7829 69.8622 74.7708 69.846 74.7613 69.8283L74.7882 69.8604C75.0094 69.7249 75.2314 69.5784 75.4959 69.6654L75.5333 69.6758C75.8086 69.4904 76.0804 69.3175 76.3834 69.1533C76.6511 69.364 76.9356 69.5523 77.234 69.7164C78.4885 69.9266 79.7653 69.9706 81.0313 69.8473L81.0789 69.8449C81.3281 69.979 81.5698 70.0999 81.8349 70.225C82.2952 70.0262 82.7477 69.8073 83.2103 69.6001C82.7785 69.4145 82.35 69.2171 81.9247 69.0079C81.6972 69.126 81.4511 69.2142 81.2016 69.315C81.4352 69.2232 81.6868 69.1231 81.9273 69.0064C81.6193 68.8425 81.3168 68.6667 81.0122 68.4903C80.754 68.3384 80.4994 68.1803 80.2487 68.0163C79.0791 67.2503 77.9999 66.3544 77.0319 65.3455L77.0195 65.342C76.1444 64.4154 75.363 63.4044 74.687 62.3239C74.5577 62.4268 74.4332 62.5444 74.3034 62.6493C74.438 62.5434 74.5636 62.4217 74.6972 62.3111C73.8228 60.8813 73.1405 59.3426 72.6679 57.7346C72.6636 57.7394 72.6593 57.7441 72.655 57.7489C71.8611 55.0158 71.7211 52.1343 72.2464 49.3371C72.7006 46.8835 73.6236 44.5405 74.9651 42.4365C75.7249 41.3374 76.5873 40.3129 77.5407 39.3768C77.4947 39.3319 77.4511 39.2847 77.41 39.2353C77.1526 39.3562 76.8766 39.4474 76.6109 39.566C76.8694 39.4409 77.1537 39.352 77.4227 39.2298C77.4687 39.2747 77.5123 39.322 77.5534 39.3714C78.5996 38.3519 79.7712 37.4698 81.0401 36.746C81.9764 36.1718 82.9707 35.6979 84.0065 35.3324C85.8413 34.6637 87.7696 34.2873 89.7211 34.2169L89.7473 34.2353C90.9932 34.1739 92.2421 34.2537 93.4701 34.4731L93.2764 34.276L93.2931 34.2806L93.4668 34.4609C94.4864 34.601 95.455 34.9731 96.4475 35.2109C97.2885 35.5325 98.1129 35.896 98.9176 36.3001C101.057 37.4217 102.953 38.9541 104.499 40.8096L104.487 40.8061C105.385 41.872 106.158 43.0381 106.789 44.2812C106.881 44.2287 106.987 44.1796 107.08 44.1271C107.24 43.9097 107.455 43.7379 107.702 43.6286L107.699 43.639C107.451 43.7462 107.237 43.9187 107.079 44.1381C106.986 44.1906 106.884 44.2272 106.788 44.2922C107.329 45.3624 107.767 46.4816 108.097 47.6346C108.457 48.9382 108.682 50.2756 108.767 51.6254C108.793 51.9593 108.795 52.2733 108.796 52.6003C108.946 52.5748 109.091 52.5277 109.227 52.4603C109.086 52.5356 108.935 52.5902 108.779 52.6223C108.764 53.2894 108.719 53.9642 108.65 54.6388C108.611 54.9679 108.575 55.2892 108.546 55.628C108.361 56.5256 108.141 57.4134 107.871 58.2894C107.82 58.4722 107.761 58.6371 107.71 58.8199C107.724 59.0028 107.736 59.1852 107.763 59.3716C107.749 59.189 107.725 59.0074 107.69 58.8277C107.39 59.6471 107.037 60.4462 106.634 61.2197C106.065 62.3044 105.388 63.3287 104.614 64.2772L104.624 64.2801C102.311 67.1095 99.2093 69.1888 95.7132 70.2545C95.689 70.3969 95.646 70.5355 95.5853 70.6665C95.3229 70.7273 95.0529 70.7488 94.7842 70.7304L94.7982 70.7768L94.7752 70.7145C95.0439 70.7329 95.3139 70.7113 95.5763 70.6506C95.637 70.5195 95.68 70.381 95.7042 70.2385C94.1226 70.7178 92.484 70.9836 90.8319 71.0286C89.5832 71.0647 88.3341 70.9719 87.1044 70.7515C86.223 70.5936 85.3538 70.3737 84.5032 70.0937C84.0552 69.9448 83.6132 69.7787 83.178 69.5956C82.7177 69.7945 82.2528 70.0099 81.7901 70.217C82.3886 70.5135 83.0053 70.7716 83.6366 70.9897C83.6366 70.9897 81.9035 70.2843 83.6337 71.0001C83.0222 70.7362 82.4091 70.4942 81.8124 70.2255C81.5441 70.1039 81.2922 69.9713 81.0264 69.8325C79.7461 69.9091 78.4616 69.8756 77.187 69.7325C77.6769 70.1465 78.2055 70.5122 78.7657 70.8246C80.0021 71.5278 81.2966 72.1233 82.635 72.6047C82.6193 73.3702 82.3376 74.1021 82.3441 74.876C82.2248 75.4265 82.1648 75.9883 82.1649 76.5516C82.0812 77.4087 82.1316 78.2737 82.3142 79.1153C84.261 79.0677 86.2236 79.1565 88.1704 79.1088C89.1721 79.2171 90.1782 79.1319 91.1841 79.1764C92.7733 79.2398 94.3772 79.202 95.9826 79.167C96.5105 79.2216 97.0413 79.2427 97.5719 79.2304C97.7222 78.481 97.7635 77.7138 97.6945 76.9527C97.7107 76.3305 97.5682 75.7158 97.5566 75.0971C97.5299 74.9599 97.5682 74.7736 97.4679 74.6674C97.4666 73.9151 97.2821 73.1857 97.2953 72.4374C98.1238 72.041 98.9959 71.7216 99.7939 71.2496C100.471 70.9552 101.111 70.5807 101.7 70.1342L101.707 70.1475C102.31 69.7667 102.872 69.2964 103.457 68.8837C103.648 68.7129 103.825 68.921 103.959 69.05C104.327 69.4449 104.723 69.8123 105.144 70.1492L105.169 70.1404C106.333 71.2768 107.678 72.2118 109.149 72.9069C109.365 73.007 109.601 73.053 109.839 73.0409C110.076 73.0289 110.307 72.9592 110.511 72.8378C111.052 72.4833 111.532 72.0429 111.932 71.534C112.331 71.0981 112.675 70.6149 112.956 70.0954L113.007 70.0962C114.303 68.2481 115.485 66.3235 116.549 64.3329C117.071 63.3738 117.457 62.3469 117.697 61.2815L117.69 61.2573C117.856 60.6889 117.827 60.0814 117.608 59.5314C117.379 59.1552 117.064 58.838 116.69 58.605C114.884 57.5867 113.011 56.6922 111.083 55.9279C111.539 53.462 111.565 50.9357 111.159 48.461C111.336 48.3714 111.529 48.2729 111.717 48.1841L111.755 48.1945C113.015 47.7994 114.234 47.3279 115.452 46.8318C116.234 46.5398 116.976 46.1486 117.658 45.6678C117.718 45.4043 117.727 45.1317 117.684 44.8649C117.604 44.0499 117.438 43.2459 117.187 42.4664C117.152 42.4053 117.053 42.2861 117.007 42.2195C117.11 42.6791 117.146 43.1512 117.114 43.6212C117.053 44.221 116.865 44.8011 116.563 45.3232C116.333 44.5409 116.165 43.7513 115.911 42.9756L115.915 42.9611C115.25 40.89 114.335 38.9074 113.191 37.0571C112.568 35.9654 111.829 34.9438 110.988 34.0099C110.647 33.6803 110.219 33.248 109.687 33.3733C109.035 33.5823 108.426 33.9092 107.891 34.3377C106.559 35.2745 105.323 36.3299 104.068 37.3775C103.442 36.6332 102.732 35.9636 101.952 35.382C100.478 34.4191 98.9287 33.5769 97.319 32.8637C97.3908 32.5569 97.4467 32.2592 97.5275 31.9683L97.6549 31.9768C97.6279 31.9291 97.565 31.8333 97.5374 31.7875C97.9899 29.8411 98.2422 27.8536 98.2905 25.8559L98.278 25.8524C97.7066 25.5356 97.0979 25.2913 96.466 25.1251C94.6866 24.7042 92.8682 24.4705 91.0403 24.4276C89.3883 24.3274 87.7309 24.3654 86.0852 24.5412C85.3732 24.5895 84.6774 24.7763 84.0369 25.091C83.6313 25.2782 83.6985 25.7937 83.6327 26.1671C83.3677 28.2486 83.5426 30.3494 83.3531 32.4407C81.669 32.9242 80.0838 33.7021 78.6707 34.7382C77.6051 35.5611 76.5519 36.3874 75.5472 37.2809C74.2854 36.0112 72.8829 34.8895 71.3671 33.9374C70.9733 33.6646 70.4989 33.5327 70.0208 33.5633C69.6062 33.7591 69.2515 34.0624 68.9935 34.4416C68.0233 35.7023 67.1186 37.0121 66.2828 38.3657C64.77 40.5402 63.6978 42.9899 63.1266 45.5766C63.1007 45.7663 63.0256 45.9401 62.9997 46.1299L62.9893 46.1673C63.8705 46.6203 64.6907 47.1883 65.6187 47.5693L66.3588 47.6362L65.6291 47.5722C66.5005 48.1008 67.4685 48.4749 68.3726 48.9746C68.2802 49.5889 68.2252 50.2137 68.1681 50.8379C68.3783 50.9215 68.5925 50.9945 68.8101 51.0566C68.5887 50.9918 68.3709 50.9155 68.1574 50.8282C68.0633 52.4266 68.1429 54.0305 68.3947 55.6118L68.4134 55.617C68.4647 55.94 68.504 56.2575 68.5573 56.5812C68.6115 56.9499 68.6753 57.3324 68.742 57.7045C67.2164 58.2093 65.6824 58.6962 64.2155 59.3202C63.7411 59.5255 63.3297 59.8529 63.0231 60.269L63.1281 60.4549C63.2258 60.482 63.3101 60.5569 63.3932 60.58C63.601 60.499 63.8183 60.4451 64.0398 60.4195C65.1077 60.394 66.1467 60.5126 67.2093 60.4901C68.7581 60.4572 70.3031 60.4545 71.8566 60.461C72.0305 60.4959 72.2821 60.436 72.3712 60.6308C72.8939 61.5683 73.5569 62.4284 74.1462 63.3195C74.242 63.5386 74.4876 63.5084 74.6739 63.5064C74.4778 63.5034 74.2414 63.5407 74.1462 63.3195C73.558 62.4243 72.8928 61.5725 72.3712 60.6308C72.2821 60.436 72.0333 60.4855 71.8566 60.461C70.3048 60.4483 68.753 60.4356 67.2093 60.4901C66.1458 60.5079 65.0909 60.3982 64.0398 60.4195C63.8169 60.4369 63.5984 60.4912 63.3932 60.58C63.2956 60.5529 63.2133 60.4785 63.1281 60.4549L63.0231 60.269C62.7957 60.6005 62.6016 60.9536 62.4437 61.3232C62.6039 62.1981 62.8681 63.0506 63.2308 63.8627C63.6507 64.8717 64.1238 65.8577 64.6479 66.8167C65.171 67.8173 65.753 68.7861 66.3908 69.7179" fill="url(#paint0_linear_161_2)"/>
<path d="M109.489 56.8411L109.579 56.4187C109.612 56.3023 109.625 56.1829 109.647 56.0636C109.743 55.5353 109.815 55.0071 109.863 54.4789C109.823 54.8101 109.779 55.1427 109.726 55.4704C109.781 55.1365 109.823 54.7991 109.864 54.4611L109.851 54.4577C109.95 53.6517 109.958 52.8371 109.875 52.0293L109.89 52.0156C109.934 52.3919 109.952 52.7708 109.944 53.1496C109.969 52.2039 109.926 51.2575 109.813 50.3181L109.798 50.1932C109.711 49.4934 109.586 48.799 109.423 48.1128C109.356 47.8195 109.279 47.5273 109.192 47.2363C109.034 46.6849 108.851 46.1419 108.645 45.6071C108.411 45.0036 108.149 44.4131 107.859 43.8356L107.753 43.6362L107.757 43.6237C107.155 42.4618 106.438 41.3631 105.618 40.3438L105.552 40.283C105.366 40.0553 105.175 39.8315 104.98 39.6115C103.513 37.9695 101.778 36.589 99.848 35.5291C99.805 35.5709 99.7636 35.6153 99.7192 35.6544L99.848 35.5291C99.1926 35.1688 98.517 34.8465 97.8245 34.564C97.1142 34.2733 96.3876 34.0243 95.6483 33.8183C95.0084 33.6405 94.3673 33.4967 93.7249 33.3868C94.0607 33.5316 94.393 33.6888 94.7244 33.8167L94.7216 33.8271C94.3847 33.6865 94.0589 33.5378 93.7249 33.3868C90.3498 32.807 86.8814 33.1268 83.6692 34.3142C80.457 35.5016 77.6145 37.5146 75.428 40.1504C75.5147 40.176 75.606 40.1821 75.6954 40.1682C75.7848 40.1544 75.87 40.1209 75.9449 40.0702C76.0147 40.1411 76.0795 40.2217 76.1465 40.303L76.1419 40.3196C76.07 40.2482 76.0021 40.1622 75.9337 40.0783C75.8595 40.1279 75.7754 40.161 75.6873 40.1751C75.5992 40.1893 75.509 40.1842 75.423 40.1602C74.606 41.1432 73.8882 42.2046 73.2803 43.329C71.8 46.0689 70.9931 49.1219 70.9263 52.2354C70.8837 54.3012 71.1712 56.3605 71.7781 58.3355C72.2511 59.8771 72.9124 61.3545 73.7472 62.7342C73.8828 62.9307 74.0184 63.1273 74.1487 63.3269C74.279 63.5265 74.4846 63.503 74.6763 63.5138C74.4802 63.5108 74.235 63.5478 74.1403 63.3246C74.0463 63.1798 73.9446 63.0464 73.8508 62.8928C75.2385 65.1357 77.0671 67.0736 79.2257 68.5891C79.3956 68.708 79.567 68.8242 79.7398 68.9379C80.082 69.1613 80.4329 69.3751 80.7924 69.5795C81.1518 69.7838 81.5294 69.982 81.9252 70.174C82.3533 69.9864 82.7762 69.7771 83.2058 69.5921C82.774 69.4065 82.3455 69.2091 81.9202 68.9999C81.6927 69.118 81.4466 69.2063 81.1971 69.307C81.4307 69.2153 81.6823 69.1151 81.9228 68.9984C81.6148 68.8345 81.3123 68.6587 81.0077 68.4823C80.7495 68.3304 80.4949 68.1723 80.2442 68.0083C79.0746 67.2423 77.9954 66.3464 77.0274 65.3375L77.015 65.3341C76.1418 64.4097 75.3621 63.4014 74.687 62.3239C74.5577 62.4267 74.4332 62.5443 74.3034 62.6492C74.438 62.5434 74.5636 62.4217 74.6972 62.3111C73.8228 60.8813 73.1405 59.3426 72.6679 57.7346C72.6636 57.7394 72.6593 57.7441 72.655 57.7489C71.8611 55.0158 71.7211 52.1343 72.2464 49.3371C72.7006 46.8835 73.6236 44.5405 74.9651 42.4365C75.7249 41.3374 76.5873 40.3129 77.5407 39.3768C77.4947 39.3319 77.4511 39.2846 77.41 39.2352C77.1526 39.3562 76.8766 39.4473 76.6109 39.566C76.8694 39.4409 77.1537 39.352 77.4227 39.2298C77.4687 39.2747 77.5123 39.3219 77.5534 39.3713C78.5996 38.3519 79.7712 37.4697 81.0401 36.746C81.9764 36.1717 82.9707 35.6979 84.0065 35.3324C85.8413 34.6637 87.7696 34.2873 89.7211 34.2168L89.7473 34.2353C90.9932 34.1739 92.2421 34.2537 93.4701 34.473L93.2764 34.276L93.2931 34.2806L93.4668 34.4609C94.4864 34.601 95.455 34.9731 96.4475 35.2108C97.2885 35.5325 98.1129 35.896 98.9176 36.3C101.057 37.4217 102.953 38.9541 104.499 40.8096L104.487 40.8061C105.385 41.872 106.158 43.0381 106.789 44.2812C106.881 44.2287 106.987 44.1796 107.08 44.1271C107.24 43.9097 107.455 43.7379 107.702 43.6286L107.699 43.6389C107.451 43.7462 107.237 43.9187 107.079 44.1381C106.986 44.1906 106.884 44.2272 106.788 44.2921C107.329 45.3624 107.767 46.4816 108.097 47.6346C108.457 48.9382 108.682 50.2756 108.767 51.6254C108.793 51.9593 108.795 52.2732 108.796 52.6002C108.946 52.5748 109.091 52.5277 109.227 52.4603C109.086 52.5356 108.935 52.5902 108.779 52.6223C108.764 53.2894 108.719 53.9642 108.65 54.6388C108.611 54.9679 108.575 55.2892 108.546 55.6279C108.361 56.5256 108.141 57.4134 107.871 58.2894C107.82 58.4722 107.761 58.637 107.71 58.8199C107.724 59.0028 107.736 59.1852 107.763 59.3716C107.749 59.189 107.725 59.0074 107.69 58.8277C107.39 59.6471 107.037 60.4461 106.634 61.2197C106.065 62.3044 105.389 63.3287 104.614 64.2772L104.624 64.2801C102.311 67.1095 99.2093 69.1887 95.7132 70.2544C95.689 70.3969 95.646 70.5354 95.5853 70.6665C95.3229 70.7272 95.0529 70.7488 94.7842 70.7304L94.7982 70.7768L94.7752 70.7144C95.0439 70.7328 95.3139 70.7113 95.5763 70.6506C95.637 70.5195 95.68 70.3809 95.7042 70.2385C94.1226 70.7178 92.484 70.9835 90.8319 71.0286C89.5832 71.0647 88.3341 70.9718 87.1044 70.7515C86.223 70.5936 85.3538 70.3737 84.5032 70.0936C84.0552 69.9448 83.6132 69.7786 83.178 69.5956C82.7484 69.7806 82.3234 69.9892 81.8974 70.1774C82.4643 70.4514 83.0483 70.6987 83.6494 70.9194C84.1461 71.1022 84.6535 71.2656 85.1715 71.4095L85.587 71.525C88.506 72.2739 91.5593 72.3324 94.5048 71.6956C94.4293 71.5129 94.3498 71.3319 94.2663 71.1527C94.4733 71.1413 94.6778 71.1017 94.8741 71.0351L94.8598 70.9819L94.8831 71.051C94.6875 71.1204 94.4826 71.16 94.2753 71.1686C94.35 71.3348 94.4315 71.5164 94.5048 71.6956C99.1204 70.697 103.222 68.0645 106.049 64.2821C106.121 64.1836 106.196 64.0835 106.267 63.9823L106.292 63.9469L106.371 63.8343C106.59 63.5237 106.799 63.2088 106.998 62.8897C107.307 62.3824 107.59 61.8614 107.861 61.3391L107.893 61.2719L107.896 61.2615C108.068 60.9141 108.229 60.5627 108.379 60.2074L108.375 60.2219C108.697 59.4542 108.97 58.6668 109.193 57.8645C109.315 57.5179 109.413 57.1767 109.489 56.8411Z" fill="url(#paint1_linear_161_2)"/>
<path d="M90.0306 23.3257C92.0017 23.3813 93.9664 23.5779 95.9095 23.9141C96.6185 24.0098 97.2986 24.2568 97.9037 24.6384C98.2961 24.9175 98.2399 25.4501 98.2819 25.8624C97.7132 25.54 97.1037 25.2954 96.4699 25.1351C94.6907 24.7134 92.8722 24.4796 91.0442 24.4376C89.3936 24.34 87.7379 24.3738 86.0926 24.5388C85.3815 24.5924 84.6867 24.7789 84.0443 25.0886C83.6352 25.2882 83.7058 25.7912 83.6401 26.1646C83.3751 28.2461 83.55 30.3469 83.3605 32.4382C81.675 32.9194 80.088 33.6953 78.6731 34.7299C77.6074 35.5527 76.5542 36.3791 75.5495 37.2726C74.2893 36.0011 72.8866 34.8792 71.3694 33.929C70.9756 33.6562 70.5012 33.5244 70.0231 33.555C69.6056 33.7464 69.2498 34.0505 68.9958 34.4332C68.0273 35.6952 67.1226 37.0049 66.2852 38.3573C64.7652 40.5312 63.6916 42.9849 63.1266 45.5765C63.1007 45.7663 63.0256 45.9401 62.9997 46.1299C62.7567 45.9673 62.5385 45.7702 62.3521 45.5449C62.2363 45.263 62.1997 44.9549 62.2461 44.6538C62.3945 43.6511 62.7046 42.6791 63.1644 41.7758C64.4107 39.2218 65.8839 36.785 67.5665 34.4948C68.062 33.7977 68.6255 33.1514 69.2485 32.5654C69.5039 32.3058 69.8402 32.1411 70.2018 32.0985C70.6686 32.2083 71.1169 32.3857 71.5326 32.6249C73.0269 33.4944 74.4334 34.5066 75.7326 35.6472C77.7752 33.9407 80.1012 32.6056 82.6049 31.7023C82.4255 29.5448 82.4033 27.377 82.5385 25.2162C82.5363 24.3786 83.3993 24.0433 84.0627 23.8225C86.0128 23.3399 88.0275 23.1722 90.0306 23.3257ZM109.772 32.222C110.38 31.959 110.996 32.3783 111.472 32.7345C112.658 33.8075 113.658 35.0685 114.434 36.4669C115.58 38.2427 116.45 40.1815 117.016 42.2176C117.103 42.6794 117.151 43.1477 117.158 43.6176C117.084 44.2148 116.897 44.7924 116.607 45.3196C116.376 44.5373 116.207 43.745 115.953 42.9694C115.287 40.8983 114.373 38.9157 113.229 37.0653C112.6 35.9763 111.859 34.9559 111.018 34.0206C110.663 33.687 110.25 33.2587 109.718 33.384C109.06 33.589 108.449 33.9209 107.918 34.3609C106.586 35.2977 105.356 36.3344 104.111 37.3917C103.473 36.6514 102.759 35.9799 101.982 35.388C100.502 34.4366 98.9539 33.5958 97.3501 32.8724C97.4185 32.578 97.4744 32.2803 97.5587 31.9769L97.6861 31.9855C100.054 32.9041 102.242 34.2332 104.148 35.9116C105.334 34.9857 106.548 34.0966 107.806 33.2824C108.417 32.852 109.077 32.496 109.772 32.222ZM63.5008 58.3809C65.1261 57.6174 66.824 57.0193 68.569 56.5956C68.6356 56.9677 68.687 57.3468 68.7536 57.7189C67.2184 58.2345 65.7077 58.7099 64.2254 59.3409C63.7511 59.5462 63.3396 59.8736 63.033 60.2897C62.8066 60.6077 62.6119 60.9471 62.4516 61.303C62.2259 60.5397 62.2995 59.7191 62.6573 59.0081C62.8918 58.7427 63.1791 58.5291 63.5008 58.3809Z" fill="#B2B3B7"/>
<path d="M93.4847 34.4525C94.5044 34.5926 95.473 34.9647 96.4654 35.2024C97.304 35.5272 98.13 35.8887 98.9454 36.2966C101.088 37.4199 102.988 38.9555 104.536 40.8152C105.431 41.8836 106.203 43.0493 106.837 44.2903C107.369 45.3647 107.807 46.483 108.147 47.6328C108.517 48.9356 108.745 50.2746 108.827 51.6264C108.844 51.9444 108.855 52.2743 108.856 52.6013C108.841 53.2684 108.797 53.9432 108.728 54.6178C108.688 54.9469 108.652 55.2682 108.623 55.6069C108.437 56.5087 108.216 57.4007 107.945 58.2809C107.885 58.4478 107.835 58.6285 107.784 58.8113C107.484 59.6307 107.132 60.4298 106.728 61.2033C106.158 62.3022 105.478 63.3399 104.697 64.3003C102.378 67.1248 99.2779 69.2041 95.7847 70.2788C94.2024 70.7551 92.5642 71.0208 90.9125 71.0689C89.6639 71.0988 88.4154 71.006 87.185 70.7918C86.3049 70.6277 85.4361 70.408 84.5838 70.1339C84.1295 69.9808 83.6906 69.8208 83.2585 69.6359C82.8265 69.451 82.398 69.2535 81.9729 69.0437C81.6649 68.8797 81.3624 68.7039 81.0578 68.5275C80.7996 68.3756 80.545 68.2176 80.2943 68.0536C79.1247 67.2876 78.0455 66.3916 77.0775 65.3828C76.1909 64.4447 75.3979 63.4223 74.7098 62.3303C73.8387 60.896 73.1605 59.3531 72.6928 57.7415C72.1247 55.7706 71.8909 53.7184 72.0009 51.6702C72.0445 50.8855 72.1397 50.1045 72.2858 49.3323C72.7492 46.8845 73.6736 44.5471 75.0098 42.4444C75.7717 41.3469 76.634 40.3226 77.5855 39.3847C78.63 38.3633 79.8018 37.4809 81.0721 36.7594C82.0107 36.1893 83.0046 35.7157 84.0386 35.3458C85.886 34.6665 87.8308 34.2895 89.7982 34.2293C91.032 34.1606 92.2697 34.2371 93.4857 34.4572M81.6557 37.2931C78.4843 39.0485 75.9735 41.7921 74.5052 45.1061C74.3258 45.3666 74.2072 45.664 74.1582 45.9765L74.1639 45.8595C73.7169 46.9507 73.4001 48.0908 73.22 49.2562L73.2561 49.1745C72.9856 50.4082 72.8849 51.673 72.9568 52.9339C72.9206 53.0953 72.8968 53.2593 72.8854 53.4243C72.9842 56.1754 73.7381 58.8632 75.0844 61.2644C76.4307 63.6656 78.3305 65.7109 80.626 67.2304C82.9654 68.785 85.6371 69.7688 88.426 70.1027C92.5718 70.603 96.7604 69.6133 100.244 67.3105C103.227 65.3363 105.503 62.4635 106.744 59.1086C107.094 58.1171 107.36 57.098 107.539 56.0621C107.646 55.6136 107.716 55.157 107.748 54.6969C107.743 54.6172 107.752 54.4495 107.747 54.3699L107.775 54.4559C107.808 54.2412 107.842 54.0271 107.863 53.809L100.111 51.6551C99.9289 51.5982 99.7355 51.5851 99.547 51.6169C96.8069 52.0707 94.0573 52.4704 91.3165 52.9755C91.1365 52.9774 90.957 52.9933 90.7795 53.0232C90.9477 53.2717 91.1303 53.51 91.3265 53.7369L90.7091 53.8406C91.1007 54.4823 91.6019 55.0503 92.1898 55.5188C93.7878 56.8387 95.735 57.6659 97.7944 57.8997C98.2973 57.9745 98.8038 57.9317 99.2969 58.0419C98.3925 59.3667 97.1984 60.4683 95.805 61.2629C94.4116 62.0576 92.8556 62.5246 91.2548 62.6285C88.3898 62.8106 85.5697 61.8483 83.4136 59.9529C81.5739 58.331 80.3589 56.1172 79.9785 53.6944C79.7533 52.1943 79.8662 50.6628 80.3087 49.2118L80.3882 49.3525C80.9154 48.0047 81.7157 46.7804 82.7388 45.7568C83.7619 44.7331 84.9858 43.9322 86.3334 43.4044C87.6577 42.8845 89.0721 42.633 90.4945 42.6648C91.9168 42.6966 93.3186 43.0109 94.6183 43.5895C96.6465 44.4811 98.3418 45.9898 99.4628 47.9009C99.9216 48.5906 100.609 49.0963 101.404 49.3291C102.199 49.5619 103.051 49.5068 103.809 49.1734C104.313 48.949 104.756 48.6058 105.099 48.173C105.443 47.7403 105.676 47.231 105.779 46.6886C105.665 46.7917 105.556 46.9012 105.453 47.0164C105.61 46.8113 105.724 46.5765 105.788 46.3262C106.039 45.511 105.976 44.6314 105.612 43.8603C103.616 40.4207 100.512 37.7607 96.8073 36.3157C96.4888 36.1706 96.1554 36.0607 95.813 35.9879C95.2797 35.7809 94.7271 35.6274 94.1635 35.5296C89.9229 34.5315 85.4621 35.1617 81.664 37.2954M92.9061 47.0211C92.761 47.6407 92.7845 48.2878 92.9739 48.8953C92.9865 49.2399 93.0864 49.5758 93.2645 49.8712C93.3565 49.9796 93.4725 50.0651 93.6034 50.1208C93.7342 50.1765 93.8762 50.201 94.0182 50.1922C94.1601 50.1834 94.298 50.1416 94.421 50.0701C94.5439 49.9987 94.6485 49.8995 94.7264 49.7806C94.8487 49.5558 94.8793 49.2925 94.812 49.0457C95.1109 48.4372 94.8326 47.7959 94.7726 47.166C94.7052 46.6997 94.6267 46.0804 94.1004 45.9207C93.9429 45.8651 93.7732 45.8534 93.6096 45.887C93.446 45.9205 93.2946 45.9981 93.1718 46.1113C93.049 46.2244 92.9594 46.369 92.9125 46.5293C92.8657 46.6896 92.8635 46.8597 92.9061 47.0211Z" fill="black"/>
<path d="M81.6557 37.2931C85.4526 35.1533 89.9142 34.5163 94.1583 35.508C94.653 35.8153 95.2255 35.9744 95.8078 35.9664C96.1534 36.0417 96.4898 36.1547 96.8108 36.3032C100.509 37.7474 103.609 40.4027 105.603 43.8355C105.968 44.6066 106.031 45.4862 105.78 46.3015C105.721 46.5537 105.607 46.7896 105.445 46.9916C105.01 47.666 104.362 48.176 103.605 48.441C102.867 48.6937 102.066 48.6917 101.329 48.4351C100.593 48.1785 99.9637 47.6822 99.5426 47.0257C98.5073 45.2908 96.998 43.8876 95.1924 42.9814C92.7842 41.758 90.0028 41.4895 87.4051 42.2297C85.9674 42.6323 84.6332 43.3393 83.4928 44.3028C82.3524 45.2664 81.4325 46.4639 80.7956 47.8141C80.5472 47.6401 80.296 47.4704 80.0419 47.3048C78.3631 46.2625 76.7411 45.1312 75.1829 43.9159C75.0221 44.3494 74.7904 44.7532 74.4973 45.1107C75.9723 41.7974 78.4848 39.0536 81.6557 37.2931ZM91.3119 52.9519C94.0403 52.4433 96.7899 52.0436 99.5424 51.5932C102.212 52.3753 104.924 53.0617 107.587 53.8688C107.631 54.0378 107.706 54.1884 107.737 54.3581C107.742 54.4378 107.733 54.6055 107.738 54.6851C107.743 54.7648 107.672 54.8749 107.654 54.9372C106.901 54.8625 106.143 54.8396 105.386 54.8687C102.347 54.8203 99.3194 54.4651 96.351 53.8082C95.2364 53.5988 94.1342 53.3277 93.0497 52.9961C92.4731 52.9265 91.8912 52.9117 91.3119 52.9519Z" fill="#D0E27F"/>
<path d="M87.4034 42.2359C89.6706 41.5927 92.0865 41.7136 94.2782 42.5798C96.4699 43.4461 98.3156 45.0096 99.5305 47.029C99.9494 47.6878 100.578 48.186 101.316 48.4429C102.053 48.6997 102.855 48.7002 103.593 48.4443C104.35 48.1793 104.998 47.6693 105.432 46.995C105.533 46.8781 105.642 46.7685 105.759 46.6671C105.658 47.2106 105.425 47.7211 105.082 48.1542C104.738 48.5873 104.294 48.9298 103.788 49.1519C103.03 49.4884 102.178 49.5451 101.382 49.3121C100.586 49.0791 99.8986 48.5715 99.4419 47.8794C98.319 45.97 96.6243 44.4618 94.5975 43.568C93.298 42.9886 91.8961 42.6738 90.4736 42.6421C89.0512 42.6103 87.6366 42.8622 86.3125 43.383C84.9677 43.9121 83.7465 44.7127 82.725 45.735C81.7036 46.7573 80.9039 47.9792 80.3759 49.3245L80.2964 49.1838C80.4142 48.7132 80.5809 48.2562 80.7939 47.8203C81.4274 46.4677 82.3461 45.2682 83.487 44.3043C84.6279 43.3403 85.964 42.6347 87.4034 42.2359ZM107.526 56.0586C107.353 57.0959 107.087 58.1155 106.731 59.1051C105.496 62.463 103.218 65.3373 100.231 67.3071C96.7502 69.615 92.5597 70.6051 88.4136 70.0993C85.6245 69.7658 82.9528 68.782 80.6135 67.2269C78.32 65.7057 76.4217 63.6601 75.076 61.2593C73.7303 58.8586 72.9758 56.1718 72.875 53.4214C72.8925 53.2571 72.9163 53.0935 72.9464 52.931C73.0429 53.6628 73.0972 54.4097 73.2465 55.1449C73.672 57.3995 74.547 59.5453 75.8192 61.4547C77.9703 64.7085 81.1438 67.1533 84.8387 68.4032C85.2333 68.5375 85.6317 68.6661 86.0327 68.7775C86.4877 68.9039 86.9379 68.991 87.3956 69.0756C90.448 69.65 93.5984 69.4021 96.5235 68.3575C99.4486 67.3129 102.043 65.5092 104.042 63.1312C105.736 61.0698 106.929 58.6434 107.526 56.0429" fill="#28663A"/>
<path d="M92.9061 47.0212C92.8622 46.8587 92.8637 46.6873 92.9105 46.5256C92.9573 46.3639 93.0477 46.2182 93.1717 46.1044C93.2957 45.9906 93.4486 45.9131 93.6137 45.8802C93.7787 45.8474 93.9497 45.8606 94.1078 45.9183C94.6382 46.0791 94.7295 46.6931 94.78 47.1636C94.8428 47.7831 95.1313 48.4362 94.8194 49.0433C94.7149 49.1566 94.585 49.2435 94.4404 49.2968C94.2957 49.3502 94.1405 49.3684 93.9875 49.3502C93.8344 49.3319 93.6879 49.2775 93.5599 49.1916C93.4319 49.1057 93.3261 48.9907 93.2512 48.8559C93.1002 48.2516 92.985 47.639 92.9061 47.0212Z" fill="#CFE280"/>
<path d="M92.9061 47.0211C92.9844 47.6401 93.1017 48.2535 93.2574 48.8576C93.3323 48.9924 93.4381 49.1074 93.5661 49.1933C93.6941 49.2793 93.8406 49.3336 93.9937 49.3519C94.1467 49.3702 94.302 49.3519 94.4466 49.2985C94.5912 49.2452 94.7211 49.1583 94.8256 49.045C94.893 49.2918 94.8623 49.5551 94.7401 49.7799C94.663 49.9 94.5588 50.0002 94.4358 50.0725C94.3128 50.1448 94.1745 50.187 94.0321 50.1959C93.8897 50.2047 93.7472 50.1798 93.6162 50.1233C93.4852 50.0668 93.3694 49.9801 93.2781 49.8705C93.1001 49.5751 93.0001 49.2392 92.9876 48.8946C92.7866 48.2898 92.7584 47.641 92.9061 47.0211Z" fill="#27653A"/>
<path d="M74.4928 45.1027C74.6812 44.6582 74.8807 44.2705 75.103 43.8489C76.6828 45.0886 78.3301 46.2397 80.0374 47.2969C80.2922 47.4594 80.5455 47.635 80.7911 47.8062C80.5786 48.2422 80.4119 48.6991 80.2936 49.1696C79.845 50.6194 79.7321 52.1523 79.9634 53.6522C80.3438 56.075 81.5588 58.2888 83.3985 59.9106C84.4645 60.8517 85.7061 61.5726 87.0518 62.0318C88.3976 62.491 89.8209 62.6794 91.2398 62.5863C92.8403 62.4813 94.3961 62.0141 95.7898 61.2202C97.1836 60.4262 98.3788 59.3261 99.2854 58.0029C99.4808 57.7146 99.6596 57.4153 99.8209 57.1066C98.238 57.2042 96.6532 56.9489 95.1811 56.3591C93.709 55.7693 92.3863 54.8597 91.3087 53.6962C91.1126 53.4692 90.9299 53.2309 90.7618 52.9825C90.9393 52.9526 91.1188 52.9366 91.2987 52.9348C91.8741 52.8925 92.4522 52.9085 93.0244 52.9823C94.1089 53.3141 95.2111 53.5852 96.3257 53.7945C99.2952 54.4452 102.322 54.8004 105.361 54.855C106.118 54.8136 106.876 54.8365 107.629 54.9235C107.646 54.8632 107.695 54.7337 107.713 54.6714C107.681 55.1315 107.611 55.5881 107.503 56.0366C106.777 59.2314 105.148 62.15 102.81 64.4448C100.472 66.7397 97.5229 68.3138 94.3151 68.9797C92.0281 69.4711 89.6658 69.4996 87.3676 69.0634C86.9096 68.982 86.455 68.8825 86.0048 68.7653C85.5933 68.6353 85.1966 68.5407 84.8107 68.391C81.1158 67.1411 77.9424 64.6963 75.7913 61.4424C74.519 59.5331 73.6441 57.3873 73.2186 55.1327C73.0812 54.403 73.0136 53.6636 72.9185 52.9188C72.8337 51.6605 72.9214 50.3966 73.179 49.1621C73.3241 48.4928 73.483 47.8267 73.6559 47.164" fill="#B2D33C"/>
<path d="M91.3224 53.7112C92.4 54.8747 93.7227 55.7843 95.1948 56.3741C96.6669 56.9639 98.2517 57.2192 99.8346 57.1216C99.6582 57.4262 99.4824 57.7287 99.2991 58.0179C98.806 57.9077 98.3001 57.9484 97.7967 57.8757C95.7374 57.6411 93.7905 56.814 92.192 55.4948C91.6041 55.0263 91.1029 54.4583 90.7113 53.8166L91.3287 53.7129" fill="#28653A"/>
</g>
<g clip-path="url(#clip1_161_2)">
<path d="M117.291 42.8277L117.32 42.8451L117.351 42.8584C120.319 44.1159 122.662 45.7575 124.47 48.3242C126.258 50.8621 127.55 54.3431 128.365 59.3385C127.853 59.9264 127.448 60.2694 127.12 60.4315C126.802 60.5886 126.577 60.5699 126.342 60.4293L126.341 60.4289C125.568 59.9677 124.853 58.7514 124.617 57.0785C125.182 49.7474 120.802 45.9783 117.518 43.1534C117.331 42.9926 117.148 42.8348 116.969 42.6796C117.076 42.7147 117.184 42.7639 117.291 42.8277ZM124.114 57.0932C124.352 58.8655 125.118 60.2811 126.085 60.8582L124.114 57.0932Z" fill="#A7D129" stroke="black"/>
<path d="M114.012 35.1808L114.012 35.1807C113.929 34.6249 113.968 34.0712 114.117 33.5924C114.266 33.1125 114.512 32.7474 114.8 32.5199L114.49 32.1276L114.8 32.5199C115.082 32.2966 115.401 32.2077 115.724 32.2464C116.052 32.2858 116.404 32.4605 116.726 32.7885L116.726 32.7887C120.732 36.8718 124.536 41.5343 129.865 48.8946C130.246 49.4371 130.477 50.1571 130.494 50.8963C130.511 51.6385 130.311 52.2992 129.975 52.7471C129.645 53.1869 129.224 53.3775 128.806 53.3496C128.376 53.3209 127.901 53.0577 127.509 52.5328C122.368 45.4306 118.706 40.9361 114.879 37.0347L114.879 37.0346C114.427 36.5734 114.121 35.9042 114.012 35.1808Z" fill="#A7D129" stroke="black"/>
<path d="M119.267 40.8634C117.927 38.2067 116.899 35.3662 116.182 32.3907C116.364 32.4769 116.547 32.6062 116.726 32.7872C120.732 36.8703 124.536 41.5328 129.865 48.893C130.245 49.4355 130.476 50.1555 130.494 50.8947C130.511 51.6369 130.311 52.2976 129.975 52.7455C129.645 53.1853 129.224 53.3759 128.805 53.348C128.375 53.3193 127.901 53.0561 127.509 52.5312C124.87 48.885 122.624 45.9331 120.542 43.39L119.267 40.8634L119.267 40.8634Z" fill="#A7D129" stroke="black"/>
<path d="M120.804 40.4743L120.804 40.4743C119.089 37.0756 117.895 33.2797 117.303 29.3441C117.175 28.4934 117.312 27.7058 117.613 27.1236C117.915 26.5407 118.357 26.1976 118.842 26.1247L118.767 25.6303L118.767 25.629C118.785 25.6181 118.973 25.5455 119.234 25.4551C119.239 25.4677 119.243 25.4808 119.247 25.4944C119.293 25.6562 119.245 25.7879 119.215 25.8499C119.164 25.9527 119.09 26.0106 119.08 26.0187L119.079 26.0194C119.044 26.0481 119.011 26.0653 119.007 26.0675L119.007 26.0677C118.997 26.0729 118.99 26.0765 118.987 26.0777C118.979 26.0815 118.978 26.0816 118.993 26.0757C119.016 26.0662 119.058 26.0501 119.115 26.0287C119.229 25.9864 119.394 25.9274 119.583 25.8648C119.934 25.7482 120.334 25.6299 120.629 25.5754C120.653 25.5983 120.687 25.6355 120.731 25.6929C120.87 25.876 121.034 26.1733 121.218 26.5791C121.582 27.3837 121.974 28.5046 122.367 29.7076C122.553 30.2773 122.747 30.8879 122.936 31.485C123.132 32.1058 123.324 32.712 123.498 33.2422C123.843 34.2921 124.175 35.2219 124.458 35.7056C124.459 35.7065 124.46 35.7075 124.46 35.7085L124.462 35.712L124.477 35.7389L124.538 35.8447C124.591 35.9376 124.668 36.0744 124.767 36.2494C124.965 36.5994 125.249 37.1025 125.591 37.7146C126.275 38.9388 127.193 40.598 128.127 42.3385C129.061 44.0799 130.01 45.8987 130.757 47.4437C131.131 48.2164 131.452 48.9162 131.696 49.5011C131.943 50.095 132.098 50.5414 132.154 50.8185L132.154 50.8191L135.218 65.7741C135.33 66.3255 135.7 67.3676 136.166 68.5757C136.64 69.8006 137.231 71.2419 137.809 72.6172C138.386 73.9931 138.951 75.3058 139.371 76.2743C139.581 76.7586 139.755 77.1571 139.877 77.4345C139.936 77.5693 139.983 77.6756 140.015 77.7492L139.898 78.9909L129.406 80.5682L129.365 80.4466L129.365 80.4464C128.312 77.3552 126.587 74.6868 124.42 72.8385C124.42 72.8385 124.42 72.8385 124.42 72.8385L115.577 65.2952L115.484 65.2159L115.365 65.1884L111.836 64.3742C111.835 64.3741 111.835 64.3741 111.835 64.3741C111.64 64.3284 111.383 64.1275 111.257 63.751L111.257 63.7507C111.14 63.4062 111.074 63.0388 111.063 62.6716C111.052 62.3044 111.095 61.9499 111.188 61.6299C111.281 61.3096 111.419 61.0362 111.587 60.8212L111.197 60.5161L111.587 60.8212C111.755 60.6067 111.946 60.4572 112.145 60.3687C114.168 59.468 116.446 59.6196 118.578 60.8369C118.578 60.8369 118.578 60.8369 118.578 60.8369L121.222 62.3469C121.222 62.347 121.222 62.3471 121.222 62.3471C121.643 62.5888 122.103 62.7182 122.569 62.7121C123.037 62.706 123.485 62.5638 123.881 62.3028C124.276 62.0429 124.604 61.6753 124.853 61.2367C125.101 60.7984 125.268 60.2939 125.349 59.759C125.729 57.2719 125.714 54.6575 125.306 52.0815C124.898 49.5054 124.106 47.0194 122.977 44.7817L122.531 45.0068L122.977 44.7816L120.804 40.4743Z" fill="#A7D129" stroke="black"/>
<path d="M118.618 25.6754C118.668 25.6629 118.715 25.6398 118.768 25.6319C119.353 25.5437 119.963 25.7454 120.488 26.2011C121.013 26.6567 121.42 27.3367 121.636 28.12L122.588 31.5673C123.144 33.5806 123.941 35.4817 124.945 37.1888L129.327 44.6383C130.608 46.8176 131.55 49.3075 132.084 51.9336L135.117 66.8263C135.526 68.8329 136.173 70.7646 137.031 72.5419L140.359 79.4272L142.277 79.1388L138.488 71.297C137.63 69.5201 136.983 67.5883 136.574 65.5814L133.541 50.6887C133.007 48.0627 132.065 45.5728 130.784 43.3934L126.402 35.9439C125.398 34.2368 124.601 32.3355 124.045 30.3225L123.093 26.8751C122.925 26.2657 122.639 25.7155 122.269 25.2854C121.898 24.8553 121.457 24.562 120.994 24.4379C120.531 24.3138 120.064 24.3636 119.645 24.582C119.225 24.8004 118.87 25.1788 118.618 25.6754Z" fill="#616F39"/>
</g>
<g clip-path="url(#clip2_161_2)">
<path d="M63.1062 42.3461L63.0769 42.3636L63.0456 42.3769C60.0777 43.6344 57.7347 45.2759 55.9267 47.8427C54.1389 50.3806 52.847 53.8615 52.0319 58.857C52.5436 59.4449 52.9485 59.7879 53.277 59.95C53.5953 60.107 53.8203 60.0883 54.0551 59.9477L54.0557 59.9473C54.8286 59.4862 55.5439 58.2699 55.7802 56.597C55.2148 49.2659 59.5953 45.4968 62.8786 42.6718C63.0655 42.511 63.2489 42.3532 63.4275 42.1981C63.3208 42.2332 63.2134 42.2824 63.1062 42.3461ZM56.2829 56.6117C56.0445 58.3839 55.2793 59.7995 54.3119 60.3767L56.2829 56.6117Z" fill="#A7D129" stroke="black"/>
<path d="M66.3845 34.6993L66.3846 34.6992C66.4682 34.1434 66.4291 33.5897 66.2803 33.1108C66.1311 32.631 65.8849 32.2658 65.5971 32.0384L65.907 31.6461L65.5971 32.0384C65.3144 31.8151 64.9961 31.7262 64.6734 31.7649C64.3448 31.8043 63.9929 31.979 63.6714 32.307L63.6712 32.3072C59.6649 36.3902 55.8605 41.0527 50.5318 48.4131C50.1514 48.9555 49.9203 49.6756 49.9032 50.4147C49.8859 51.157 50.0862 51.8177 50.4218 52.2655C50.7515 52.7054 51.1729 52.896 51.5913 52.8681C52.0213 52.8394 52.4961 52.5762 52.8879 52.0512C58.0291 44.949 61.6909 40.4545 65.5175 36.5531L65.5176 36.5531C65.9701 36.0919 66.2758 35.4226 66.3845 34.6993Z" fill="#A7D129" stroke="black"/>
<path d="M61.1295 40.3818C62.4701 37.7251 63.4975 34.8847 64.215 31.9091C64.033 31.9953 63.8495 32.1246 63.6713 32.3057C59.6651 36.3887 55.8607 41.0512 50.532 48.4115C50.1516 48.9539 49.9205 49.674 49.9034 50.4132C49.8862 51.1554 50.0864 51.8161 50.422 52.2639C50.7517 52.7038 51.1731 52.8944 51.5915 52.8665C52.0215 52.8378 52.4963 52.5746 52.8881 52.0497C55.5266 48.4034 57.773 45.4516 59.8549 42.9085L61.1295 40.3819L61.1295 40.3818Z" fill="#A7D129" stroke="black"/>
<path d="M59.5927 39.9928L59.5927 39.9927C61.3077 36.5941 62.5024 32.7981 63.094 28.8625C63.2219 28.0119 63.0845 27.2243 62.7835 26.642C62.4821 26.0592 62.04 25.7161 61.5553 25.6432L61.6296 25.1488L61.6298 25.1475C61.6118 25.1366 61.4243 25.064 61.1629 24.9735C61.1582 24.9862 61.1539 24.9993 61.1501 25.0129C61.1044 25.1746 61.1518 25.3064 61.1821 25.3684C61.2324 25.4711 61.3064 25.5291 61.3167 25.5372L61.3177 25.5379C61.3533 25.5665 61.3855 25.5837 61.3896 25.586L61.39 25.5862C61.3997 25.5914 61.407 25.5949 61.4096 25.5962C61.4176 25.6 61.4185 25.6001 61.4042 25.5942C61.3806 25.5846 61.3392 25.5685 61.2817 25.5472C61.1681 25.5048 61.0026 25.4458 60.8141 25.3832C60.4628 25.2667 60.0629 25.1484 59.7682 25.0938C59.7439 25.1168 59.7094 25.154 59.6659 25.2114C59.5269 25.3945 59.3625 25.6917 59.1788 26.0975C58.8146 26.9021 58.4225 28.023 58.0296 29.2261C57.8435 29.7958 57.6502 30.4064 57.4613 31.0034C57.2647 31.6243 57.0728 32.2304 56.8986 32.7606C56.5534 33.8105 56.2221 34.7403 55.9385 35.224C55.9379 35.225 55.9373 35.226 55.9368 35.2269L55.9348 35.2304L55.9195 35.2574L55.8592 35.3632C55.8064 35.4561 55.7288 35.5928 55.6298 35.7678C55.4317 36.1179 55.1481 36.621 54.806 37.233C54.1218 38.4573 53.2043 40.1164 52.2704 41.8569C51.336 43.5983 50.3873 45.4172 49.6398 46.9621C49.2659 47.7348 48.9445 48.4347 48.7009 49.0196C48.4536 49.6135 48.299 50.0598 48.2425 50.337L48.2424 50.3375L45.179 65.2926C45.0669 65.844 44.6973 66.886 44.2305 68.0941C43.7573 69.319 43.1658 70.7603 42.5884 72.1356C42.0108 73.5116 41.4461 74.8243 41.0259 75.7928C40.8157 76.2771 40.6417 76.6755 40.5201 76.9529C40.461 77.0878 40.4143 77.194 40.3819 77.2677L40.4992 78.5094L50.9904 80.0866L51.0317 79.9651L51.0318 79.9649C52.0847 76.8736 53.8102 74.2052 55.9771 72.357C55.9771 72.357 55.9771 72.3569 55.9771 72.3569L64.82 64.8137L64.913 64.7343L65.0321 64.7069L68.5613 63.8926C68.5614 63.8926 68.5615 63.8926 68.5616 63.8925C68.7573 63.8469 69.0135 63.646 69.1402 63.2694L69.1403 63.2691C69.2564 62.9247 69.3224 62.5572 69.3338 62.1901C69.3452 61.8229 69.3015 61.4683 69.2087 61.1483C69.1159 60.8281 68.9776 60.5546 68.8096 60.3396L69.2 60.0346L68.8096 60.3396C68.642 60.1252 68.4505 59.9757 68.252 59.8872C66.2285 58.9865 63.9506 59.1381 61.8187 60.3554C61.8187 60.3554 61.8187 60.3554 61.8187 60.3554L59.1751 61.8654C59.175 61.8655 59.1748 61.8655 59.1747 61.8656C58.7535 62.1072 58.2941 62.2367 57.8277 62.2306C57.3601 62.2244 56.9119 62.0822 56.5158 61.8212C56.1213 61.5614 55.7932 61.1938 55.5444 60.7551C55.2957 60.3168 55.1288 59.8124 55.0477 59.2775C54.6675 56.7904 54.6829 54.176 55.0908 51.5999C55.4988 49.0239 56.2913 46.5379 57.4199 44.3001L57.8664 44.5253L57.42 44.3001L59.5927 39.9928Z" fill="#A7D129" stroke="black"/>
<path d="M61.7793 25.1938C61.7287 25.1814 61.6819 25.1582 61.6294 25.1503C61.0439 25.0622 60.4342 25.2639 59.9089 25.7195C59.3836 26.1752 58.9768 26.8552 58.7608 27.6385L57.8093 31.0858C57.2532 33.099 56.4559 35.0002 55.4518 36.7073L51.0701 44.1568C49.7885 46.336 48.8473 48.826 48.3127 51.452L45.2796 66.3447C44.8705 68.3514 44.2237 70.2831 43.3658 72.0603L40.0382 78.9457L38.1196 78.6572L41.9086 70.8154C42.7672 69.0386 43.414 67.1067 43.8224 65.0998L46.8555 50.2071C47.3903 47.5811 48.3315 45.0912 49.613 42.9119L53.9947 35.4624C54.9988 33.7552 55.7961 31.8539 56.3522 29.8409L57.3037 26.3936C57.4724 25.7841 57.7576 25.234 58.128 24.8039C58.4984 24.3738 58.9395 24.0805 59.4026 23.9564C59.8657 23.8322 60.3327 23.8821 60.7521 24.1005C61.1716 24.3189 61.5271 24.6972 61.7793 25.1938Z" fill="#616F39"/>
</g>
<path d="M154.075 58.81L153.445 58.075L138.99 60.385L137.1 58.39L139.13 50.375L140.705 49.115H151.765L151.03 43.655L138.43 46.735L137.625 43.55L152.01 40.015L154.04 41.415L156 55.94L158.45 56.64L157.575 59.79L154.075 58.81ZM152.535 54.855L152.22 52.44H142L140.915 56.71L152.535 54.855ZM160.539 58.425L161.939 43.83L164.004 42.395L171.634 44.46L179.019 42.395L181.119 43.935L181.854 58.495L178.564 58.67L177.899 46.175L173.104 47.47L173.174 58.53L169.919 58.6L169.814 47.435L165.054 46.105L163.829 58.705L160.539 58.425ZM186.684 57.9L185.354 56.045L187.034 43.585L188.504 42.185L198.759 41.345L200.369 42.22L203.344 48.1L202.189 50.445L191.304 52.72L190.604 49.535L199.389 47.645L197.919 44.74L190.079 45.335L188.819 54.96L200.859 57.2L200.229 60.42L186.684 57.9ZM220.361 49.255L220.956 52.545L210.946 54.225L207.936 60.84L204.926 59.51L216.581 34.03L219.591 33.995L230.231 56.36L227.256 57.795L218.086 38.615L212.626 50.585L220.361 49.255ZM233.205 61.715L234.43 41.03L236.39 39.49L247.31 41.73L248.57 43.165L249.69 51.88L248.395 53.735L239.015 55.695L238.315 52.51L246.26 50.795L245.455 44.74L237.58 43.13L236.495 61.89L233.205 61.715ZM252.824 61.715L254.049 41.03L256.009 39.49L266.929 41.73L268.189 43.165L269.309 51.88L268.014 53.735L258.634 55.695L257.934 52.51L265.879 50.795L265.074 44.74L257.199 43.13L256.114 61.89L252.824 61.715Z" fill="#090808"/>
<defs>
<linearGradient id="paint0_linear_161_2" x1="98.1363" y1="25.5892" x2="83.1939" y2="79.3642" gradientUnits="userSpaceOnUse">
<stop stop-color="#535355"/>
<stop offset="1" stop-color="#0A0A0A"/>
</linearGradient>
<linearGradient id="paint1_linear_161_2" x1="95.3124" y1="71.5194" x2="85.5587" y2="33.7249" gradientUnits="userSpaceOnUse">
<stop stop-color="white"/>
<stop offset="1"/>
</linearGradient>
<clipPath id="clip0_161_2">
<rect width="69" height="69" fill="white" transform="translate(66.0682 10.0229) rotate(15.529)"/>
</clipPath>
<clipPath id="clip1_161_2">
<rect width="57.4203" height="41.5746" fill="white" transform="translate(103.537 84.9631) rotate(-98.5499)"/>
</clipPath>
<clipPath id="clip2_161_2">
<rect width="57.4203" height="41.5746" fill="white" transform="matrix(0.14867 -0.988887 -0.988887 -0.14867 76.8602 84.4815)"/>
</clipPath>
</defs>
</svg>
